<svg width="17" height="16" viewBox="0 0 17 16" fill="none" xmlns="http://www.w3.org/2000/svg">
<path d="M8.70681 10.5218L3.45458 5.4783C3.37409 5.40101 3.2785 5.35753 3.16782 5.34787C3.05714 5.3382 2.95149 5.38168 2.85088 5.4783C2.75026 5.57492 2.69995 5.67154 2.69995 5.76816C2.69995 5.86477 2.75026 5.96139 2.85088 6.05801L8.07292 11.0725C8.17354 11.1691 8.27416 11.2368 8.37477 11.2754C8.47539 11.314 8.58607 11.3334 8.70681 11.3334C8.82755 11.3334 8.93823 11.314 9.03885 11.2754C9.13947 11.2368 9.24008 11.1691 9.3407 11.0725L14.5627 6.05801C14.6432 5.98072 14.6885 5.88893 14.6986 5.78265C14.7086 5.67637 14.6634 5.57492 14.5627 5.4783C14.4621 5.38168 14.3615 5.33337 14.2609 5.33337C14.1603 5.33337 14.0597 5.38168 13.959 5.4783L8.70681 10.5218Z" fill="#F95832"/>
</svg>
