<svg width="24" height="24" viewBox="0 0 24 24" fill="none" xmlns="http://www.w3.org/2000/svg">
<path d="M15.7826 12.0103L8.21739 4.13195C8.10145 4.01121 8.03623 3.86783 8.02174 3.70181C8.00725 3.53579 8.07246 3.37732 8.21739 3.22639C8.36232 3.07546 8.50725 3 8.65217 3C8.7971 3 8.94203 3.07546 9.08696 3.22639L16.6087 11.0595C16.7536 11.2104 16.8551 11.3613 16.913 11.5122C16.971 11.6632 17 11.8292 17 12.0103C17 12.1914 16.971 12.3574 16.913 12.5083C16.8551 12.6593 16.7536 12.8102 16.6087 12.9611L9.08696 20.7942C8.97101 20.9149 8.83333 20.9828 8.67391 20.9979C8.51449 21.013 8.36232 20.9451 8.21739 20.7942C8.07246 20.6433 8 20.4923 8 20.3414C8 20.1905 8.07246 20.0396 8.21739 19.8886L15.7826 12.0103Z" fill="white"/>
<path d="M15.7826 12.0103L8.21739 4.13195C8.10145 4.01121 8.03623 3.86783 8.02174 3.70181C8.00725 3.53579 8.07246 3.37732 8.21739 3.22639C8.36232 3.07546 8.50725 3 8.65217 3C8.7971 3 8.94203 3.07546 9.08696 3.22639L16.6087 11.0595C16.7536 11.2104 16.8551 11.3613 16.913 11.5122C16.971 11.6632 17 11.8292 17 12.0103C17 12.1914 16.971 12.3574 16.913 12.5083C16.8551 12.6593 16.7536 12.8102 16.6087 12.9611L9.08696 20.7942C8.97101 20.9149 8.83333 20.9828 8.67391 20.9979C8.51449 21.013 8.36232 20.9451 8.21739 20.7942C8.07246 20.6433 8 20.4923 8 20.3414C8 20.1905 8.07246 20.0396 8.21739 19.8886L15.7826 12.0103Z" fill="#1C1C1C"/>
</svg>
