<svg width="24" height="24" viewBox="0 0 24 24" fill="none" xmlns="http://www.w3.org/2000/svg">
<path d="M12.0103 8.21739L4.13195 15.7826C4.01121 15.8986 3.86783 15.9638 3.70181 15.9783C3.53579 15.9928 3.37732 15.9275 3.22639 15.7826C3.07546 15.6377 3 15.4928 3 15.3478C3 15.2029 3.07546 15.058 3.22639 14.913L11.0595 7.3913C11.2104 7.24638 11.3613 7.14493 11.5122 7.08696C11.6632 7.02898 11.8292 7 12.0103 7C12.1914 7 12.3574 7.02898 12.5083 7.08696C12.6593 7.14493 12.8102 7.24638 12.9611 7.3913L20.7942 14.913C20.9149 15.029 20.9828 15.1667 20.9979 15.3261C21.013 15.4855 20.9451 15.6377 20.7942 15.7826C20.6433 15.9275 20.4923 16 20.3414 16C20.1905 16 20.0396 15.9275 19.8886 15.7826L12.0103 8.21739Z" fill="white"/>
<path d="M12.0103 8.21739L4.13195 15.7826C4.01121 15.8986 3.86783 15.9638 3.70181 15.9783C3.53579 15.9928 3.37732 15.9275 3.22639 15.7826C3.07546 15.6377 3 15.4928 3 15.3478C3 15.2029 3.07546 15.058 3.22639 14.913L11.0595 7.3913C11.2104 7.24638 11.3613 7.14493 11.5122 7.08696C11.6632 7.02898 11.8292 7 12.0103 7C12.1914 7 12.3574 7.02898 12.5083 7.08696C12.6593 7.14493 12.8102 7.24638 12.9611 7.3913L20.7942 14.913C20.9149 15.029 20.9828 15.1667 20.9979 15.3261C21.013 15.4855 20.9451 15.6377 20.7942 15.7826C20.6433 15.9275 20.4923 16 20.3414 16C20.1905 16 20.0396 15.9275 19.8886 15.7826L12.0103 8.21739Z" fill="#1C1C1C"/>
</svg>
