<svg width="24" height="24" viewBox="0 0 24 24" fill="none" xmlns="http://www.w3.org/2000/svg">
<path d="M8.21739 12.0103L15.7826 4.13195C15.8986 4.01121 15.9638 3.86783 15.9783 3.70181C15.9928 3.53579 15.9275 3.37732 15.7826 3.22639C15.6377 3.07546 15.4928 3 15.3478 3C15.2029 3 15.058 3.07546 14.913 3.22639L7.3913 11.0595C7.24638 11.2104 7.14493 11.3613 7.08696 11.5122C7.02899 11.6632 7 11.8292 7 12.0103C7 12.1914 7.02899 12.3574 7.08696 12.5083C7.14493 12.6593 7.24638 12.8102 7.3913 12.9611L14.913 20.7942C15.029 20.9149 15.1667 20.9828 15.3261 20.9979C15.4855 21.013 15.6377 20.9451 15.7826 20.7942C15.9275 20.6433 16 20.4923 16 20.3414C16 20.1905 15.9275 20.0396 15.7826 19.8886L8.21739 12.0103Z" fill="white"/>
<path d="M8.21739 12.0103L15.7826 4.13195C15.8986 4.01121 15.9638 3.86783 15.9783 3.70181C15.9928 3.53579 15.9275 3.37732 15.7826 3.22639C15.6377 3.07546 15.4928 3 15.3478 3C15.2029 3 15.058 3.07546 14.913 3.22639L7.3913 11.0595C7.24638 11.2104 7.14493 11.3613 7.08696 11.5122C7.02899 11.6632 7 11.8292 7 12.0103C7 12.1914 7.02899 12.3574 7.08696 12.5083C7.14493 12.6593 7.24638 12.8102 7.3913 12.9611L14.913 20.7942C15.029 20.9149 15.1667 20.9828 15.3261 20.9979C15.4855 21.013 15.6377 20.9451 15.7826 20.7942C15.9275 20.6433 16 20.4923 16 20.3414C16 20.1905 15.9275 20.0396 15.7826 19.8886L8.21739 12.0103Z" fill="#1C1C1C"/>
</svg>
