<svg width="24" height="24" viewBox="0 0 24 24" fill="none" xmlns="http://www.w3.org/2000/svg">
<path d="M12.0103 15.7826L4.13195 8.21739C4.01121 8.10145 3.86783 8.03623 3.70181 8.02174C3.53579 8.00725 3.37732 8.07246 3.22639 8.21739C3.07546 8.36232 3 8.50725 3 8.65217C3 8.7971 3.07546 8.94203 3.22639 9.08696L11.0595 16.6087C11.2104 16.7536 11.3613 16.8551 11.5122 16.913C11.6632 16.971 11.8292 17 12.0103 17C12.1914 17 12.3574 16.971 12.5083 16.913C12.6593 16.8551 12.8102 16.7536 12.9611 16.6087L20.7942 9.08696C20.9149 8.97101 20.9828 8.83333 20.9979 8.67391C21.013 8.51449 20.9451 8.36232 20.7942 8.21739C20.6433 8.07246 20.4923 8 20.3414 8C20.1905 8 20.0396 8.07246 19.8886 8.21739L12.0103 15.7826Z" fill="white"/>
<path d="M12.0103 15.7826L4.13195 8.21739C4.01121 8.10145 3.86783 8.03623 3.70181 8.02174C3.53579 8.00725 3.37732 8.07246 3.22639 8.21739C3.07546 8.36232 3 8.50725 3 8.65217C3 8.7971 3.07546 8.94203 3.22639 9.08696L11.0595 16.6087C11.2104 16.7536 11.3613 16.8551 11.5122 16.913C11.6632 16.971 11.8292 17 12.0103 17C12.1914 17 12.3574 16.971 12.5083 16.913C12.6593 16.8551 12.8102 16.7536 12.9611 16.6087L20.7942 9.08696C20.9149 8.97101 20.9828 8.83333 20.9979 8.67391C21.013 8.51449 20.9451 8.36232 20.7942 8.21739C20.6433 8.07246 20.4923 8 20.3414 8C20.1905 8 20.0396 8.07246 19.8886 8.21739L12.0103 15.7826Z" fill="#1C1C1C"/>
</svg>
