<svg width="24" height="24" viewBox="0 0 24 24" fill="none" xmlns="http://www.w3.org/2000/svg">
<path d="M12.0703 18.8298L7.33347 20.8246C6.67558 21.1034 6.05058 21.0498 5.45847 20.6637C4.86637 20.2776 4.57031 19.7414 4.57031 19.055V4.93046C4.57031 4.37277 4.75672 3.91161 5.12952 3.54696C5.50233 3.18232 5.97382 3 6.544 3H17.5966C18.1668 3 18.6383 3.18232 19.0111 3.54696C19.3839 3.91161 19.5703 4.37277 19.5703 4.93046V19.055C19.5703 19.7414 19.2743 20.2776 18.6822 20.6637C18.09 21.0498 17.465 21.1034 16.8072 20.8246L12.0703 18.8298ZM12.0703 17.8002L17.169 19.9559C17.5199 20.106 17.8543 20.0739 18.1723 19.8594C18.4903 19.6449 18.6493 19.3553 18.6493 18.9907V4.93046C18.6493 4.67307 18.5396 4.43712 18.3203 4.22263C18.101 4.00813 17.8598 3.90088 17.5966 3.90088H6.544C6.28084 3.90088 6.03961 4.00813 5.82031 4.22263C5.60101 4.43712 5.49137 4.67307 5.49137 4.93046V18.9907C5.49137 19.3553 5.65036 19.6449 5.96834 19.8594C6.28632 20.0739 6.62075 20.106 6.97163 19.9559L12.0703 17.8002ZM12.0703 3.90088H5.49137H18.6493H12.0703Z" fill="white"/>
<path d="M12.0703 18.8298L7.33347 20.8246C6.67558 21.1034 6.05058 21.0498 5.45847 20.6637C4.86637 20.2776 4.57031 19.7414 4.57031 19.055V4.93046C4.57031 4.37277 4.75672 3.91161 5.12952 3.54696C5.50233 3.18232 5.97382 3 6.544 3H17.5966C18.1668 3 18.6383 3.18232 19.0111 3.54696C19.3839 3.91161 19.5703 4.37277 19.5703 4.93046V19.055C19.5703 19.7414 19.2743 20.2776 18.6822 20.6637C18.09 21.0498 17.465 21.1034 16.8072 20.8246L12.0703 18.8298ZM12.0703 17.8002L17.169 19.9559C17.5199 20.106 17.8543 20.0739 18.1723 19.8594C18.4903 19.6449 18.6493 19.3553 18.6493 18.9907V4.93046C18.6493 4.67307 18.5396 4.43712 18.3203 4.22263C18.101 4.00813 17.8598 3.90088 17.5966 3.90088H6.544C6.28084 3.90088 6.03961 4.00813 5.82031 4.22263C5.60101 4.43712 5.49137 4.67307 5.49137 4.93046V18.9907C5.49137 19.3553 5.65036 19.6449 5.96834 19.8594C6.28632 20.0739 6.62075 20.106 6.97163 19.9559L12.0703 17.8002ZM12.0703 3.90088H5.49137H18.6493H12.0703Z" fill="#1C1C1C"/>
</svg>
