<svg width="26" height="26" viewBox="0 0 26 26" fill="none" xmlns="http://www.w3.org/2000/svg">
<path d="M7.3125 15.2937C7.3125 16.034 7.75859 16.5221 8.44211 16.5221H12.2842V20.3783C12.2842 21.5092 12.8023 22.6725 13.0037 22.6725C13.198 22.6725 13.716 21.5092 13.716 20.3783V16.5221H17.5653C18.2489 16.5221 18.6877 16.034 18.6877 15.2937C18.6877 13.5364 17.4574 11.7385 15.4212 10.8924L15.191 7.1013C16.263 6.41792 17.1121 5.66133 17.479 5.11625C17.6805 4.83151 17.774 4.5305 17.774 4.27017C17.774 3.73323 17.4142 3.33459 16.8674 3.33459H9.13283C8.5932 3.33459 8.22626 3.73323 8.22626 4.27017C8.22626 4.5305 8.3198 4.83151 8.52126 5.11625C8.8882 5.66133 9.73721 6.41792 10.8093 7.1013L10.579 10.8924C8.54284 11.7385 7.3125 13.5364 7.3125 15.2937Z" fill="#FF5639"/>
</svg>
