<svg width="91" height="90" viewBox="0 0 91 90" fill="none" xmlns="http://www.w3.org/2000/svg">
<path d="M90.7578 45C90.7578 69.8528 70.6106 90 45.7578 90C20.905 90 0.757812 69.8528 0.757812 45C0.757812 20.1472 20.905 0 45.7578 0C70.6106 0 90.7578 20.1472 90.7578 45Z" fill="#EFF0F3"/>
<path fill-rule="evenodd" clip-rule="evenodd" d="M76.8268 77.5534C85.4103 69.3589 90.7578 57.804 90.7578 45C90.7578 20.1472 70.6106 0 45.7578 0C20.905 0 0.757812 20.1472 0.757812 45C0.757812 57.804 6.10533 69.3589 14.6888 77.5534C17.7417 71.1094 24.1886 65.8906 32.3967 63.1339C25.4016 58.7023 20.7578 50.8935 20.7578 42C20.7578 28.1929 31.9507 17 45.7578 17C59.5649 17 70.7578 28.1929 70.7578 42C70.7578 50.8935 66.114 58.7023 59.1189 63.1339C67.327 65.8906 73.7739 71.1094 76.8268 77.5534Z" fill="#EFF0F3"/>
<path fill-rule="evenodd" clip-rule="evenodd" d="M76.8268 77.5534C85.4103 69.3589 90.7578 57.804 90.7578 45C90.7578 20.1472 70.6106 0 45.7578 0C20.905 0 0.757812 20.1472 0.757812 45C0.757812 57.804 6.10533 69.3589 14.6888 77.5534C17.7417 71.1094 24.1886 65.8906 32.3967 63.1339C25.4016 58.7023 20.7578 50.8935 20.7578 42C20.7578 28.1929 31.9507 17 45.7578 17C59.5649 17 70.7578 28.1929 70.7578 42C70.7578 50.8935 66.114 58.7023 59.1189 63.1339C67.327 65.8906 73.7739 71.1094 76.8268 77.5534Z" fill="black" fill-opacity="0.1"/>
<rect x="52.6016" y="37" width="2.53125" height="4" rx="1.26562" fill="#EFF0F3"/>
<rect x="52.6016" y="37" width="2.53125" height="4" rx="1.26562" fill="black" fill-opacity="0.2"/>
<rect x="36.7578" y="37" width="2.53125" height="4" rx="1.26562" fill="#EFF0F3"/>
<rect x="36.7578" y="37" width="2.53125" height="4" rx="1.26562" fill="black" fill-opacity="0.2"/>
<path fill-rule="evenodd" clip-rule="evenodd" d="M37.8128 47.1541C37.6326 46.6321 37.9097 46.0628 38.4317 45.8825C38.9538 45.7023 39.5231 45.9794 39.7033 46.5014C40.0935 47.6315 41.868 50.1724 45.7581 50.1724C45.8444 50.1724 45.9282 50.1834 46.0081 50.2039C46.088 50.1834 46.1718 50.1724 46.2581 50.1724C50.1482 50.1724 51.9227 47.6315 52.3128 46.5014C52.4931 45.9794 53.0624 45.7023 53.5844 45.8825C54.1065 46.0628 54.3836 46.6321 54.2033 47.1541C53.5935 48.9205 51.168 52.1724 46.2581 52.1724C46.1718 52.1724 46.088 52.1615 46.0081 52.1409C45.9282 52.1615 45.8444 52.1724 45.7581 52.1724C40.8482 52.1724 38.4227 48.9205 37.8128 47.1541Z" fill="#EFF0F3"/>
<path fill-rule="evenodd" clip-rule="evenodd" d="M37.8128 47.1541C37.6326 46.6321 37.9097 46.0628 38.4317 45.8825C38.9538 45.7023 39.5231 45.9794 39.7033 46.5014C40.0935 47.6315 41.868 50.1724 45.7581 50.1724C45.8444 50.1724 45.9282 50.1834 46.0081 50.2039C46.088 50.1834 46.1718 50.1724 46.2581 50.1724C50.1482 50.1724 51.9227 47.6315 52.3128 46.5014C52.4931 45.9794 53.0624 45.7023 53.5844 45.8825C54.1065 46.0628 54.3836 46.6321 54.2033 47.1541C53.5935 48.9205 51.168 52.1724 46.2581 52.1724C46.1718 52.1724 46.088 52.1615 46.0081 52.1409C45.9282 52.1615 45.8444 52.1724 45.7581 52.1724C40.8482 52.1724 38.4227 48.9205 37.8128 47.1541Z" fill="black" fill-opacity="0.2"/>
<circle cx="67.7578" cy="76" r="13.5" fill="white" stroke="#EFF0F3"/>
<path d="M67.7578 80.7308C68.8027 80.7308 69.6857 80.3702 70.4069 79.6491C71.128 78.9279 71.4886 78.0449 71.4886 77C71.4886 75.9551 71.128 75.0721 70.4069 74.351C69.6857 73.6298 68.8027 73.2692 67.7578 73.2692C66.7129 73.2692 65.8299 73.6298 65.1088 74.351C64.3876 75.0721 64.027 75.9551 64.027 77C64.027 78.0449 64.3876 78.9279 65.1088 79.6491C65.8299 80.3702 66.7129 80.7308 67.7578 80.7308ZM67.7578 79.7308C66.9809 79.7308 66.3315 79.4699 65.8097 78.9481C65.2879 78.4263 65.027 77.7769 65.027 77C65.027 76.2231 65.2879 75.5737 65.8097 75.0519C66.3315 74.5301 66.9809 74.2692 67.7578 74.2692C68.5347 74.2692 69.1841 74.5301 69.7059 75.0519C70.2277 75.5737 70.4886 76.2231 70.4886 77C70.4886 77.7769 70.2277 78.4263 69.7059 78.9481C69.1841 79.4699 68.5347 79.7308 67.7578 79.7308ZM60.3732 84C59.9129 84 59.5286 83.8458 59.2203 83.5375C58.912 83.2292 58.7578 82.8449 58.7578 82.3846V71.6154C58.7578 71.1551 58.912 70.7708 59.2203 70.4625C59.5286 70.1542 59.9129 70 60.3732 70H63.3309L64.6963 68.5154C64.8411 68.3538 65.0171 68.2276 65.2242 68.1365C65.4312 68.0455 65.6508 68 65.8828 68H69.6328C69.8649 68 70.0844 68.0455 70.2915 68.1365C70.4985 68.2276 70.6745 68.3538 70.8194 68.5154L72.1847 70H75.1424C75.6027 70 75.987 70.1542 76.2953 70.4625C76.6036 70.7708 76.7578 71.1551 76.7578 71.6154V82.3846C76.7578 82.8449 76.6036 83.2292 76.2953 83.5375C75.987 83.8458 75.6027 84 75.1424 84H60.3732ZM60.3732 83H75.1424C75.3219 83 75.4694 82.9423 75.5847 82.8269C75.7001 82.7115 75.7578 82.5641 75.7578 82.3846V71.6154C75.7578 71.4359 75.7001 71.2885 75.5847 71.1731C75.4694 71.0577 75.3219 71 75.1424 71H71.7463L69.902 69H65.6136L63.7694 71H60.3732C60.1937 71 60.0463 71.0577 59.9309 71.1731C59.8155 71.2885 59.7578 71.4359 59.7578 71.6154V82.3846C59.7578 82.5641 59.8155 82.7115 59.9309 82.8269C60.0463 82.9423 60.1937 83 60.3732 83Z" fill="white"/>
<path d="M67.7578 80.7308C68.8027 80.7308 69.6857 80.3702 70.4069 79.6491C71.128 78.9279 71.4886 78.0449 71.4886 77C71.4886 75.9551 71.128 75.0721 70.4069 74.351C69.6857 73.6298 68.8027 73.2692 67.7578 73.2692C66.7129 73.2692 65.8299 73.6298 65.1088 74.351C64.3876 75.0721 64.027 75.9551 64.027 77C64.027 78.0449 64.3876 78.9279 65.1088 79.6491C65.8299 80.3702 66.7129 80.7308 67.7578 80.7308ZM67.7578 79.7308C66.9809 79.7308 66.3315 79.4699 65.8097 78.9481C65.2879 78.4263 65.027 77.7769 65.027 77C65.027 76.2231 65.2879 75.5737 65.8097 75.0519C66.3315 74.5301 66.9809 74.2692 67.7578 74.2692C68.5347 74.2692 69.1841 74.5301 69.7059 75.0519C70.2277 75.5737 70.4886 76.2231 70.4886 77C70.4886 77.7769 70.2277 78.4263 69.7059 78.9481C69.1841 79.4699 68.5347 79.7308 67.7578 79.7308ZM60.3732 84C59.9129 84 59.5286 83.8458 59.2203 83.5375C58.912 83.2292 58.7578 82.8449 58.7578 82.3846V71.6154C58.7578 71.1551 58.912 70.7708 59.2203 70.4625C59.5286 70.1542 59.9129 70 60.3732 70H63.3309L64.6963 68.5154C64.8411 68.3538 65.0171 68.2276 65.2242 68.1365C65.4312 68.0455 65.6508 68 65.8828 68H69.6328C69.8649 68 70.0844 68.0455 70.2915 68.1365C70.4985 68.2276 70.6745 68.3538 70.8194 68.5154L72.1847 70H75.1424C75.6027 70 75.987 70.1542 76.2953 70.4625C76.6036 70.7708 76.7578 71.1551 76.7578 71.6154V82.3846C76.7578 82.8449 76.6036 83.2292 76.2953 83.5375C75.987 83.8458 75.6027 84 75.1424 84H60.3732ZM60.3732 83H75.1424C75.3219 83 75.4694 82.9423 75.5847 82.8269C75.7001 82.7115 75.7578 82.5641 75.7578 82.3846V71.6154C75.7578 71.4359 75.7001 71.2885 75.5847 71.1731C75.4694 71.0577 75.3219 71 75.1424 71H71.7463L69.902 69H65.6136L63.7694 71H60.3732C60.1937 71 60.0463 71.0577 59.9309 71.1731C59.8155 71.2885 59.7578 71.4359 59.7578 71.6154V82.3846C59.7578 82.5641 59.8155 82.7115 59.9309 82.8269C60.0463 82.9423 60.1937 83 60.3732 83Z" fill="#878787"/>
</svg>
