<svg width="26" height="19" viewBox="0 0 26 19" fill="none" xmlns="http://www.w3.org/2000/svg">
<path d="M20.3638 4.01265V6.04328C20.3638 10.2406 17.6822 13.097 13.5335 13.097H12.6299C8.47153 13.097 5.80937 10.26 5.80937 6.04328V4.01265H4.24512V6.04328C4.24512 11.1052 7.61653 14.6613 12.6299 14.6613H13.5335C18.5469 14.6613 21.928 11.0955 21.928 6.04328V4.01265H20.3638ZM13.0866 8.0156C18.3526 8.0156 21.928 6.39305 21.928 4.01265C21.928 1.62255 18.3623 0 13.0866 0C7.81085 0 4.24512 1.62255 4.24512 4.01265C4.24512 6.39305 7.82056 8.0156 13.0866 8.0156ZM13.0866 6.45134C8.89905 6.45134 5.80937 5.39232 5.80937 4.01265C5.80937 2.633 8.89905 1.56426 13.0866 1.56426C17.2741 1.56426 20.3638 2.633 20.3638 4.01265C20.3638 5.39232 17.2741 6.45134 13.0866 6.45134ZM20.8398 10.2406H21.6366C23.8712 10.2406 25.212 9.06492 25.212 7.11202C25.212 5.17856 23.8615 3.99323 21.6366 3.99323H20.9856V5.55748H21.6366C22.8996 5.55748 23.6477 6.14044 23.6477 7.11202C23.6477 8.08361 22.8996 8.67624 21.6366 8.67624H20.8398V10.2406Z" fill="#F95832"/>
</svg>
