<svg width="24" height="24" viewBox="0 0 24 24" fill="none" xmlns="http://www.w3.org/2000/svg">
<path d="M6.02427 18.9754H7.12336L17.2575 8.83746L16.1584 7.73795L6.02427 17.8759V18.9754ZM19.4497 8.10052L16.8891 5.55075L18.1458 4.29361C18.3414 4.09787 18.584 4 18.8736 4C19.1631 4 19.4057 4.09787 19.6014 4.29361L20.7005 5.39311C20.8961 5.58885 20.9959 5.82957 20.9999 6.11527C21.0038 6.40099 20.908 6.64172 20.7123 6.83746L19.4497 8.10052ZM5.82728 20C5.58961 20 5.39231 19.9215 5.2354 19.7645C5.07847 19.6076 5 19.4102 5 19.1724V17.7754C5 17.665 5.01904 17.5622 5.05713 17.467C5.09521 17.3717 5.1589 17.2795 5.2482 17.1901L16.1524 6.28177L18.7131 8.84337L7.80881 19.7517C7.71951 19.8411 7.62726 19.9048 7.53206 19.9429C7.43685 19.981 7.33411 20 7.22381 20H5.82728ZM16.6981 8.27785L16.1584 7.73795L17.2575 8.83746L16.6981 8.27785Z" fill="#F95832"/>
<path d="M7.58333 8.41667H6.16667C6.05638 8.41667 5.95215 8.37657 5.87103 8.29535C5.87103 8.29535 5.87102 8.29534 5.87102 8.29534L7.58333 8.41667ZM7.58333 8.41667V9.83333C7.58333 9.94325 7.62308 10.0474 7.70401 10.1286L7.58333 8.41667ZM8.41667 8.41667V9.83333C8.41667 9.94362 8.37657 10.0479 8.29534 10.129L8.41667 8.41667ZM8.41667 8.41667H9.83333C9.94325 8.41667 10.0474 8.37692 10.1286 8.29599L8.41667 8.41667ZM6.16667 7.58333C6.05675 7.58333 5.95265 7.62308 5.87145 7.70401L7.70465 5.87103C7.62343 5.95215 7.58333 6.05638 7.58333 6.16667V7.58333H6.16667ZM8.00023 5.75C7.8901 5.75 7.78587 5.78991 7.70466 5.87102L8.29598 5.87143C8.21476 5.78994 8.11037 5.75 8.00023 5.75ZM8.41667 6.16667C8.41667 6.05675 8.37692 5.95265 8.29599 5.87145L10.129 7.70465C10.0479 7.62343 9.94362 7.58333 9.83333 7.58333H8.41667V6.16667ZM10.25 8.00023C10.25 7.8901 10.2101 7.78587 10.129 7.70466L10.1286 8.29598C10.2101 8.21476 10.25 8.11036 10.25 8.00023Z" fill="#F95832" stroke="#F95832" stroke-width="0.5"/>
</svg>
