<svg width="24" height="24" viewBox="0 0 24 24" fill="none" xmlns="http://www.w3.org/2000/svg">
<path fill-rule="evenodd" clip-rule="evenodd" d="M9.43115 7.59766C10.2596 7.59766 10.9312 6.92608 10.9312 6.09766C10.9312 5.26923 10.2596 4.59766 9.43115 4.59766C8.60273 4.59766 7.93115 5.26923 7.93115 6.09766C7.93115 6.92608 8.60273 7.59766 9.43115 7.59766ZM9.43115 8.59766C10.8119 8.59766 11.9312 7.47837 11.9312 6.09766C11.9312 4.71694 10.8119 3.59766 9.43115 3.59766C8.05044 3.59766 6.93115 4.71694 6.93115 6.09766C6.93115 7.47837 8.05044 8.59766 9.43115 8.59766Z" fill="white"/>
<path fill-rule="evenodd" clip-rule="evenodd" d="M9.43115 7.59766C10.2596 7.59766 10.9312 6.92608 10.9312 6.09766C10.9312 5.26923 10.2596 4.59766 9.43115 4.59766C8.60273 4.59766 7.93115 5.26923 7.93115 6.09766C7.93115 6.92608 8.60273 7.59766 9.43115 7.59766ZM9.43115 8.59766C10.8119 8.59766 11.9312 7.47837 11.9312 6.09766C11.9312 4.71694 10.8119 3.59766 9.43115 3.59766C8.05044 3.59766 6.93115 4.71694 6.93115 6.09766C6.93115 7.47837 8.05044 8.59766 9.43115 8.59766Z" fill="#1C1C1C"/>
<path d="M11.4297 6.09756C11.4297 5.76619 11.6983 5.49756 12.0297 5.49756H20.2828C20.6142 5.49756 20.8828 5.76619 20.8828 6.09756C20.8828 6.42893 20.6142 6.69756 20.2828 6.69756H12.0297C11.6983 6.69756 11.4297 6.42893 11.4297 6.09756Z" fill="white"/>
<path d="M11.4297 6.09756C11.4297 5.76619 11.6983 5.49756 12.0297 5.49756H20.2828C20.6142 5.49756 20.8828 5.76619 20.8828 6.09756C20.8828 6.42893 20.6142 6.69756 20.2828 6.69756H12.0297C11.6983 6.69756 11.4297 6.42893 11.4297 6.09756Z" fill="#1C1C1C"/>
<path d="M3.05469 6.09756C3.05469 5.76619 3.32332 5.49756 3.65469 5.49756H6.95469C7.28606 5.49756 7.55469 5.76619 7.55469 6.09756C7.55469 6.42893 7.28606 6.69756 6.95469 6.69756H3.65469C3.32332 6.69756 3.05469 6.42893 3.05469 6.09756Z" fill="white"/>
<path d="M3.05469 6.09756C3.05469 5.76619 3.32332 5.49756 3.65469 5.49756H6.95469C7.28606 5.49756 7.55469 5.76619 7.55469 6.09756C7.55469 6.42893 7.28606 6.69756 6.95469 6.69756H3.65469C3.32332 6.69756 3.05469 6.42893 3.05469 6.09756Z" fill="#1C1C1C"/>
<path fill-rule="evenodd" clip-rule="evenodd" d="M9.43115 19.3906C10.2596 19.3906 10.9312 18.7191 10.9312 17.8906C10.9312 17.0622 10.2596 16.3906 9.43115 16.3906C8.60273 16.3906 7.93115 17.0622 7.93115 17.8906C7.93115 18.7191 8.60273 19.3906 9.43115 19.3906ZM9.43115 20.3906C10.8119 20.3906 11.9312 19.2713 11.9312 17.8906C11.9312 16.5099 10.8119 15.3906 9.43115 15.3906C8.05044 15.3906 6.93115 16.5099 6.93115 17.8906C6.93115 19.2713 8.05044 20.3906 9.43115 20.3906Z" fill="white"/>
<path fill-rule="evenodd" clip-rule="evenodd" d="M9.43115 19.3906C10.2596 19.3906 10.9312 18.7191 10.9312 17.8906C10.9312 17.0622 10.2596 16.3906 9.43115 16.3906C8.60273 16.3906 7.93115 17.0622 7.93115 17.8906C7.93115 18.7191 8.60273 19.3906 9.43115 19.3906ZM9.43115 20.3906C10.8119 20.3906 11.9312 19.2713 11.9312 17.8906C11.9312 16.5099 10.8119 15.3906 9.43115 15.3906C8.05044 15.3906 6.93115 16.5099 6.93115 17.8906C6.93115 19.2713 8.05044 20.3906 9.43115 20.3906Z" fill="#1C1C1C"/>
<path d="M11.4297 17.8905C11.4297 17.5592 11.6983 17.2905 12.0297 17.2905H20.2828C20.6142 17.2905 20.8828 17.5592 20.8828 17.8905C20.8828 18.2219 20.6142 18.4905 20.2828 18.4905H12.0297C11.6983 18.4905 11.4297 18.2219 11.4297 17.8905Z" fill="white"/>
<path d="M11.4297 17.8905C11.4297 17.5592 11.6983 17.2905 12.0297 17.2905H20.2828C20.6142 17.2905 20.8828 17.5592 20.8828 17.8905C20.8828 18.2219 20.6142 18.4905 20.2828 18.4905H12.0297C11.6983 18.4905 11.4297 18.2219 11.4297 17.8905Z" fill="#1C1C1C"/>
<path d="M3.05469 17.8905C3.05469 17.5592 3.32332 17.2905 3.65469 17.2905H6.95469C7.28606 17.2905 7.55469 17.5592 7.55469 17.8905C7.55469 18.2219 7.28606 18.4905 6.95469 18.4905H3.65469C3.32332 18.4905 3.05469 18.2219 3.05469 17.8905Z" fill="white"/>
<path d="M3.05469 17.8905C3.05469 17.5592 3.32332 17.2905 3.65469 17.2905H6.95469C7.28606 17.2905 7.55469 17.5592 7.55469 17.8905C7.55469 18.2219 7.28606 18.4905 6.95469 18.4905H3.65469C3.32332 18.4905 3.05469 18.2219 3.05469 17.8905Z" fill="#1C1C1C"/>
<path fill-rule="evenodd" clip-rule="evenodd" d="M14.5063 13.5C13.6779 13.5 13.0063 12.8284 13.0063 12C13.0063 11.1716 13.6779 10.5 14.5063 10.5C15.3348 10.5 16.0063 11.1716 16.0063 12C16.0063 12.8284 15.3348 13.5 14.5063 13.5ZM14.5063 14.5C13.1256 14.5 12.0063 13.3807 12.0063 12C12.0063 10.6193 13.1256 9.5 14.5063 9.5C15.8871 9.5 17.0063 10.6193 17.0063 12C17.0063 13.3807 15.8871 14.5 14.5063 14.5Z" fill="white"/>
<path fill-rule="evenodd" clip-rule="evenodd" d="M14.5063 13.5C13.6779 13.5 13.0063 12.8284 13.0063 12C13.0063 11.1716 13.6779 10.5 14.5063 10.5C15.3348 10.5 16.0063 11.1716 16.0063 12C16.0063 12.8284 15.3348 13.5 14.5063 13.5ZM14.5063 14.5C13.1256 14.5 12.0063 13.3807 12.0063 12C12.0063 10.6193 13.1256 9.5 14.5063 9.5C15.8871 9.5 17.0063 10.6193 17.0063 12C17.0063 13.3807 15.8871 14.5 14.5063 14.5Z" fill="#1C1C1C"/>
<path d="M12.5078 11.9999C12.5078 11.6685 12.2392 11.3999 11.9078 11.3999H3.65469C3.32332 11.3999 3.05469 11.6685 3.05469 11.9999C3.05469 12.3313 3.32332 12.5999 3.65469 12.5999H11.9078C12.2392 12.5999 12.5078 12.3313 12.5078 11.9999Z" fill="white"/>
<path d="M12.5078 11.9999C12.5078 11.6685 12.2392 11.3999 11.9078 11.3999H3.65469C3.32332 11.3999 3.05469 11.6685 3.05469 11.9999C3.05469 12.3313 3.32332 12.5999 3.65469 12.5999H11.9078C12.2392 12.5999 12.5078 12.3313 12.5078 11.9999Z" fill="#1C1C1C"/>
<path d="M20.8828 11.9999C20.8828 11.6685 20.6142 11.3999 20.2828 11.3999H16.9828C16.6514 11.3999 16.3828 11.6685 16.3828 11.9999C16.3828 12.3313 16.6514 12.5999 16.9828 12.5999H20.2828C20.6142 12.5999 20.8828 12.3313 20.8828 11.9999Z" fill="white"/>
<path d="M20.8828 11.9999C20.8828 11.6685 20.6142 11.3999 20.2828 11.3999H16.9828C16.6514 11.3999 16.3828 11.6685 16.3828 11.9999C16.3828 12.3313 16.6514 12.5999 16.9828 12.5999H20.2828C20.6142 12.5999 20.8828 12.3313 20.8828 11.9999Z" fill="#1C1C1C"/>
</svg>
