<svg width="40" height="40" viewBox="0 0 40 40" fill="none" xmlns="http://www.w3.org/2000/svg">
<path d="M7.04184 28.5C6.64184 26.9 9.20851 26.1667 10.5418 26C12.2086 27.8333 14.842 31.4 12.042 31C8.54199 30.5 7.54184 30.5 7.04184 28.5Z" fill="#E67E22"/>
<path d="M28.5 7.04184C26.9 6.64184 26.1667 9.20851 26 10.5418C27.8333 12.2086 31.4 14.842 31 12.042C30.5 8.54199 30.5 7.54184 28.5 7.04184Z" fill="#E67E22"/>
<path d="M10.6075 24.5952L12.1432 23.5714C12.6124 23.2587 13.2471 23.3953 13.5459 23.8735L17.2063 29.73C17.5842 30.3346 17.226 31.1292 16.5227 31.2464L12.8808 31.8534C12.3791 31.937 11.8946 31.6307 11.7549 31.1417L10.2007 25.702C10.0812 25.2839 10.2456 24.8365 10.6075 24.5952Z" fill="url(#paint0_linear_1067_30594)"/>
<path d="M24.8272 10.7877L23.7602 12.2937C23.4342 12.7537 23.5528 13.3921 24.0222 13.7044L29.7724 17.5297C30.366 17.9246 31.1704 17.5892 31.3076 16.8895L32.0178 13.2663C32.1157 12.7672 31.8233 12.2742 31.3384 12.1206L25.9451 10.4124C25.5305 10.2811 25.0786 10.4328 24.8272 10.7877Z" fill="url(#paint1_linear_1067_30594)"/>
<path d="M17.3325 14.7092L14.6341 17.5763C14.2763 17.9565 14.2712 18.548 14.6224 18.9343L25.7947 31.2238C26.1787 31.6463 26.838 31.662 27.2417 31.2583L31.2519 27.2481C31.6581 26.8419 31.6393 26.1777 31.2108 25.7951L18.7267 14.6486C18.3224 14.2876 17.704 14.3144 17.3325 14.7092Z" fill="url(#paint2_linear_1067_30594)"/>
<path d="M12.6406 20.9658L14.2655 19.6117C14.6763 19.2694 15.2837 19.3108 15.6442 19.7056L24.486 29.3895C24.9678 29.9171 24.7567 30.7652 24.0839 31.0055L19.2925 32.7167C18.8344 32.8803 18.325 32.6905 18.0856 32.267L12.4103 22.226C12.1725 21.8055 12.2695 21.2751 12.6406 20.9658Z" fill="url(#paint3_linear_1067_30594)"/>
<path d="M21.1414 12.7178L19.7417 14.3036C19.3879 14.7044 19.412 15.3127 19.7964 15.6843L29.2251 24.7977C29.7389 25.2943 30.5926 25.1074 30.8519 24.4417L32.6986 19.7009C32.8752 19.2476 32.6999 18.733 32.2834 18.4817L22.4077 12.5233C21.9941 12.2737 21.4611 12.3556 21.1414 12.7178Z" fill="url(#paint4_linear_1067_30594)"/>
<defs>
<linearGradient id="paint0_linear_1067_30594" x1="11.9571" y1="23.881" x2="16.9751" y2="39.8384" gradientUnits="userSpaceOnUse">
<stop stop-color="#FF9800"/>
<stop offset="1" stop-color="#DA8200"/>
</linearGradient>
<linearGradient id="paint1_linear_1067_30594" x1="24.0749" y1="12.1164" x2="39.8833" y2="17.5859" gradientUnits="userSpaceOnUse">
<stop stop-color="#FF9800"/>
<stop offset="1" stop-color="#DA8200"/>
</linearGradient>
<linearGradient id="paint2_linear_1067_30594" x1="15.5701" y1="16.0525" x2="32.9325" y2="31.9998" gradientUnits="userSpaceOnUse">
<stop stop-color="#FFCC80"/>
<stop offset="1" stop-color="#EEBA6C"/>
</linearGradient>
<linearGradient id="paint3_linear_1067_30594" x1="14.1647" y1="19.7658" x2="24.7026" y2="36.0243" gradientUnits="userSpaceOnUse">
<stop stop-color="#FFB74D"/>
<stop offset="1" stop-color="#EAA33B"/>
</linearGradient>
<linearGradient id="paint4_linear_1067_30594" x1="19.8987" y1="14.2071" x2="35.8511" y2="25.2028" gradientUnits="userSpaceOnUse">
<stop stop-color="#FFB74D"/>
<stop offset="1" stop-color="#EAA33B"/>
</linearGradient>
</defs>
</svg>
