<svg width="36" height="36" viewBox="0 0 36 36" fill="none" xmlns="http://www.w3.org/2000/svg">
<path d="M6.97656 6.30723C6.97656 5.81017 7.37951 5.40723 7.87656 5.40723H27.6766C28.1736 5.40723 28.5766 5.81017 28.5766 6.30723V29.7072C28.5766 30.2043 28.1736 30.6072 27.6766 30.6072H7.87656C7.37951 30.6072 6.97656 30.2043 6.97656 29.7072V6.30723Z" fill="url(#paint0_linear_1067_30596)"/>
<path d="M6.97656 6.30723C6.97656 5.81017 7.37951 5.40723 7.87656 5.40723H10.5766V30.6072H7.87656C7.37951 30.6072 6.97656 30.2043 6.97656 29.7072V6.30723Z" fill="url(#paint1_linear_1067_30596)"/>
<path d="M13.1855 9.45732C13.1855 9.2088 13.387 9.00732 13.6355 9.00732H24.6625C24.911 9.00732 25.1125 9.2088 25.1125 9.45732V12.458C25.1125 12.7065 24.911 12.908 24.6625 12.908H13.6355C13.387 12.908 13.1855 12.7065 13.1855 12.458V9.45732Z" fill="#B9F1A5"/>
<path d="M13.1855 14.3328C13.1855 14.0843 13.387 13.8828 13.6355 13.8828H24.6625C24.911 13.8828 25.1125 14.0843 25.1125 14.3328V15.5332C25.1125 15.7817 24.911 15.9832 24.6625 15.9832H13.6355C13.387 15.9832 13.1855 15.7817 13.1855 15.5332V14.3328Z" fill="#B9F1A5"/>
<defs>
<linearGradient id="paint0_linear_1067_30596" x1="17.7766" y1="5.40723" x2="17.7766" y2="30.6072" gradientUnits="userSpaceOnUse">
<stop stop-color="#86C470"/>
<stop offset="1" stop-color="#6CB951"/>
</linearGradient>
<linearGradient id="paint1_linear_1067_30596" x1="8.77656" y1="5.40723" x2="8.77656" y2="30.6072" gradientUnits="userSpaceOnUse">
<stop stop-color="#3C5E2B"/>
<stop offset="1" stop-color="#375D25"/>
</linearGradient>
</defs>
</svg>
