<svg width="24" height="24" viewBox="0 0 24 24" fill="none" xmlns="http://www.w3.org/2000/svg">
<path d="M8.94033 15.9809L19.9052 4.86632C20.0266 4.74329 20.1707 4.67772 20.3376 4.66961C20.5045 4.66151 20.6566 4.72708 20.794 4.86632C20.9313 5.00554 21 5.15569 21 5.31677C21 5.47786 20.9313 5.62801 20.794 5.76723L9.64464 17.0688C9.44341 17.2728 9.20864 17.3748 8.94033 17.3748C8.67202 17.3748 8.43725 17.2728 8.23602 17.0688L3.1908 11.9547C3.0694 11.8317 3.00591 11.6856 3.00033 11.5164C2.99474 11.3472 3.06062 11.193 3.19796 11.0538C3.33533 10.9146 3.48346 10.8449 3.64238 10.8449C3.80129 10.8449 3.94942 10.9146 4.08676 11.0538L8.94033 15.9809Z" fill="white"/>
<path d="M8.94033 15.9809L19.9052 4.86632C20.0266 4.74329 20.1707 4.67772 20.3376 4.66961C20.5045 4.66151 20.6566 4.72708 20.794 4.86632C20.9313 5.00554 21 5.15569 21 5.31677C21 5.47786 20.9313 5.62801 20.794 5.76723L9.64464 17.0688C9.44341 17.2728 9.20864 17.3748 8.94033 17.3748C8.67202 17.3748 8.43725 17.2728 8.23602 17.0688L3.1908 11.9547C3.0694 11.8317 3.00591 11.6856 3.00033 11.5164C2.99474 11.3472 3.06062 11.193 3.19796 11.0538C3.33533 10.9146 3.48346 10.8449 3.64238 10.8449C3.80129 10.8449 3.94942 10.9146 4.08676 11.0538L8.94033 15.9809Z" fill="#1C1C1C"/>
</svg>
