<svg width="64" height="64" viewBox="0 0 64 64" fill="none" xmlns="http://www.w3.org/2000/svg">
<path d="M32 44.6155C34.7863 44.6155 37.141 43.6539 39.0641 41.7309C40.9872 39.8078 41.9487 37.4531 41.9487 34.6667C41.9487 31.8804 40.9872 29.5257 39.0641 27.6026C37.141 25.6795 34.7863 24.718 32 24.718C29.2137 24.718 26.859 25.6795 24.9359 27.6026C23.0128 29.5257 22.0513 31.8804 22.0513 34.6667C22.0513 37.4531 23.0128 39.8078 24.9359 41.7309C26.859 43.6539 29.2137 44.6155 32 44.6155ZM32 41.9488C29.9282 41.9488 28.1966 41.2531 26.8051 39.8616C25.4137 38.4701 24.7179 36.7385 24.7179 34.6667C24.7179 32.595 25.4137 30.8633 26.8051 29.4719C28.1966 28.0804 29.9282 27.3847 32 27.3847C34.0718 27.3847 35.8034 28.0804 37.1949 29.4719C38.5863 30.8633 39.2821 32.595 39.2821 34.6667C39.2821 36.7385 38.5863 38.4701 37.1949 39.8616C35.8034 41.2531 34.0718 41.9488 32 41.9488ZM12.3077 53.3334C11.0803 53.3334 10.0556 52.9223 9.23333 52.1001C8.41111 51.2779 8 50.2531 8 49.0257V20.3077C8 19.0804 8.41111 18.0556 9.23333 17.2334C10.0556 16.4112 11.0803 16.0001 12.3077 16.0001H20.1949L23.8359 12.0411C24.2222 11.6103 24.6915 11.2736 25.2436 11.0308C25.7957 10.7881 26.3812 10.6667 27 10.6667H37C37.6188 10.6667 38.2043 10.7881 38.7564 11.0308C39.3085 11.2736 39.7778 11.6103 40.1641 12.0411L43.8051 16.0001H51.6923C52.9197 16.0001 53.9444 16.4112 54.7667 17.2334C55.5889 18.0556 56 19.0804 56 20.3077V49.0257C56 50.2531 55.5889 51.2779 54.7667 52.1001C53.9444 52.9223 52.9197 53.3334 51.6923 53.3334H12.3077ZM12.3077 50.6667H51.6923C52.171 50.6667 52.5641 50.5129 52.8718 50.2052C53.1795 49.8975 53.3333 49.5044 53.3333 49.0257V20.3077C53.3333 19.8291 53.1795 19.436 52.8718 19.1283C52.5641 18.8206 52.171 18.6667 51.6923 18.6667H42.6359L37.7179 13.3334H26.2821L21.3641 18.6667H12.3077C11.829 18.6667 11.4359 18.8206 11.1282 19.1283C10.8205 19.436 10.6667 19.8291 10.6667 20.3077V49.0257C10.6667 49.5044 10.8205 49.8975 11.1282 50.2052C11.4359 50.5129 11.829 50.6667 12.3077 50.6667Z" fill="#E5E5E5"/>
<path d="M32 44.6155C34.7863 44.6155 37.141 43.6539 39.0641 41.7309C40.9872 39.8078 41.9487 37.4531 41.9487 34.6667C41.9487 31.8804 40.9872 29.5257 39.0641 27.6026C37.141 25.6795 34.7863 24.718 32 24.718C29.2137 24.718 26.859 25.6795 24.9359 27.6026C23.0128 29.5257 22.0513 31.8804 22.0513 34.6667C22.0513 37.4531 23.0128 39.8078 24.9359 41.7309C26.859 43.6539 29.2137 44.6155 32 44.6155ZM32 41.9488C29.9282 41.9488 28.1966 41.2531 26.8051 39.8616C25.4137 38.4701 24.7179 36.7385 24.7179 34.6667C24.7179 32.595 25.4137 30.8633 26.8051 29.4719C28.1966 28.0804 29.9282 27.3847 32 27.3847C34.0718 27.3847 35.8034 28.0804 37.1949 29.4719C38.5863 30.8633 39.2821 32.595 39.2821 34.6667C39.2821 36.7385 38.5863 38.4701 37.1949 39.8616C35.8034 41.2531 34.0718 41.9488 32 41.9488ZM12.3077 53.3334C11.0803 53.3334 10.0556 52.9223 9.23333 52.1001C8.41111 51.2779 8 50.2531 8 49.0257V20.3077C8 19.0804 8.41111 18.0556 9.23333 17.2334C10.0556 16.4112 11.0803 16.0001 12.3077 16.0001H20.1949L23.8359 12.0411C24.2222 11.6103 24.6915 11.2736 25.2436 11.0308C25.7957 10.7881 26.3812 10.6667 27 10.6667H37C37.6188 10.6667 38.2043 10.7881 38.7564 11.0308C39.3085 11.2736 39.7778 11.6103 40.1641 12.0411L43.8051 16.0001H51.6923C52.9197 16.0001 53.9444 16.4112 54.7667 17.2334C55.5889 18.0556 56 19.0804 56 20.3077V49.0257C56 50.2531 55.5889 51.2779 54.7667 52.1001C53.9444 52.9223 52.9197 53.3334 51.6923 53.3334H12.3077ZM12.3077 50.6667H51.6923C52.171 50.6667 52.5641 50.5129 52.8718 50.2052C53.1795 49.8975 53.3333 49.5044 53.3333 49.0257V20.3077C53.3333 19.8291 53.1795 19.436 52.8718 19.1283C52.5641 18.8206 52.171 18.6667 51.6923 18.6667H42.6359L37.7179 13.3334H26.2821L21.3641 18.6667H12.3077C11.829 18.6667 11.4359 18.8206 11.1282 19.1283C10.8205 19.436 10.6667 19.8291 10.6667 20.3077V49.0257C10.6667 49.5044 10.8205 49.8975 11.1282 50.2052C11.4359 50.5129 11.829 50.6667 12.3077 50.6667Z" fill="black" fill-opacity="0.04"/>
</svg>
