<svg width="24" height="24" viewBox="0 0 24 24" fill="none" xmlns="http://www.w3.org/2000/svg">
<g clip-path="url(#clip0_1347_49946)">
<path d="M16.8062 9.43942V11.1799C16.8062 14.7776 14.5077 17.226 10.9517 17.226H10.1772C6.61287 17.226 4.33103 14.7943 4.33103 11.1799V9.43942H2.99023V11.1799C2.99023 15.5188 5.88002 18.5668 10.1772 18.5668H10.9517C15.2489 18.5668 18.147 15.5104 18.147 11.1799V9.43942H16.8062ZM10.5687 12.8705C15.0823 12.8705 18.147 11.4798 18.147 9.43942C18.147 7.39076 15.0906 6 10.5687 6C6.04658 6 2.99023 7.39076 2.99023 9.43942C2.99023 11.4798 6.0549 12.8705 10.5687 12.8705ZM10.5687 11.5297C6.97932 11.5297 4.33103 10.622 4.33103 9.43942C4.33103 8.25686 6.97932 7.34079 10.5687 7.34079C14.1579 7.34079 16.8062 8.25686 16.8062 9.43942C16.8062 10.622 14.1579 11.5297 10.5687 11.5297ZM17.2143 14.7776H17.8972C19.8126 14.7776 20.9619 13.7699 20.9619 12.096C20.9619 10.4388 19.8043 9.42277 17.8972 9.42277H17.3392V10.7636H17.8972C18.9798 10.7636 19.621 11.2632 19.621 12.096C19.621 12.9288 18.9798 13.4368 17.8972 13.4368H17.2143V14.7776Z" fill="white"/>
<path d="M11.2998 12.337C8.37802 12.805 5.6186 11.8739 4.60411 11.3498C4.19831 11.2889 3.38672 11.284 3.38672 11.752C3.38672 12.337 5.8215 17.0171 8.25628 17.3827C10.6911 17.7483 12.5172 17.6021 14.9519 17.0171C16.8998 16.5491 17.3867 12.337 17.3867 10.582C16.5751 10.972 14.2215 11.869 11.2998 12.337Z" fill="white"/>
</g>
<defs>
<clipPath id="clip0_1347_49946">
<rect width="24" height="24" fill="white"/>
</clipPath>
</defs>
</svg>
