<svg width="38" height="38" viewBox="0 0 38 38" fill="none" xmlns="http://www.w3.org/2000/svg">
<path d="M32.9051 24.1512C32.9051 26.9082 26.6388 29.1432 18.9088 29.1432C11.1789 29.1432 4.9126 26.9082 4.9126 24.1512C4.9126 21.3942 11.1789 19.1592 18.9088 19.1592C26.6388 19.1592 32.9051 21.3942 32.9051 24.1512Z" fill="url(#paint0_linear_1067_30599)"/>
<path d="M29.611 11.5749C29.611 13.5964 24.8195 15.2352 18.9088 15.2352C12.9981 15.2352 8.20654 13.5964 8.20654 11.5749C8.20654 9.55333 12.9981 7.91455 18.9088 7.91455C24.8195 7.91455 29.611 9.55333 29.611 11.5749Z" fill="#A59E94"/>
<path d="M18.5896 10.1917C11.9392 10.0375 9.19654 12.6161 8.47803 13.9247C20.6088 24.4545 27.4413 18.3121 29.5196 13.9247C28.9808 12.4621 26.9026 10.3844 18.5896 10.1917Z" fill="#473529"/>
<path fill-rule="evenodd" clip-rule="evenodd" d="M31.1684 13.681C30.4381 13.6437 29.6207 13.9632 29.1362 14.2699C28.9145 14.4103 28.6211 14.3443 28.4807 14.1227C28.3404 13.901 28.4064 13.6076 28.628 13.4673C29.2153 13.0955 30.227 12.6817 31.2168 12.7322C31.7227 12.7581 32.2426 12.9069 32.6864 13.2659C33.1318 13.6262 33.4593 14.1647 33.6377 14.8957C33.8814 15.8942 33.5936 16.8403 33.0535 17.6586C32.5166 18.4721 31.7127 19.1902 30.8475 19.7761C29.9792 20.364 29.0252 20.835 28.1621 21.1446C27.3191 21.4471 26.4949 21.6205 25.9102 21.5443C25.6501 21.5103 25.4667 21.272 25.5006 21.0118C25.5346 20.7517 25.7729 20.5683 26.0331 20.6023C26.3846 20.6481 27.0308 20.5413 27.8413 20.2505C28.6318 19.9668 29.5144 19.5315 30.3149 18.9894C31.1185 18.4453 31.8155 17.8098 32.2606 17.1353C32.7026 16.4657 32.8779 15.7895 32.7148 15.1209C32.5751 14.5487 32.3409 14.2084 32.089 14.0046C31.8355 13.7995 31.5225 13.6991 31.1684 13.681Z" fill="url(#paint1_linear_1067_30599)"/>
<path d="M18.9088 25.3262C10.1365 25.3262 8.12069 16.2881 8.2093 11.769C10.9738 14.7463 16.4942 15.2691 18.9088 15.1583V25.3262Z" fill="url(#paint2_linear_1067_30599)"/>
<path d="M18.9086 25.3262C27.6808 25.3262 29.6967 16.2881 29.6081 11.769C26.8436 14.7463 21.3232 15.2691 18.9086 15.1583V25.3262Z" fill="url(#paint3_linear_1067_30599)"/>
<defs>
<linearGradient id="paint0_linear_1067_30599" x1="18.9088" y1="19.1592" x2="18.9088" y2="29.1432" gradientUnits="userSpaceOnUse">
<stop stop-color="#DBD6CA"/>
<stop offset="1" stop-color="#A59E94"/>
</linearGradient>
<linearGradient id="paint1_linear_1067_30599" x1="29.6108" y1="13.203" x2="29.6108" y2="21.0873" gradientUnits="userSpaceOnUse">
<stop stop-color="#E9E7E0"/>
<stop offset="1" stop-color="#DCD8CE"/>
</linearGradient>
<linearGradient id="paint2_linear_1067_30599" x1="13.5577" y1="11.769" x2="13.5577" y2="25.3262" gradientUnits="userSpaceOnUse">
<stop stop-color="#EEECE7"/>
<stop offset="1" stop-color="#D7D2C4"/>
</linearGradient>
<linearGradient id="paint3_linear_1067_30599" x1="24.2597" y1="11.769" x2="24.2597" y2="25.3262" gradientUnits="userSpaceOnUse">
<stop stop-color="#EEECE7"/>
<stop offset="1" stop-color="#D7D2C4"/>
</linearGradient>
</defs>
</svg>
