<svg width="20" height="20" viewBox="0 0 20 20" fill="none" xmlns="http://www.w3.org/2000/svg">
<path d="M11.1534 11.6537C10.9903 11.4913 10.9898 11.2275 11.1522 11.0644L11.1696 11.0469C11.332 10.8839 11.5958 10.8834 11.7589 11.0457L12.264 11.5488C12.427 11.7112 12.4275 11.975 12.2651 12.138L12.2477 12.1555C12.0853 12.3186 11.8215 12.3191 11.6585 12.1567L11.1534 11.6537Z" fill="#5E62BB"/>
<path d="M11.3973 12.503C11.2342 12.3406 11.2337 12.0768 11.3961 11.9137L12.019 11.2883C12.1814 11.1252 12.4452 11.1247 12.6083 11.2871L17.064 15.7247C17.227 15.8871 17.2275 16.1509 17.0652 16.314L16.4422 16.9394C16.2798 17.1025 16.016 17.103 15.853 16.9406L11.3973 12.503Z" fill="url(#paint0_linear_1777_1498)"/>
<path d="M11.3983 12.504C11.2352 12.3416 11.2347 12.0778 11.3971 11.9147L12.02 11.2893C12.1824 11.1262 12.4462 11.1257 12.6092 11.2881L13.4356 12.1111L12.2246 13.327L11.3983 12.504Z" fill="url(#paint1_linear_1777_1498)"/>
<path d="M13.1622 7.78022C13.1681 10.6964 10.8089 13.0652 7.8927 13.0712C4.97652 13.0771 2.60769 10.7178 2.60178 7.80164C2.59586 4.88546 4.9551 2.51663 7.87128 2.51071C10.7875 2.5048 13.1563 4.86404 13.1622 7.78022Z" fill="url(#paint2_linear_1777_1498)"/>
<path fill-rule="evenodd" clip-rule="evenodd" d="M7.89101 12.2378C10.347 12.2328 12.3339 10.2379 12.3289 7.78191C12.3239 5.32596 10.3289 3.33906 7.87297 3.34404C5.41703 3.34903 3.43012 5.344 3.43511 7.79995C3.44009 10.2559 5.43507 12.2428 7.89101 12.2378ZM7.8927 13.0712C10.8089 13.0652 13.1681 10.6964 13.1622 7.78022C13.1563 4.86404 10.7875 2.5048 7.87128 2.51071C4.9551 2.51663 2.59586 4.88546 2.60178 7.80164C2.60769 10.7178 4.97652 13.0771 7.8927 13.0712Z" fill="#999BF4"/>
<defs>
<linearGradient id="paint0_linear_1777_1498" x1="11.7075" y1="11.601" x2="16.7537" y2="16.6267" gradientUnits="userSpaceOnUse">
<stop stop-color="#A7A9F9"/>
<stop offset="1" stop-color="#7474E4"/>
</linearGradient>
<linearGradient id="paint1_linear_1777_1498" x1="11.7085" y1="11.602" x2="13.6648" y2="13.5504" gradientUnits="userSpaceOnUse">
<stop stop-color="#6064BE"/>
<stop offset="1" stop-color="#484BA1"/>
</linearGradient>
<linearGradient id="paint2_linear_1777_1498" x1="3.60922" y1="3.32789" x2="11.685" y2="11.6444" gradientUnits="userSpaceOnUse">
<stop offset="0.184" stop-color="#EBEBFB"/>
<stop offset="1" stop-color="#D5DFE9"/>
</linearGradient>
</defs>
</svg>
