<svg width="196" height="28" viewBox="0 0 196 28" fill="none" xmlns="http://www.w3.org/2000/svg">
<rect width="196" height="28" rx="8" fill="white"/>
<rect width="196" height="28" rx="8" fill="#4A4A4A"/>
<path d="M23.1536 15.6536C22.9906 15.4913 22.99 15.2274 23.1524 15.0644L23.1699 15.0469C23.3322 14.8838 23.5961 14.8833 23.7591 15.0457L24.2642 15.5487C24.4272 15.7111 24.4278 15.9749 24.2654 16.138L24.248 16.1555C24.0856 16.3185 23.8218 16.3191 23.6587 16.1567L23.1536 15.6536Z" fill="#5E62BB"/>
<path d="M23.3973 16.503C23.2342 16.3406 23.2337 16.0768 23.3961 15.9138L24.019 15.2883C24.1814 15.1253 24.4452 15.1247 24.6083 15.2871L29.064 19.7248C29.227 19.8872 29.2275 20.151 29.0652 20.314L28.4422 20.9395C28.2798 21.1025 28.016 21.1031 27.853 20.9407L23.3973 16.503Z" fill="url(#paint0_linear_1550_54730)"/>
<path d="M23.3987 16.504C23.2357 16.3416 23.2352 16.0778 23.3975 15.9147L24.0205 15.2893C24.1829 15.1262 24.4467 15.1257 24.6097 15.2881L25.4361 16.1111L24.2251 17.327L23.3987 16.504Z" fill="url(#paint1_linear_1550_54730)"/>
<path d="M25.1625 11.7803C25.1684 14.6965 22.8091 17.0653 19.8929 17.0712C16.9768 17.0771 14.6079 14.7179 14.602 11.8017C14.5961 8.88552 16.9553 6.51669 19.8715 6.51077C22.7877 6.50486 25.1565 8.8641 25.1625 11.7803Z" fill="url(#paint2_linear_1550_54730)"/>
<path fill-rule="evenodd" clip-rule="evenodd" d="M19.8913 16.2379C22.3472 16.2329 24.3341 14.2379 24.3291 11.782C24.3241 9.32602 22.3292 7.33912 19.8732 7.34411C17.4173 7.34909 15.4304 9.34407 15.4354 11.8C15.4403 14.256 17.4353 16.2429 19.8913 16.2379ZM19.8929 17.0712C22.8091 17.0653 25.1684 14.6965 25.1625 11.7803C25.1565 8.8641 22.7877 6.50486 19.8715 6.51077C16.9553 6.51669 14.5961 8.88552 14.602 11.8017C14.6079 14.7179 16.9768 17.0771 19.8929 17.0712Z" fill="#999BF4"/>
<path d="M39.541 12.208C39.5283 14.0234 40.8359 16.0166 42.4736 16.791L41.9023 17.5781C40.6328 16.9624 39.5601 15.6167 39.0586 14.0869C38.5381 15.75 37.4019 17.21 36.1387 17.8574L35.5293 17.0703C37.1543 16.2832 38.5508 14.1377 38.5635 12.208V10.7354H35.9355V9.91016H42.0801V10.7354H39.541V12.208ZM44.4541 8.74219V13.3125H46.3457V14.1631H44.4541V20.0283H43.4639V8.74219H44.4541ZM52.6553 10.3418C52.6426 11.8525 54.6611 13.1348 56.6289 13.4268L56.2607 14.2139C54.4961 13.9155 52.7822 12.9761 52.0967 11.6113C51.4111 12.9761 49.6909 13.9155 47.958 14.2139L47.5645 13.4268C49.5195 13.1348 51.5381 11.8525 51.5381 10.3418V10.2656H47.9199V9.45312H56.2607V10.2656H52.6553V10.3418ZM57.2383 15.1787V16.0039H52.5664V20.0283H51.5889V16.0039H46.9551V15.1787H57.2383ZM62.0371 11.1035C62.0371 12.4492 63.1797 13.6934 64.8428 14.1885L64.373 14.9502C63.0718 14.563 62.0562 13.7251 61.5674 12.6396C61.0723 13.833 60.0249 14.7407 58.6855 15.1787L58.1904 14.3916C59.8662 13.8838 61.0596 12.5889 61.0596 11.1035V10.8877H58.5078V10.0625H61.0596V8.69141H62.0625V10.0625H64.5889V10.8877H62.0371V11.1035ZM67.0137 8.74219V11.5352H68.7148V12.373H67.0137V15.3057H66.0234V8.74219H67.0137ZM67.2168 15.915V16.7275H64.0176C64.1826 17.9082 65.8394 18.9238 67.6484 19.2158L67.2803 19.9902C65.6235 19.7173 64.1255 18.8984 63.4844 17.7686C62.8369 18.8921 61.3516 19.6919 59.7139 19.9775L59.333 19.2158C61.1548 18.9238 62.7925 17.9272 62.9639 16.7275H59.7773V15.915H67.2168ZM78.5537 12.1699V12.9697H70.8223V9.16113H71.8125V12.1699H78.5537ZM79.7471 14.5059V15.3184H69.4131V14.5059H79.7471ZM78.6172 18.9238V19.749H70.7588V16.4736H71.749V18.9238H78.6172ZM94.2578 17.7432V18.5811H83.9238V17.7432H88.583V15.001H89.5859V17.7432H94.2578ZM89.5859 10.8877C89.5859 12.6904 91.8203 14.2393 93.7627 14.5566L93.3564 15.3438C91.6299 15.0073 89.8081 13.9092 89.0908 12.335C88.3608 13.9155 86.5454 15.0391 84.8506 15.3945L84.4316 14.5947C86.3359 14.2646 88.5576 12.6904 88.5576 10.8877V10.6084H84.7744V9.77051H93.3691V10.6084H89.5859V10.8877ZM103.982 8.74219V11.6367H105.684V12.4873H103.982V15.3057H102.992V8.74219H103.982ZM97.8379 15.8008V17.0068H102.992V15.8008H103.982V19.876H96.8477V15.8008H97.8379ZM97.8379 19.0762H102.992V17.7939H97.8379V19.0762ZM101.913 9.91016V10.7354H95.1846V9.91016H98.0537V8.64062H99.0439V9.91016H101.913ZM98.5488 11.2559C100.174 11.2559 101.253 12.0303 101.266 13.2363C101.253 14.4424 100.174 15.2168 98.5488 15.2168C96.9111 15.2168 95.8193 14.4424 95.832 13.2363C95.8193 12.0303 96.9111 11.2559 98.5488 11.2559ZM98.5488 12.0303C97.4824 12.0176 96.7715 12.5127 96.7842 13.2363C96.7715 13.9727 97.4824 14.4551 98.5488 14.4551C99.6025 14.4551 100.313 13.9727 100.326 13.2363C100.313 12.5127 99.6025 12.0176 98.5488 12.0303ZM111.536 9.47852C113.897 9.47852 115.662 10.71 115.662 12.5762C115.662 14.4551 113.897 15.6865 111.536 15.6738C109.175 15.6865 107.41 14.4551 107.41 12.5762C107.41 10.71 109.175 9.47852 111.536 9.47852ZM111.536 10.291C109.721 10.2783 108.35 11.2305 108.362 12.5762C108.35 13.9473 109.721 14.8613 111.536 14.8613C113.339 14.8613 114.697 13.9473 114.697 12.5762C114.697 11.2305 113.339 10.2783 111.536 10.291ZM116.729 17.6924V18.5303H106.395V17.6924H116.729ZM127.964 17.7939V18.6318H117.63V17.7939H122.276V15.6611H118.925V12.1826H125.679V10.4053H118.899V9.58008H126.656V12.9951H119.915V14.8359H126.923V15.6611H123.254V17.7939H127.964ZM141.167 8.74219V13.1602H142.703V14.0107H141.167V20.0283H140.177V8.74219H141.167ZM133.22 9.7959V12.7158H134.642V9.7959H135.492V17.2988H132.356V9.7959H133.22ZM133.22 16.4609H134.642V13.5156H133.22V16.4609ZM136.952 9.7959V12.7158H138.336V9.7959H139.187V17.2988H136.102V9.7959H136.952ZM136.952 16.4609H138.336V13.5156H136.952V16.4609ZM153.685 15.001V15.8262H143.351V15.001H153.685ZM152.593 18.9492V19.7871H144.722V16.7148H145.725V18.9492H152.593ZM152.352 9.13574V11.916H145.687V13.1729H152.593V13.96H144.696V11.167H151.349V9.93555H144.658V9.13574H152.352ZM163.688 9.47852C163.676 12.3096 161.657 14.3408 158.407 15.2676L157.988 14.4805C160.686 13.7188 162.406 12.2207 162.622 10.3037H158.572V9.47852H163.688ZM167.218 8.75488V15.1914H166.215V12.5H163.714V11.6621H166.215V8.75488H167.218ZM167.218 15.6738V19.876H159.893V15.6738H167.218ZM160.857 16.4736V19.0635H166.228V16.4736H160.857ZM172.461 10.9512C172.461 12.2334 173.324 13.5283 174.771 14.0996L174.238 14.874C173.172 14.4297 172.391 13.6045 171.991 12.6016C171.572 13.6997 170.76 14.6582 169.655 15.1533L169.109 14.3789C170.595 13.7188 171.509 12.2334 171.509 10.9512V9.44043H172.461V10.9512ZM178.682 8.75488V15.5723H177.729V12.5381H176.231V15.5088H175.292V8.95801H176.231V11.7002H177.729V8.75488H178.682ZM178.682 16.1943V20.0283H177.704V17.0195H171.077V16.1943H178.682ZM182.16 9.80859L182.071 16.4102H181.005L180.916 9.80859H182.16ZM181.538 19.0762C181.094 19.0762 180.713 18.708 180.726 18.251C180.713 17.8066 181.094 17.4385 181.538 17.4385C181.982 17.4385 182.351 17.8066 182.351 18.251C182.351 18.708 181.982 19.0762 181.538 19.0762Z" fill="white"/>
<defs>
<linearGradient id="paint0_linear_1550_54730" x1="23.7075" y1="15.601" x2="28.7537" y2="20.6268" gradientUnits="userSpaceOnUse">
<stop stop-color="#A7A9F9"/>
<stop offset="1" stop-color="#7474E4"/>
</linearGradient>
<linearGradient id="paint1_linear_1550_54730" x1="23.709" y1="15.602" x2="25.6653" y2="17.5504" gradientUnits="userSpaceOnUse">
<stop stop-color="#6064BE"/>
<stop offset="1" stop-color="#484BA1"/>
</linearGradient>
<linearGradient id="paint2_linear_1550_54730" x1="15.6095" y1="7.32796" x2="23.6852" y2="15.6445" gradientUnits="userSpaceOnUse">
<stop offset="0.184" stop-color="#EBEBFB"/>
<stop offset="1" stop-color="#D5DFE9"/>
</linearGradient>
</defs>
</svg>
