<svg width="28" height="24" viewBox="0 0 28 24" fill="none" xmlns="http://www.w3.org/2000/svg">
<path d="M27.4999 7.97919C27.4999 16.4168 14.9893 23.2465 14.4566 23.5285C14.3161 23.6041 14.1592 23.6436 13.9997 23.6436C13.8403 23.6436 13.6833 23.6041 13.5429 23.5285C13.0101 23.2465 0.499512 16.4168 0.499512 7.97919C0.501745 5.99782 1.28983 4.09825 2.69087 2.69721C4.0919 1.29618 5.99148 0.508093 7.97284 0.505859C10.4619 0.505859 12.6413 1.57623 13.9997 3.3855C15.3582 1.57623 17.5375 0.505859 20.0266 0.505859C22.008 0.508093 23.9075 1.29618 25.3086 2.69721C26.7096 4.09825 27.4977 5.99782 27.4999 7.97919Z" fill="url(#paint0_linear_1777_5623)"/>
<defs>
<linearGradient id="paint0_linear_1777_5623" x1="13.9997" y1="0.505859" x2="13.9997" y2="23.6436" gradientUnits="userSpaceOnUse">
<stop stop-color="#FE82C8"/>
<stop offset="1" stop-color="#DB1F8D"/>
</linearGradient>
</defs>
</svg>
