<svg width="24" height="24" viewBox="0 0 24 24" fill="none" xmlns="http://www.w3.org/2000/svg">
<path d="M14.7952 20.8852L8.625 18.6876L4.2355 20.4201C4.07817 20.4842 3.92757 20.5047 3.7837 20.4813C3.63983 20.458 3.50733 20.4075 3.38618 20.3297C3.26502 20.252 3.17036 20.147 3.10221 20.0148C3.03407 19.8826 3 19.731 3 19.56V5.58037C3 5.3644 3.04868 5.17335 3.14603 5.00723C3.24338 4.8411 3.38508 4.72491 3.57113 4.65864L8.02355 3.11485C8.11608 3.07656 8.21246 3.04785 8.3127 3.02871C8.41296 3.00957 8.51706 3 8.625 3C8.73294 3 8.83704 3.00957 8.9373 3.02871C9.03754 3.04785 9.13392 3.07656 9.22645 3.11485L15.375 5.3124L19.7645 3.57995C19.9218 3.51577 20.0724 3.49534 20.2163 3.51868C20.3602 3.54199 20.4927 3.59252 20.6138 3.67027C20.735 3.74802 20.8296 3.85299 20.8978 3.98518C20.9659 4.11735 21 4.26896 21 4.44V18.5182C21 18.7357 20.9405 18.9254 20.8215 19.0873C20.7025 19.2493 20.5428 19.3634 20.3423 19.4297L15.9548 20.9072C15.8567 20.9455 15.7607 20.9705 15.6665 20.9823C15.5725 20.9941 15.4747 21 15.3734 21C15.2721 21 15.1749 20.9904 15.0819 20.9713C14.9888 20.9521 14.8933 20.9234 14.7952 20.8852ZM14.8125 19.6991V6.2621L9.1875 4.25671V17.6937L14.8125 19.6991ZM15.9375 19.6991L19.875 18.374V4.76467L15.9375 6.2621V19.6991ZM4.125 19.2353L8.0625 17.6937V4.25671L4.125 5.62602V19.2353Z" fill="#F95832"/>
</svg>
