<svg width="29" height="31" viewBox="0 0 29 31" fill="none" xmlns="http://www.w3.org/2000/svg">
<path d="M0.510032 8.46936L14.6406 0.527175C15.3072 0.152508 16.1306 0.634238 16.1306 1.39892V13.1252C16.1306 13.4817 15.9408 13.8112 15.6325 13.9901L1.50191 22.1899C0.835242 22.5768 0 22.0958 0 21.325V9.3411C0 8.97971 0.194991 8.64643 0.510032 8.46936Z" fill="#D6D9DE"/>
<path fill-rule="evenodd" clip-rule="evenodd" d="M0.510032 8.46936C0.194991 8.64643 0 8.97971 0 9.3411V21.325C0 22.0958 0.835242 22.5768 1.50191 22.1899L15.6325 13.9901C15.9408 13.8112 16.1306 13.4817 16.1306 13.1252V1.39892C16.1306 0.634238 15.3072 0.152508 14.6406 0.527175L0.510032 8.46936ZM0.510032 8.46936L1 9.3411V21.325L15.1306 13.1252L15.1306 1.39892L1 9.3411L0.510032 8.46936Z" fill="#B8B9BD"/>
<path d="M1.00351 21.0615L15.535 13.2901C15.833 13.1307 16.1915 13.1326 16.4878 13.2953L28.0608 19.6481C28.7346 20.0179 28.7566 20.978 28.1005 21.3783L13.9772 29.9954C13.6595 30.1893 13.2604 30.1906 12.9413 29.999L0.960094 22.8005C0.294475 22.4005 0.318766 21.4277 1.00351 21.0615Z" fill="#DFE4EA"/>
<path fill-rule="evenodd" clip-rule="evenodd" d="M16.0066 14.1719L1.47511 21.9433L1.00351 21.0615L15.535 13.2901C15.833 13.1307 16.1915 13.1326 16.4878 13.2953L28.0608 19.6481C28.7346 20.0179 28.7566 20.978 28.1005 21.3783L13.9772 29.9954C13.6595 30.1893 13.2604 30.1906 12.9413 29.999L0.960094 22.8005C0.294475 22.4005 0.318766 21.4277 1.00351 21.0615L1.4751 21.9433L13.4563 29.1418L27.5796 20.5247L16.0066 14.1719Z" fill="#B8B9BD"/>
<path d="M14.1264 2.35814L1.51056 9.53578C1.35431 9.62468 1.25781 9.7906 1.25781 9.97037V19.2627C1.25781 19.6408 1.66119 19.8821 1.99428 19.7033L14.6101 12.9316C14.7724 12.8445 14.8737 12.6752 14.8737 12.491V2.79273C14.8737 2.40923 14.4598 2.1685 14.1264 2.35814Z" fill="#15191A"/>
<path d="M5.36668 15.9056L9.01483 5.77193C9.02292 5.74944 9.02772 5.72589 9.02907 5.70203C9.04016 5.50619 8.83 5.3758 8.65945 5.47271L1.51079 9.53483C1.35441 9.62369 1.25781 9.78969 1.25781 9.96955V17.2654C1.25781 17.6348 1.64469 17.8767 1.97681 17.7149L5.11524 16.1858C5.23235 16.1287 5.32256 16.0282 5.36668 15.9056Z" fill="url(#paint0_linear_1777_13040)"/>
<path d="M16.8764 14.0198L3.75823 20.9918C3.07293 21.356 3.04567 22.3281 3.70948 22.7302L8.74731 25.7815C9.06012 25.971 9.45139 25.9746 9.76762 25.7909L22.5621 18.3596C23.2348 17.9689 23.2234 16.9934 22.5417 16.6186L17.8275 14.0266C17.5319 13.864 17.1743 13.8615 16.8764 14.0198Z" fill="#535456"/>
<path d="M5.17139 21.6988V21.4585L6.10068 22.0143V22.2625L5.17139 21.6988Z" fill="#D9D9D9"/>
<path d="M6.09412 22.0081L5.15625 21.4516L5.98914 20.8901L7.011 21.4516L6.09412 22.0081Z" fill="#6F7072"/>
<path d="M7.01096 21.6817V21.4487L6.08594 22.0105V22.2703L7.01096 21.6817Z" fill="#D9D9D9"/>
<path d="M6.85107 23.2549V23.0146L7.78037 23.5705V23.8186L6.85107 23.2549Z" fill="#D9D9D9"/>
<path d="M7.77381 23.5657L6.83594 23.0092L7.66882 22.4478L8.69068 23.0092L7.77381 23.5657Z" fill="#6F7072"/>
<path d="M8.69065 23.2389V23.0059L7.76562 23.5676V23.8274L8.69065 23.2389Z" fill="#D9D9D9"/>
<path d="M8.53174 24.5777V24.3374L9.46103 24.8932V25.1414L8.53174 24.5777Z" fill="#D9D9D9"/>
<path d="M9.45447 24.8879L8.5166 24.3315L9.34949 23.77L10.3713 24.3315L9.45447 24.8879Z" fill="#6F7072"/>
<path d="M10.3713 24.5616V24.3286L9.44629 24.8903V25.1502L10.3713 24.5616Z" fill="#D9D9D9"/>
<path d="M12.0776 17.8897V17.6494L13.0069 18.2052V18.4534L12.0776 17.8897Z" fill="#D9D9D9"/>
<path d="M13.0004 18.2004L12.0625 17.644L12.8954 17.0825L13.9172 17.644L13.0004 18.2004Z" fill="#6F7072"/>
<path d="M13.9172 17.8736V17.6406L12.9922 18.2024V18.4622L13.9172 17.8736Z" fill="#D9D9D9"/>
<path d="M13.7578 19.4453V19.2051L14.6871 19.7609V20.0091L13.7578 19.4453Z" fill="#D9D9D9"/>
<path d="M14.681 19.7551L13.7432 19.1987L14.5761 18.6372L15.5979 19.1987L14.681 19.7551Z" fill="#6F7072"/>
<path d="M15.5979 19.4293V19.1963L14.6729 19.758V20.0179L15.5979 19.4293Z" fill="#D9D9D9"/>
<path d="M15.439 20.7696V20.5293L16.3683 21.0851V21.3333L15.439 20.7696Z" fill="#D9D9D9"/>
<path d="M16.3617 21.0803L15.4238 20.5239L16.2567 19.9624L17.2786 20.5239L16.3617 21.0803Z" fill="#6F7072"/>
<path d="M17.2785 20.7535V20.5205L16.3535 21.0822V21.3421L17.2785 20.7535Z" fill="#D9D9D9"/>
<path d="M6.85156 20.7847V20.5444L7.78086 21.1002V21.3484L6.85156 20.7847Z" fill="#D9D9D9"/>
<path d="M7.7743 21.094L6.83643 20.5376L7.66931 19.9761L8.69117 20.5376L7.7743 21.094Z" fill="#6F7072"/>
<path d="M8.69113 20.7672V20.5342L7.76611 21.0959V21.3558L8.69113 20.7672Z" fill="#D9D9D9"/>
<path d="M8.53174 22.3379V22.0977L9.46103 22.6535V22.9016L8.53174 22.3379Z" fill="#D9D9D9"/>
<path d="M9.45447 22.6487L8.5166 22.0922L9.34949 21.5308L10.3713 22.0922L9.45447 22.6487Z" fill="#6F7072"/>
<path d="M10.3713 22.3219V22.0889L9.44629 22.6506V22.9104L10.3713 22.3219Z" fill="#D9D9D9"/>
<path d="M10.2129 23.6641V23.4238L11.1422 23.9796V24.2278L10.2129 23.6641Z" fill="#D9D9D9"/>
<path d="M11.1351 23.9749L10.1973 23.4184L11.0302 22.8569L12.052 23.4184L11.1351 23.9749Z" fill="#6F7072"/>
<path d="M12.052 23.648V23.415L11.127 23.9768V24.2366L12.052 23.648Z" fill="#D9D9D9"/>
<path d="M13.7578 16.9746V16.7344L14.6871 17.2902V17.5384L13.7578 16.9746Z" fill="#D9D9D9"/>
<path d="M14.681 17.2854L13.7432 16.729L14.5761 16.1675L15.5979 16.729L14.681 17.2854Z" fill="#6F7072"/>
<path d="M15.5979 16.9586V16.7256L14.6729 17.2873V17.5472L15.5979 16.9586Z" fill="#D9D9D9"/>
<path d="M15.438 18.5313V18.291L16.3673 18.8468V19.095L15.438 18.5313Z" fill="#D9D9D9"/>
<path d="M16.3607 18.8421L15.4229 18.2856L16.2557 17.7241L17.2776 18.2856L16.3607 18.8421Z" fill="#6F7072"/>
<path d="M17.278 18.5152V18.2822L16.353 18.844V19.1038L17.278 18.5152Z" fill="#D9D9D9"/>
<path d="M17.1196 19.8545V19.6143L18.0489 20.1701V20.4182L17.1196 19.8545Z" fill="#D9D9D9"/>
<path d="M18.0424 20.1653L17.1045 19.6088L17.9374 19.0474L18.9592 19.6088L18.0424 20.1653Z" fill="#6F7072"/>
<path d="M18.9592 19.8395V19.6064L18.0342 20.1682V20.428L18.9592 19.8395Z" fill="#D9D9D9"/>
<path d="M8.61084 19.8702V19.6299L9.54014 20.1857V20.4339L8.61084 19.8702Z" fill="#D9D9D9"/>
<path d="M9.53358 20.1809L8.5957 19.6245L9.42859 19.063L10.4505 19.6245L9.53358 20.1809Z" fill="#6F7072"/>
<path d="M10.4504 19.8541V19.6211L9.52539 20.1828V20.4427L10.4504 19.8541Z" fill="#D9D9D9"/>
<path d="M10.291 21.4248V21.1846L11.2203 21.7404V21.9886L10.291 21.4248Z" fill="#D9D9D9"/>
<path d="M11.2142 21.7346L10.2764 21.1782L11.1093 20.6167L12.1311 21.1782L11.2142 21.7346Z" fill="#6F7072"/>
<path d="M12.1311 21.4078V21.1748L11.2061 21.7365V21.9964L12.1311 21.4078Z" fill="#D9D9D9"/>
<path d="M11.9717 22.7481V22.5078L12.901 23.0636V23.3118L11.9717 22.7481Z" fill="#D9D9D9"/>
<path d="M12.8944 23.0588L11.9565 22.5024L12.7894 21.9409L13.8113 22.5024L12.8944 23.0588Z" fill="#6F7072"/>
<path d="M13.8113 22.732V22.499L12.8862 23.0608V23.3206L13.8113 22.732Z" fill="#D9D9D9"/>
<path d="M15.5176 16.0606V15.8203L16.4469 16.3761V16.6243L15.5176 16.0606Z" fill="#D9D9D9"/>
<path d="M16.4408 16.3713L15.5029 15.8149L16.3358 15.2534L17.3577 15.8149L16.4408 16.3713Z" fill="#6F7072"/>
<path d="M17.3576 16.0455V15.8125L16.4326 16.3742V16.6341L17.3576 16.0455Z" fill="#D9D9D9"/>
<path d="M17.1978 17.6167V17.3765L18.127 17.9323V18.1805L17.1978 17.6167Z" fill="#D9D9D9"/>
<path d="M18.1205 17.927L17.1826 17.3706L18.0155 16.8091L19.0374 17.3706L18.1205 17.927Z" fill="#6F7072"/>
<path d="M19.0373 17.6007V17.3677L18.1123 17.9294V18.1892L19.0373 17.6007Z" fill="#D9D9D9"/>
<path d="M18.8784 18.9405V18.7002L19.8077 19.256V19.5042L18.8784 18.9405Z" fill="#D9D9D9"/>
<path d="M19.8016 19.2512L18.8638 18.6948L19.6967 18.1333L20.7185 18.6948L19.8016 19.2512Z" fill="#6F7072"/>
<path d="M20.7185 18.9244V18.6914L19.7935 19.2531V19.513L20.7185 18.9244Z" fill="#D9D9D9"/>
<path d="M10.4653 18.8731V18.6328L11.3946 19.1886V19.4368L10.4653 18.8731Z" fill="#D9D9D9"/>
<path d="M11.3886 19.1838L10.4507 18.6274L11.2836 18.0659L12.3054 18.6274L11.3886 19.1838Z" fill="#6F7072"/>
<path d="M12.3059 18.857V18.624L11.3809 19.1858V19.4456L12.3059 18.857Z" fill="#D9D9D9"/>
<path d="M12.146 20.4287V20.1885L13.0753 20.7443V20.9925L12.146 20.4287Z" fill="#D9D9D9"/>
<path d="M13.0687 20.7395L12.1309 20.1831L12.9637 19.6216L13.9856 20.1831L13.0687 20.7395Z" fill="#6F7072"/>
<path d="M13.9861 20.4127V20.1797L13.061 20.7414V21.0013L13.9861 20.4127Z" fill="#D9D9D9"/>
<path d="M13.8267 21.7539V21.5137L14.756 22.0695V22.3177L13.8267 21.7539Z" fill="#D9D9D9"/>
<path d="M14.7494 22.0647L13.8115 21.5083L14.6444 20.9468L15.6663 21.5083L14.7494 22.0647Z" fill="#6F7072"/>
<path d="M15.6662 21.7379V21.5049L14.7412 22.0666V22.3265L15.6662 21.7379Z" fill="#D9D9D9"/>
<path d="M17.3726 15.0655V14.8252L18.3019 15.381V15.6292L17.3726 15.0655Z" fill="#D9D9D9"/>
<path d="M18.2953 15.3762L17.3574 14.8198L18.1903 14.2583L19.2122 14.8198L18.2953 15.3762Z" fill="#6F7072"/>
<path d="M19.2121 15.0494V14.8164L18.2871 15.3781V15.638L19.2121 15.0494Z" fill="#D9D9D9"/>
<path d="M19.0522 16.6197V16.3794L19.9815 16.9352V17.1834L19.0522 16.6197Z" fill="#D9D9D9"/>
<path d="M19.975 16.9299L19.0371 16.3735L19.87 15.812L20.8919 16.3735L19.975 16.9299Z" fill="#6F7072"/>
<path d="M20.8918 16.6036V16.3706L19.9668 16.9323V17.1922L20.8918 16.6036Z" fill="#D9D9D9"/>
<path d="M20.7329 17.9453V17.7051L21.6622 18.2609V18.5091L20.7329 17.9453Z" fill="#D9D9D9"/>
<path d="M21.6556 18.2551L20.7178 17.6987L21.5507 17.1372L22.5725 17.6987L21.6556 18.2551Z" fill="#6F7072"/>
<path d="M22.5725 17.9293V17.6963L21.6475 18.258V18.5179L22.5725 17.9293Z" fill="#D9D9D9"/>
<defs>
<linearGradient id="paint0_linear_1777_13040" x1="15.2425" y1="18.9456" x2="15.2425" y2="5.47883" gradientUnits="userSpaceOnUse">
<stop stop-color="#15191A"/>
<stop offset="1" stop-color="#5D5D5F"/>
</linearGradient>
</defs>
</svg>
