<svg width="18" height="19" viewBox="0 0 18 19" fill="none" xmlns="http://www.w3.org/2000/svg">
<path d="M8.25 10.2905H0.75C0.5375 10.2905 0.359375 10.2186 0.215625 10.0746C0.071875 9.93068 0 9.75231 0 9.53951C0 9.32671 0.071875 9.14869 0.215625 9.00544C0.359375 8.86216 0.5375 8.79053 0.75 8.79053H8.25V1.29053C8.25 1.07803 8.32197 0.899902 8.46593 0.756152C8.60985 0.612402 8.78821 0.540527 9.00101 0.540527C9.21381 0.540527 9.39184 0.612402 9.53509 0.756152C9.67836 0.899902 9.75 1.07803 9.75 1.29053V8.79053H17.25C17.4625 8.79053 17.6406 8.8625 17.7844 9.00645C17.9281 9.15038 18 9.32874 18 9.54154C18 9.75434 17.9281 9.93237 17.7844 10.0756C17.6406 10.2189 17.4625 10.2905 17.25 10.2905H9.75V17.7905C9.75 18.003 9.67803 18.1812 9.53408 18.3249C9.39015 18.4687 9.21179 18.5405 8.99899 18.5405C8.78619 18.5405 8.60816 18.4687 8.46491 18.3249C8.32164 18.1812 8.25 18.003 8.25 17.7905V10.2905Z" fill="white"/>
<path d="M8.25 10.2905H0.75C0.5375 10.2905 0.359375 10.2186 0.215625 10.0746C0.071875 9.93068 0 9.75231 0 9.53951C0 9.32671 0.071875 9.14869 0.215625 9.00544C0.359375 8.86216 0.5375 8.79053 0.75 8.79053H8.25V1.29053C8.25 1.07803 8.32197 0.899902 8.46593 0.756152C8.60985 0.612402 8.78821 0.540527 9.00101 0.540527C9.21381 0.540527 9.39184 0.612402 9.53509 0.756152C9.67836 0.899902 9.75 1.07803 9.75 1.29053V8.79053H17.25C17.4625 8.79053 17.6406 8.8625 17.7844 9.00645C17.9281 9.15038 18 9.32874 18 9.54154C18 9.75434 17.9281 9.93237 17.7844 10.0756C17.6406 10.2189 17.4625 10.2905 17.25 10.2905H9.75V17.7905C9.75 18.003 9.67803 18.1812 9.53408 18.3249C9.39015 18.4687 9.21179 18.5405 8.99899 18.5405C8.78619 18.5405 8.60816 18.4687 8.46491 18.3249C8.32164 18.1812 8.25 18.003 8.25 17.7905V10.2905Z" fill="#4A4A4A"/>
</svg>
