<svg width="20" height="20" viewBox="0 0 20 20" fill="none" xmlns="http://www.w3.org/2000/svg">
<path d="M10.0233 14.359C10.2075 14.359 10.3629 14.2953 10.4896 14.1681C10.6163 14.0409 10.6796 13.8852 10.6796 13.701C10.6796 13.5167 10.616 13.3613 10.4887 13.2348C10.3615 13.1081 10.2058 13.0448 10.0215 13.0448C9.83729 13.0448 9.68188 13.1084 9.55521 13.2356C9.42868 13.3628 9.36542 13.5186 9.36542 13.7029C9.36542 13.8871 9.42903 14.0425 9.55625 14.1692C9.68347 14.2957 9.83917 14.359 10.0233 14.359ZM10.0027 17.5C8.96562 17.5 7.99056 17.3032 7.0775 16.9096C6.16458 16.516 5.37042 15.9818 4.695 15.3071C4.01958 14.6324 3.48493 13.8389 3.09104 12.9267C2.69701 12.0146 2.5 11.0399 2.5 10.0027C2.5 8.96562 2.69681 7.99056 3.09042 7.0775C3.48403 6.16458 4.01819 5.37042 4.69292 4.695C5.36764 4.01958 6.16111 3.48493 7.07333 3.09104C7.98542 2.69701 8.96007 2.5 9.99729 2.5C11.0344 2.5 12.0094 2.69681 12.9225 3.09042C13.8354 3.48403 14.6296 4.01819 15.305 4.69292C15.9804 5.36764 16.5151 6.16111 16.909 7.07333C17.303 7.98542 17.5 8.96007 17.5 9.99729C17.5 11.0344 17.3032 12.0094 16.9096 12.9225C16.516 13.8354 15.9818 14.6296 15.3071 15.305C14.6324 15.9804 13.8389 16.5151 12.9267 16.909C12.0146 17.303 11.0399 17.5 10.0027 17.5ZM10 16.6667C11.8611 16.6667 13.4375 16.0208 14.7292 14.7292C16.0208 13.4375 16.6667 11.8611 16.6667 10C16.6667 8.13889 16.0208 6.5625 14.7292 5.27083C13.4375 3.97917 11.8611 3.33333 10 3.33333C8.13889 3.33333 6.5625 3.97917 5.27083 5.27083C3.97917 6.5625 3.33333 8.13889 3.33333 10C3.33333 11.8611 3.97917 13.4375 5.27083 14.7292C6.5625 16.0208 8.13889 16.6667 10 16.6667ZM10.0517 6.44875C10.4735 6.44875 10.8369 6.57972 11.1419 6.84167C11.4469 7.10347 11.5994 7.43083 11.5994 7.82375C11.5994 8.12931 11.5136 8.40549 11.3421 8.65229C11.1707 8.8991 10.9723 9.12667 10.7469 9.335C10.4613 9.59389 10.2099 9.87868 9.9925 10.1894C9.77528 10.5001 9.65063 10.8424 9.61854 11.2163C9.60785 11.3253 9.64181 11.4164 9.72042 11.4896C9.79889 11.5628 9.89049 11.5994 9.99521 11.5994C10.1074 11.5994 10.2017 11.5619 10.2781 11.4871C10.3545 11.4124 10.4028 11.3242 10.4231 11.2227C10.4787 10.9417 10.5903 10.692 10.7579 10.4735C10.9257 10.2551 11.1097 10.0482 11.31 9.85292C11.5981 9.56639 11.854 9.2541 12.0777 8.91604C12.3016 8.57812 12.4135 8.20118 12.4135 7.78521C12.4135 7.17313 12.1814 6.66806 11.7171 6.27C11.2529 5.87208 10.7083 5.67313 10.0833 5.67313C9.61972 5.67313 9.18833 5.78153 8.78917 5.99833C8.39014 6.21528 8.07097 6.51549 7.83167 6.89896C7.77722 6.9909 7.75979 7.08597 7.77938 7.18417C7.79896 7.28236 7.85187 7.35695 7.93813 7.40792C8.04771 7.46611 8.15861 7.47972 8.27083 7.44875C8.38306 7.41778 8.48187 7.35312 8.56729 7.25479C8.75215 7.02507 8.96986 6.83333 9.22042 6.67958C9.47097 6.52569 9.74806 6.44875 10.0517 6.44875Z" fill="#B3B3B3"/>
</svg>
