<svg width="28" height="26" viewBox="0 0 28 26" fill="none" xmlns="http://www.w3.org/2000/svg">
<path d="M4.51025 24.2372V21.1124C4.51025 20.6153 4.9132 20.2124 5.41025 20.2124H22.4446C22.9416 20.2124 23.3446 20.6153 23.3446 21.1124V24.2372C23.3446 24.7342 22.9416 25.1372 22.4446 25.1372H21.8987C21.4016 25.1372 20.9987 24.7342 20.9987 24.2372V23.7583C20.9987 23.2613 20.5957 22.8583 20.0987 22.8583H7.89021C7.39315 22.8583 6.99021 23.2613 6.99021 23.7583V24.2372C6.99021 24.7342 6.58727 25.1372 6.09021 25.1372H5.41025C4.9132 25.1372 4.51025 24.7342 4.51025 24.2372Z" fill="#7E481A"/>
<path d="M5.30811 1.76328C5.30811 1.26622 5.71105 0.863281 6.20811 0.863281H21.6462C22.1432 0.863281 22.5462 1.26622 22.5462 1.76328V13.1165C22.5462 13.6135 22.1432 14.0165 21.6462 14.0165H6.20811C5.71105 14.0165 5.30811 13.6135 5.30811 13.1165V1.76328Z" fill="url(#paint0_linear_1777_28049)"/>
<path d="M5.30811 14.9161C5.30811 14.4191 5.71105 14.0161 6.20811 14.0161H21.6462C22.1432 14.0161 22.5462 14.4191 22.5462 14.9161V20.5505C22.5462 21.0476 22.1432 21.4505 21.6462 21.4505H6.20811C5.71105 21.4505 5.30811 21.0476 5.30811 20.5505V14.9161Z" fill="url(#paint1_linear_1777_28049)"/>
<path d="M21.5811 10.7501C21.5811 10.253 21.984 9.8501 22.4811 9.8501H26.6449C27.142 9.8501 27.5449 10.253 27.5449 10.7501V20.5511C27.5449 21.0481 27.142 21.4511 26.6449 21.4511H22.4811C21.984 21.4511 21.5811 21.0481 21.5811 20.5511V10.7501Z" fill="url(#paint2_linear_1777_28049)"/>
<path d="M0.455078 10.7501C0.455078 10.253 0.858022 9.8501 1.35508 9.8501H5.51896C6.01601 9.8501 6.41896 10.253 6.41896 10.7501V20.5511C6.41896 21.0481 6.01601 21.4511 5.51896 21.4511H1.35508C0.858023 21.4511 0.455078 21.0481 0.455078 20.5511V10.7501Z" fill="url(#paint3_linear_1777_28049)"/>
<defs>
<linearGradient id="paint0_linear_1777_28049" x1="13.9271" y1="0.863281" x2="13.9271" y2="14.0165" gradientUnits="userSpaceOnUse">
<stop stop-color="#F6C126"/>
<stop offset="1" stop-color="#E37A07"/>
</linearGradient>
<linearGradient id="paint1_linear_1777_28049" x1="13.9271" y1="14.0161" x2="13.9271" y2="21.4505" gradientUnits="userSpaceOnUse">
<stop stop-color="#F6C126"/>
<stop offset="1" stop-color="#E37A07"/>
</linearGradient>
<linearGradient id="paint2_linear_1777_28049" x1="24.563" y1="9.8501" x2="24.563" y2="21.4511" gradientUnits="userSpaceOnUse">
<stop stop-color="#F4B822"/>
<stop offset="1" stop-color="#E6830B"/>
</linearGradient>
<linearGradient id="paint3_linear_1777_28049" x1="3.43702" y1="9.8501" x2="3.43702" y2="21.4511" gradientUnits="userSpaceOnUse">
<stop stop-color="#F4B822"/>
<stop offset="1" stop-color="#E6830B"/>
</linearGradient>
</defs>
</svg>
