<svg width="24" height="24" viewBox="0 0 24 24" fill="none" xmlns="http://www.w3.org/2000/svg">
<rect width="24" height="24" transform="translate(0.00976562)" fill="white"/>
<path d="M10.8217 22.0681C10.5635 22.0681 10.3391 21.9832 10.1486 21.8135C9.95806 21.6436 9.83998 21.4316 9.79434 21.1776L9.50103 18.8487C9.14576 18.7417 8.76155 18.5732 8.3484 18.3433C7.93525 18.1137 7.58387 17.8676 7.29427 17.6051L5.1621 18.5212C4.92667 18.6252 4.68763 18.6367 4.44497 18.5554C4.20231 18.4739 4.0154 18.3198 3.88424 18.0929L2.68318 16.0253C2.55202 15.7984 2.51352 15.5615 2.5677 15.3145C2.62187 15.0676 2.75099 14.8649 2.95506 14.7065L4.81536 13.3151C4.78252 13.114 4.75544 12.9068 4.7341 12.6934C4.71258 12.4801 4.70182 12.2728 4.70182 12.0715C4.70182 11.8845 4.71258 11.6879 4.7341 11.4818C4.75544 11.2755 4.78252 11.0432 4.81536 10.785L2.95506 9.39359C2.75099 9.23516 2.62539 9.02895 2.57827 8.77498C2.53133 8.521 2.57345 8.28047 2.70461 8.0534L3.88424 6.04978C4.0154 5.83718 4.20231 5.68663 4.44497 5.59814C4.68763 5.50964 4.92667 5.51753 5.1621 5.62179L7.27285 6.51646C7.6053 6.23966 7.96493 5.98995 8.35174 5.76733C8.73836 5.54471 9.11432 5.37273 9.4796 5.2514L9.79434 2.92248C9.83998 2.6685 9.95806 2.45655 10.1486 2.28661C10.3391 2.11686 10.5635 2.03198 10.8217 2.03198H13.1381C13.3964 2.03198 13.6208 2.11686 13.8113 2.28661C14.0018 2.45655 14.1199 2.6685 14.1656 2.92248L14.4589 5.27283C14.8856 5.42273 15.2626 5.5947 15.5901 5.78876C15.9175 5.98281 16.2547 6.22538 16.6016 6.51646L18.8192 5.62179C19.0546 5.51753 19.2937 5.50964 19.5364 5.59814C19.779 5.68663 19.9659 5.83718 20.0971 6.04978L21.2767 8.07483C21.4079 8.30172 21.4464 8.53862 21.3922 8.78555C21.338 9.03248 21.2089 9.23516 21.0048 9.39359L19.0588 10.8493C19.1202 11.0789 19.1546 11.2898 19.1618 11.4818C19.1688 11.6736 19.1724 11.863 19.1724 12.05C19.1724 12.2228 19.1652 12.405 19.1509 12.5969C19.1366 12.7889 19.1038 13.0212 19.0524 13.2937L20.9341 14.7065C21.1382 14.8649 21.271 15.0676 21.3324 15.3145C21.3936 15.5615 21.3586 15.7984 21.2275 16.0253L20.0414 18.0715C19.9103 18.2985 19.7197 18.4527 19.4698 18.534C19.2201 18.6152 18.9776 18.6038 18.7421 18.4997L16.6016 17.5836C16.2547 17.8747 15.9057 18.1244 15.5547 18.3328C15.2037 18.5411 14.8384 18.7059 14.4589 18.8273L14.1656 21.1776C14.1199 21.4316 14.0018 21.6436 13.8113 21.8135C13.6208 21.9832 13.3964 22.0681 13.1381 22.0681H10.8217ZM10.8668 20.955H13.0438L13.4548 17.941C14.0157 17.7925 14.5205 17.5888 14.9692 17.3298C15.4182 17.0709 15.8752 16.7159 16.3403 16.2649L19.1167 17.4487L20.2234 15.5564L17.7874 13.7261C17.8801 13.4093 17.9415 13.1178 17.9716 12.8518C18.0015 12.5856 18.0164 12.3183 18.0164 12.05C18.0164 11.7675 18.0015 11.5003 17.9716 11.2483C17.9415 10.9966 17.8801 10.7194 17.7874 10.4168L20.2663 8.54373L19.1596 6.65142L16.3189 7.84163C15.9822 7.47207 15.5394 7.12561 14.9907 6.80225C14.4421 6.47908 13.923 6.26471 13.4334 6.15915L13.0931 3.1451H10.8732L10.5265 6.13772C9.96567 6.25757 9.45011 6.4506 8.97981 6.71682C8.50971 6.98285 8.04201 7.34852 7.57673 7.8138L4.80033 6.65142L3.69362 8.54373L6.10825 10.3461C6.01549 10.5959 5.95056 10.867 5.91345 11.1596C5.87635 11.4521 5.8578 11.7561 5.8578 12.0715C5.8578 12.354 5.87635 12.6344 5.91345 12.9127C5.95056 13.191 6.00835 13.4621 6.08682 13.7261L3.69362 15.5564L4.80033 17.4487L7.5553 16.2799C7.99201 16.7209 8.44543 17.0745 8.91553 17.3407C9.38582 17.6067 9.91567 17.814 10.5051 17.9624L10.8668 20.955Z" fill="white"/>
<path d="M10.8217 22.0681C10.5635 22.0681 10.3391 21.9832 10.1486 21.8135C9.95806 21.6436 9.83998 21.4316 9.79434 21.1776L9.50103 18.8487C9.14576 18.7417 8.76155 18.5732 8.3484 18.3433C7.93525 18.1137 7.58387 17.8676 7.29427 17.6051L5.1621 18.5212C4.92667 18.6252 4.68763 18.6367 4.44497 18.5554C4.20231 18.4739 4.0154 18.3198 3.88424 18.0929L2.68318 16.0253C2.55202 15.7984 2.51352 15.5615 2.5677 15.3145C2.62187 15.0676 2.75099 14.8649 2.95506 14.7065L4.81536 13.3151C4.78252 13.114 4.75544 12.9068 4.7341 12.6934C4.71258 12.4801 4.70182 12.2728 4.70182 12.0715C4.70182 11.8845 4.71258 11.6879 4.7341 11.4818C4.75544 11.2755 4.78252 11.0432 4.81536 10.785L2.95506 9.39359C2.75099 9.23516 2.62539 9.02895 2.57827 8.77498C2.53133 8.521 2.57345 8.28047 2.70461 8.0534L3.88424 6.04978C4.0154 5.83718 4.20231 5.68663 4.44497 5.59814C4.68763 5.50964 4.92667 5.51753 5.1621 5.62179L7.27285 6.51646C7.6053 6.23966 7.96493 5.98995 8.35174 5.76733C8.73836 5.54471 9.11432 5.37273 9.4796 5.2514L9.79434 2.92248C9.83998 2.6685 9.95806 2.45655 10.1486 2.28661C10.3391 2.11686 10.5635 2.03198 10.8217 2.03198H13.1381C13.3964 2.03198 13.6208 2.11686 13.8113 2.28661C14.0018 2.45655 14.1199 2.6685 14.1656 2.92248L14.4589 5.27283C14.8856 5.42273 15.2626 5.5947 15.5901 5.78876C15.9175 5.98281 16.2547 6.22538 16.6016 6.51646L18.8192 5.62179C19.0546 5.51753 19.2937 5.50964 19.5364 5.59814C19.779 5.68663 19.9659 5.83718 20.0971 6.04978L21.2767 8.07483C21.4079 8.30172 21.4464 8.53862 21.3922 8.78555C21.338 9.03248 21.2089 9.23516 21.0048 9.39359L19.0588 10.8493C19.1202 11.0789 19.1546 11.2898 19.1618 11.4818C19.1688 11.6736 19.1724 11.863 19.1724 12.05C19.1724 12.2228 19.1652 12.405 19.1509 12.5969C19.1366 12.7889 19.1038 13.0212 19.0524 13.2937L20.9341 14.7065C21.1382 14.8649 21.271 15.0676 21.3324 15.3145C21.3936 15.5615 21.3586 15.7984 21.2275 16.0253L20.0414 18.0715C19.9103 18.2985 19.7197 18.4527 19.4698 18.534C19.2201 18.6152 18.9776 18.6038 18.7421 18.4997L16.6016 17.5836C16.2547 17.8747 15.9057 18.1244 15.5547 18.3328C15.2037 18.5411 14.8384 18.7059 14.4589 18.8273L14.1656 21.1776C14.1199 21.4316 14.0018 21.6436 13.8113 21.8135C13.6208 21.9832 13.3964 22.0681 13.1381 22.0681H10.8217ZM10.8668 20.955H13.0438L13.4548 17.941C14.0157 17.7925 14.5205 17.5888 14.9692 17.3298C15.4182 17.0709 15.8752 16.7159 16.3403 16.2649L19.1167 17.4487L20.2234 15.5564L17.7874 13.7261C17.8801 13.4093 17.9415 13.1178 17.9716 12.8518C18.0015 12.5856 18.0164 12.3183 18.0164 12.05C18.0164 11.7675 18.0015 11.5003 17.9716 11.2483C17.9415 10.9966 17.8801 10.7194 17.7874 10.4168L20.2663 8.54373L19.1596 6.65142L16.3189 7.84163C15.9822 7.47207 15.5394 7.12561 14.9907 6.80225C14.4421 6.47908 13.923 6.26471 13.4334 6.15915L13.0931 3.1451H10.8732L10.5265 6.13772C9.96567 6.25757 9.45011 6.4506 8.97981 6.71682C8.50971 6.98285 8.04201 7.34852 7.57673 7.8138L4.80033 6.65142L3.69362 8.54373L6.10825 10.3461C6.01549 10.5959 5.95056 10.867 5.91345 11.1596C5.87635 11.4521 5.8578 11.7561 5.8578 12.0715C5.8578 12.354 5.87635 12.6344 5.91345 12.9127C5.95056 13.191 6.00835 13.4621 6.08682 13.7261L3.69362 15.5564L4.80033 17.4487L7.5553 16.2799C7.99201 16.7209 8.44543 17.0745 8.91553 17.3407C9.38582 17.6067 9.91567 17.814 10.5051 17.9624L10.8668 20.955Z" fill="#1C1C1C"/>
<path fill-rule="evenodd" clip-rule="evenodd" d="M11.9803 13.8213C12.9589 13.8213 13.7521 13.0281 13.7521 12.0495C13.7521 11.071 12.9589 10.2777 11.9803 10.2777C11.0018 10.2777 10.2085 11.071 10.2085 12.0495C10.2085 13.0281 11.0018 13.8213 11.9803 13.8213ZM11.9803 14.9283C13.5702 14.9283 14.8591 13.6394 14.8591 12.0495C14.8591 10.4596 13.5702 9.17078 11.9803 9.17078C10.3904 9.17078 9.10156 10.4596 9.10156 12.0495C9.10156 13.6394 10.3904 14.9283 11.9803 14.9283Z" fill="white"/>
<path fill-rule="evenodd" clip-rule="evenodd" d="M11.9803 13.8213C12.9589 13.8213 13.7521 13.0281 13.7521 12.0495C13.7521 11.071 12.9589 10.2777 11.9803 10.2777C11.0018 10.2777 10.2085 11.071 10.2085 12.0495C10.2085 13.0281 11.0018 13.8213 11.9803 13.8213ZM11.9803 14.9283C13.5702 14.9283 14.8591 13.6394 14.8591 12.0495C14.8591 10.4596 13.5702 9.17078 11.9803 9.17078C10.3904 9.17078 9.10156 10.4596 9.10156 12.0495C9.10156 13.6394 10.3904 14.9283 11.9803 14.9283Z" fill="#1C1C1C"/>
</svg>
