<svg width="24" height="24" viewBox="0 0 24 24" fill="none" xmlns="http://www.w3.org/2000/svg">
<path d="M6.989 21C6.4813 21 6.04669 20.8194 5.68517 20.4583C5.32363 20.0973 5.14286 19.6632 5.14286 19.1561V5.01953H4.57143C4.40952 5.01953 4.27381 4.96476 4.16429 4.85522C4.05476 4.74568 4 4.60995 4 4.44803C4 4.2861 4.05476 4.15062 4.16429 4.04161C4.27381 3.93259 4.40952 3.87807 4.57143 3.87807H8.57143C8.57143 3.64245 8.65897 3.43721 8.83406 3.26234C9.00916 3.08745 9.21466 3 9.45054 3H14.5495C14.7853 3 14.9908 3.08745 15.1659 3.26234C15.341 3.43721 15.4286 3.64245 15.4286 3.87807H19.4286C19.5905 3.87807 19.7262 3.93284 19.8357 4.04238C19.9452 4.15191 20 4.28764 20 4.44957C20 4.61149 19.9452 4.74696 19.8357 4.85599C19.7262 4.96502 19.5905 5.01953 19.4286 5.01953H18.8571V19.1561C18.8571 19.6632 18.6764 20.0973 18.3148 20.4583C17.9533 20.8194 17.5187 21 17.011 21H6.989ZM17.7143 5.01953H6.28571V19.1561C6.28571 19.361 6.35165 19.5293 6.48351 19.661C6.61538 19.7927 6.78388 19.8585 6.989 19.8585H17.011C17.2161 19.8585 17.3846 19.7927 17.5165 19.661C17.6484 19.5293 17.7143 19.361 17.7143 19.1561V5.01953ZM10.0667 17.5756C10.2288 17.5756 10.3645 17.5209 10.4736 17.4115C10.5828 17.3021 10.6374 17.1666 10.6374 17.0049V7.87319C10.6374 7.71148 10.5825 7.57593 10.4729 7.46654C10.3632 7.35715 10.2273 7.30246 10.0652 7.30246C9.90304 7.30246 9.76739 7.35715 9.65823 7.46654C9.54907 7.57593 9.49449 7.71148 9.49449 7.87319V17.0049C9.49449 17.1666 9.54932 17.3021 9.659 17.4115C9.76868 17.5209 9.90458 17.5756 10.0667 17.5756ZM13.9348 17.5756C14.097 17.5756 14.2326 17.5209 14.3418 17.4115C14.4509 17.3021 14.5055 17.1666 14.5055 17.0049V7.87319C14.5055 7.71148 14.4507 7.57593 14.341 7.46654C14.2313 7.35715 14.0954 7.30246 13.9333 7.30246C13.7712 7.30246 13.6355 7.35715 13.5264 7.46654C13.4172 7.57593 13.3626 7.71148 13.3626 7.87319V17.0049C13.3626 17.1666 13.4175 17.3021 13.5271 17.4115C13.6368 17.5209 13.7727 17.5756 13.9348 17.5756Z" fill="white"/>
<path d="M6.989 21C6.4813 21 6.04669 20.8194 5.68517 20.4583C5.32363 20.0973 5.14286 19.6632 5.14286 19.1561V5.01953H4.57143C4.40952 5.01953 4.27381 4.96476 4.16429 4.85522C4.05476 4.74568 4 4.60995 4 4.44803C4 4.2861 4.05476 4.15062 4.16429 4.04161C4.27381 3.93259 4.40952 3.87807 4.57143 3.87807H8.57143C8.57143 3.64245 8.65897 3.43721 8.83406 3.26234C9.00916 3.08745 9.21466 3 9.45054 3H14.5495C14.7853 3 14.9908 3.08745 15.1659 3.26234C15.341 3.43721 15.4286 3.64245 15.4286 3.87807H19.4286C19.5905 3.87807 19.7262 3.93284 19.8357 4.04238C19.9452 4.15191 20 4.28764 20 4.44957C20 4.61149 19.9452 4.74696 19.8357 4.85599C19.7262 4.96502 19.5905 5.01953 19.4286 5.01953H18.8571V19.1561C18.8571 19.6632 18.6764 20.0973 18.3148 20.4583C17.9533 20.8194 17.5187 21 17.011 21H6.989ZM17.7143 5.01953H6.28571V19.1561C6.28571 19.361 6.35165 19.5293 6.48351 19.661C6.61538 19.7927 6.78388 19.8585 6.989 19.8585H17.011C17.2161 19.8585 17.3846 19.7927 17.5165 19.661C17.6484 19.5293 17.7143 19.361 17.7143 19.1561V5.01953ZM10.0667 17.5756C10.2288 17.5756 10.3645 17.5209 10.4736 17.4115C10.5828 17.3021 10.6374 17.1666 10.6374 17.0049V7.87319C10.6374 7.71148 10.5825 7.57593 10.4729 7.46654C10.3632 7.35715 10.2273 7.30246 10.0652 7.30246C9.90304 7.30246 9.76739 7.35715 9.65823 7.46654C9.54907 7.57593 9.49449 7.71148 9.49449 7.87319V17.0049C9.49449 17.1666 9.54932 17.3021 9.659 17.4115C9.76868 17.5209 9.90458 17.5756 10.0667 17.5756ZM13.9348 17.5756C14.097 17.5756 14.2326 17.5209 14.3418 17.4115C14.4509 17.3021 14.5055 17.1666 14.5055 17.0049V7.87319C14.5055 7.71148 14.4507 7.57593 14.341 7.46654C14.2313 7.35715 14.0954 7.30246 13.9333 7.30246C13.7712 7.30246 13.6355 7.35715 13.5264 7.46654C13.4172 7.57593 13.3626 7.71148 13.3626 7.87319V17.0049C13.3626 17.1666 13.4175 17.3021 13.5271 17.4115C13.6368 17.5209 13.7727 17.5756 13.9348 17.5756Z" fill="#1C1C1C"/>
</svg>
