<svg width="24" height="24" viewBox="0 0 24 24" fill="none" xmlns="http://www.w3.org/2000/svg">
<path fill-rule="evenodd" clip-rule="evenodd" d="M12.1284 9.7373C13.699 9.7373 14.9722 8.46411 14.9722 6.89355C14.9722 5.32299 13.699 4.0498 12.1284 4.0498C10.5579 4.0498 9.28467 5.32299 9.28467 6.89355C9.28467 8.46411 10.5579 9.7373 12.1284 9.7373ZM12.1284 10.7373C14.2513 10.7373 15.9722 9.0164 15.9722 6.89355C15.9722 4.77071 14.2513 3.0498 12.1284 3.0498C10.0056 3.0498 8.28467 4.77071 8.28467 6.89355C8.28467 9.0164 10.0056 10.7373 12.1284 10.7373Z" fill="white"/>
<path fill-rule="evenodd" clip-rule="evenodd" d="M12.1284 9.7373C13.699 9.7373 14.9722 8.46411 14.9722 6.89355C14.9722 5.32299 13.699 4.0498 12.1284 4.0498C10.5579 4.0498 9.28467 5.32299 9.28467 6.89355C9.28467 8.46411 10.5579 9.7373 12.1284 9.7373ZM12.1284 10.7373C14.2513 10.7373 15.9722 9.0164 15.9722 6.89355C15.9722 4.77071 14.2513 3.0498 12.1284 3.0498C10.0056 3.0498 8.28467 4.77071 8.28467 6.89355C8.28467 9.0164 10.0056 10.7373 12.1284 10.7373Z" fill="#1C1C1C"/>
<path fill-rule="evenodd" clip-rule="evenodd" d="M17.3222 14.2994C15.5652 13.672 13.5708 13.3977 12.1035 13.3977L12.1035 14.3977C13.47 14.3977 15.3491 14.6567 16.9859 15.2411C18.6328 15.8292 19.8801 16.6898 20.277 17.7955C20.3307 18.2014 20.3706 18.7862 20.3288 19.2792C20.3068 19.539 20.2647 19.7382 20.2112 19.8657C20.1994 19.8939 20.189 19.9142 20.1806 19.9286H12.1035V20.9286H20.3081H20.3621L20.4148 20.9171C20.8123 20.8303 21.0244 20.5121 21.1333 20.2527C21.2456 19.9851 21.2996 19.6665 21.3252 19.3637C21.3771 18.7514 21.3239 18.0597 21.2609 17.6093L21.2544 17.563L21.2395 17.5188C20.704 15.9307 19.048 14.9156 17.3222 14.2994ZM20.1577 19.9601C20.1577 19.9603 20.159 19.9593 20.1612 19.9568C20.1588 19.9587 20.1576 19.96 20.1577 19.9601Z" fill="white"/>
<path fill-rule="evenodd" clip-rule="evenodd" d="M17.3222 14.2994C15.5652 13.672 13.5708 13.3977 12.1035 13.3977L12.1035 14.3977C13.47 14.3977 15.3491 14.6567 16.9859 15.2411C18.6328 15.8292 19.8801 16.6898 20.277 17.7955C20.3307 18.2014 20.3706 18.7862 20.3288 19.2792C20.3068 19.539 20.2647 19.7382 20.2112 19.8657C20.1994 19.8939 20.189 19.9142 20.1806 19.9286H12.1035V20.9286H20.3081H20.3621L20.4148 20.9171C20.8123 20.8303 21.0244 20.5121 21.1333 20.2527C21.2456 19.9851 21.2996 19.6665 21.3252 19.3637C21.3771 18.7514 21.3239 18.0597 21.2609 17.6093L21.2544 17.563L21.2395 17.5188C20.704 15.9307 19.048 14.9156 17.3222 14.2994ZM20.1577 19.9601C20.1577 19.9603 20.159 19.9593 20.1612 19.9568C20.1588 19.9587 20.1576 19.96 20.1577 19.9601Z" fill="#1C1C1C"/>
<path fill-rule="evenodd" clip-rule="evenodd" d="M6.90975 14.2994C8.66674 13.672 10.6611 13.3977 12.1284 13.3977L12.1284 14.3977C10.762 14.3977 8.88287 14.6567 7.24601 15.2411C5.59918 15.8292 4.35182 16.6898 3.95491 17.7955C3.90121 18.2014 3.86135 18.7862 3.90314 19.2792C3.92515 19.539 3.9672 19.7382 4.02072 19.8657C4.03254 19.8939 4.04292 19.9142 4.05131 19.9286H12.1284V20.9286H3.92384H3.86984L3.81709 20.9171C3.41966 20.8303 3.2075 20.5121 3.09864 20.2527C2.98634 19.9851 2.93237 19.6665 2.90671 19.3637C2.85482 18.7514 2.90806 18.0597 2.97103 17.6093L2.9775 17.563L2.99242 17.5188C3.5279 15.9307 5.18393 14.9156 6.90975 14.2994ZM4.07427 19.9601C4.07422 19.9603 4.07298 19.9593 4.07069 19.9568C4.07317 19.9587 4.07432 19.96 4.07427 19.9601Z" fill="white"/>
<path fill-rule="evenodd" clip-rule="evenodd" d="M6.90975 14.2994C8.66674 13.672 10.6611 13.3977 12.1284 13.3977L12.1284 14.3977C10.762 14.3977 8.88287 14.6567 7.24601 15.2411C5.59918 15.8292 4.35182 16.6898 3.95491 17.7955C3.90121 18.2014 3.86135 18.7862 3.90314 19.2792C3.92515 19.539 3.9672 19.7382 4.02072 19.8657C4.03254 19.8939 4.04292 19.9142 4.05131 19.9286H12.1284V20.9286H3.92384H3.86984L3.81709 20.9171C3.41966 20.8303 3.2075 20.5121 3.09864 20.2527C2.98634 19.9851 2.93237 19.6665 2.90671 19.3637C2.85482 18.7514 2.90806 18.0597 2.97103 17.6093L2.9775 17.563L2.99242 17.5188C3.5279 15.9307 5.18393 14.9156 6.90975 14.2994ZM4.07427 19.9601C4.07422 19.9603 4.07298 19.9593 4.07069 19.9568C4.07317 19.9587 4.07432 19.96 4.07427 19.9601Z" fill="#1C1C1C"/>
</svg>
