<svg width="24" height="24" viewBox="0 0 24 24" fill="none" xmlns="http://www.w3.org/2000/svg">
<path fill-rule="evenodd" clip-rule="evenodd" d="M11.4029 19.3385C11.5933 19.409 11.7859 19.4443 11.9808 19.4443C12.1756 19.4443 12.3715 19.409 12.5683 19.3385C12.7651 19.268 12.9359 19.1603 13.0808 19.0154L14.2231 17.9846C15.9077 16.4577 17.4583 14.9167 18.875 13.3616C20.2917 11.8064 21 10.1859 21 8.5C21 7.2282 20.5679 6.16025 19.7038 5.29615C18.8398 4.43205 17.7718 4 16.5 4C15.7705 4 15.0109 4.18429 14.2212 4.55287C13.4314 4.92147 12.691 5.61667 12 6.63845C11.309 5.61667 10.5686 4.92147 9.77885 4.55287C8.9891 4.18429 8.22948 4 7.5 4C6.2282 4 5.16025 4.43205 4.29615 5.29615C3.43205 6.16025 3 7.2282 3 8.5C3 10.1474 3.68045 11.7349 5.04135 13.2625C6.40223 14.7901 7.97242 16.3622 9.75192 17.9789L10.9 19.0154C11.0449 19.1603 11.2125 19.268 11.4029 19.3385Z" fill="#FF5639"/>
</svg>
