<svg width="24" height="24" viewBox="0 0 24 24" fill="none" xmlns="http://www.w3.org/2000/svg">
<path d="M19.7971 21C17.9005 21 15.9562 20.5251 13.9644 19.5754C11.9726 18.6256 10.1221 17.2926 8.41297 15.5762C6.70383 13.8598 5.37439 12.0094 4.42464 10.0248C3.47488 8.04014 3 6.09951 3 4.20288C3 3.85919 3.1125 3.57279 3.3375 3.34369C3.5625 3.11456 3.84375 3 4.18125 3H6.96346C7.26923 3 7.53607 3.09627 7.76395 3.28882C7.99184 3.48136 8.14616 3.72835 8.22692 4.0298L8.78509 6.7125C8.83702 7.02692 8.82765 7.30168 8.75696 7.53679C8.68629 7.77187 8.56154 7.96442 8.3827 8.11442L5.91417 10.4163C6.37572 11.2543 6.88595 12.0328 7.44485 12.7518C8.00373 13.4708 8.59975 14.1519 9.23292 14.7952C9.8863 15.4486 10.5894 16.0561 11.3423 16.6179C12.0952 17.1797 12.9216 17.7101 13.8216 18.2091L16.2274 15.7601C16.4106 15.5625 16.6165 15.4323 16.8451 15.3696C17.0737 15.3068 17.3264 15.2942 17.6034 15.3317L19.9702 15.8163C20.276 15.8913 20.524 16.0453 20.7144 16.2782C20.9048 16.5112 21 16.7784 21 17.0798V19.8188C21 20.1562 20.8854 20.4375 20.6563 20.6625C20.4272 20.8875 20.1408 21 19.7971 21ZM5.38629 9.36058L7.54542 7.37451C7.61753 7.31681 7.66441 7.23749 7.68605 7.13654C7.70768 7.03557 7.70408 6.94182 7.67525 6.85529L7.17547 4.47116C7.14663 4.35577 7.09615 4.26924 7.02404 4.21154C6.95193 4.15385 6.85818 4.125 6.74279 4.125H4.43437C4.34784 4.125 4.27573 4.15385 4.21804 4.21154C4.16034 4.26924 4.1315 4.34135 4.1315 4.42788C4.15313 5.19663 4.27357 5.99928 4.49279 6.83583C4.71202 7.67236 5.00985 8.51394 5.38629 9.36058ZM14.8925 18.737C15.6526 19.1134 16.4629 19.3918 17.3232 19.5721C18.1835 19.7524 18.9332 19.849 19.5721 19.862C19.6587 19.862 19.7308 19.8332 19.7885 19.7755C19.8462 19.7178 19.875 19.6457 19.875 19.5591V17.3005C19.875 17.1851 19.8462 17.0914 19.7885 17.0192C19.7308 16.9471 19.6442 16.8966 19.5288 16.8678L17.4476 16.4416C17.3611 16.4127 17.2853 16.4091 17.2204 16.4308C17.1555 16.4524 17.087 16.4993 17.0149 16.5714L14.8925 18.737Z" fill="black"/>
</svg>
