<svg width="24" height="24" viewBox="0 0 24 24" fill="none" xmlns="http://www.w3.org/2000/svg">
<g clip-path="url(#clip0_96_13097)">
<path d="M12.5625 11.7663V6.9375C12.5625 6.77741 12.5088 6.64364 12.4013 6.53618C12.2939 6.42873 12.1601 6.375 12 6.375C11.8399 6.375 11.7061 6.42873 11.5987 6.53618C11.4912 6.64364 11.4375 6.77741 11.4375 6.9375V11.8637C11.4375 11.9848 11.4584 12.0977 11.5002 12.2023C11.5421 12.3068 11.612 12.4082 11.7101 12.5062L15.1413 15.9375C15.2466 16.0428 15.3757 16.099 15.5286 16.1062C15.6815 16.1135 15.8178 16.0572 15.9375 15.9375C16.0572 15.8178 16.1171 15.6851 16.1171 15.5394C16.1171 15.3938 16.0572 15.2611 15.9375 15.1413L12.5625 11.7663ZM12 21C10.7524 21 9.58304 20.7653 8.49194 20.2958C7.40084 19.8263 6.44748 19.1838 5.63185 18.3681C4.81623 17.5525 4.17367 16.5992 3.70419 15.5081C3.23473 14.417 3 13.2476 3 12C3 10.7524 3.23473 9.58304 3.70419 8.49194C4.17367 7.40084 4.81623 6.44748 5.63185 5.63185C6.44748 4.81623 7.40084 4.17368 8.49194 3.70419C9.58304 3.23473 10.7524 3 12 3C13.2476 3 14.417 3.23473 15.5081 3.70419C16.5992 4.17368 17.5525 4.81623 18.3681 5.63185C19.1838 6.44748 19.8263 7.40084 20.2958 8.49194C20.7653 9.58304 21 10.7524 21 12C21 13.2476 20.7653 14.417 20.2958 15.5081C19.8263 16.5992 19.1838 17.5525 18.3681 18.3681C17.5525 19.1838 16.5992 19.8263 15.5081 20.2958C14.417 20.7653 13.2476 21 12 21ZM12 19.875C14.1793 19.875 16.0367 19.1073 17.572 17.572C19.1073 16.0367 19.875 14.1793 19.875 12C19.875 9.82067 19.1073 7.96334 17.572 6.42802C16.0367 4.89267 14.1793 4.125 12 4.125C9.82067 4.125 7.96334 4.89267 6.42802 6.42802C4.89267 7.96334 4.125 9.82067 4.125 12C4.125 14.1793 4.89267 16.0367 6.42802 17.572C7.96334 19.1073 9.82067 19.875 12 19.875Z" fill="white"/>
<path d="M12.5625 11.7663V6.9375C12.5625 6.77741 12.5088 6.64364 12.4013 6.53618C12.2939 6.42873 12.1601 6.375 12 6.375C11.8399 6.375 11.7061 6.42873 11.5987 6.53618C11.4912 6.64364 11.4375 6.77741 11.4375 6.9375V11.8637C11.4375 11.9848 11.4584 12.0977 11.5002 12.2023C11.5421 12.3068 11.612 12.4082 11.7101 12.5062L15.1413 15.9375C15.2466 16.0428 15.3757 16.099 15.5286 16.1062C15.6815 16.1135 15.8178 16.0572 15.9375 15.9375C16.0572 15.8178 16.1171 15.6851 16.1171 15.5394C16.1171 15.3938 16.0572 15.2611 15.9375 15.1413L12.5625 11.7663ZM12 21C10.7524 21 9.58304 20.7653 8.49194 20.2958C7.40084 19.8263 6.44748 19.1838 5.63185 18.3681C4.81623 17.5525 4.17367 16.5992 3.70419 15.5081C3.23473 14.417 3 13.2476 3 12C3 10.7524 3.23473 9.58304 3.70419 8.49194C4.17367 7.40084 4.81623 6.44748 5.63185 5.63185C6.44748 4.81623 7.40084 4.17368 8.49194 3.70419C9.58304 3.23473 10.7524 3 12 3C13.2476 3 14.417 3.23473 15.5081 3.70419C16.5992 4.17368 17.5525 4.81623 18.3681 5.63185C19.1838 6.44748 19.8263 7.40084 20.2958 8.49194C20.7653 9.58304 21 10.7524 21 12C21 13.2476 20.7653 14.417 20.2958 15.5081C19.8263 16.5992 19.1838 17.5525 18.3681 18.3681C17.5525 19.1838 16.5992 19.8263 15.5081 20.2958C14.417 20.7653 13.2476 21 12 21ZM12 19.875C14.1793 19.875 16.0367 19.1073 17.572 17.572C19.1073 16.0367 19.875 14.1793 19.875 12C19.875 9.82067 19.1073 7.96334 17.572 6.42802C16.0367 4.89267 14.1793 4.125 12 4.125C9.82067 4.125 7.96334 4.89267 6.42802 6.42802C4.89267 7.96334 4.125 9.82067 4.125 12C4.125 14.1793 4.89267 16.0367 6.42802 17.572C7.96334 19.1073 9.82067 19.875 12 19.875Z" fill="#1C1C1C"/>
</g>
<defs>
<clipPath id="clip0_96_13097">
<rect width="24" height="24" fill="white"/>
</clipPath>
</defs>
</svg>
