<svg width="24" height="24" viewBox="0 0 24 24" fill="none" xmlns="http://www.w3.org/2000/svg">
<path d="M19.3846 7.91759C19.8026 7.91759 20.1763 8.08357 20.5058 8.41552C20.8353 8.74747 21 9.12399 21 9.54507V10.7851C21 10.879 20.9897 10.9797 20.9692 11.0871C20.9487 11.1944 20.9218 11.294 20.8885 11.3857L18.1568 17.9096C18.0202 18.218 17.7898 18.4769 17.4654 18.6861C17.141 18.8954 16.8041 19 16.4545 19H7.42308V7.91759L13.0577 2.29113C13.2051 2.14259 13.3696 2.05055 13.551 2.01502C13.7324 1.97951 13.9045 2.00696 14.0673 2.09738C14.2301 2.18779 14.3481 2.31954 14.4212 2.49262C14.4942 2.66571 14.5083 2.84719 14.4635 3.03707L13.4346 7.91759H19.3846ZM8.42308 8.34771V17.9925H16.4615C16.6026 17.9925 16.7468 17.9538 16.8942 17.8763C17.0417 17.7988 17.1538 17.6696 17.2308 17.4888L20 10.9401V9.54507C20 9.36424 19.9423 9.2157 19.8269 9.09945C19.7115 8.98321 19.5641 8.92508 19.3846 8.92508H12.1923L13.35 3.42262L8.42308 8.34771ZM4.61538 19C4.17114 19 3.79086 18.8406 3.47453 18.5219C3.15818 18.2032 3 17.8201 3 17.3725V9.54507C3 9.09751 3.15818 8.71437 3.47453 8.39567C3.79086 8.07695 4.17114 7.91759 4.61538 7.91759H7.42308V8.92508H4.61538C4.43589 8.92508 4.28846 8.98321 4.17308 9.09945C4.05769 9.2157 4 9.36424 4 9.54507V17.3725C4 17.5534 4.05769 17.7019 4.17308 17.8181C4.28846 17.9344 4.43589 17.9925 4.61538 17.9925H7.42308V19H4.61538Z" fill="black"/>
</svg>
