<svg width="24" height="24" viewBox="0 0 24 24" fill="none" xmlns="http://www.w3.org/2000/svg">
<g clip-path="url(#clip0_96_13096)">
<path d="M10.95 16.4116L14.8288 12.5327C14.9263 12.4353 15.043 12.3833 15.1789 12.3769C15.3147 12.3705 15.4378 12.4224 15.5481 12.5327C15.6583 12.643 15.7135 12.7628 15.7135 12.8923C15.7135 13.0218 15.6583 13.1417 15.5481 13.2519L11.5154 17.2846C11.3538 17.4462 11.1654 17.5269 10.95 17.5269C10.7346 17.5269 10.5462 17.4462 10.3846 17.2846L8.45192 15.3519C8.35449 15.2545 8.30257 15.1378 8.29615 15.0019C8.28973 14.866 8.34166 14.743 8.45192 14.6327C8.56217 14.5224 8.68205 14.4673 8.81155 14.4673C8.94103 14.4673 9.0609 14.5224 9.17115 14.6327L10.95 16.4116ZM5.61538 21.2308C5.15513 21.2308 4.77083 21.0766 4.4625 20.7683C4.15417 20.4599 4 20.0757 4 19.6154V6.84615C4 6.3859 4.15417 6.00161 4.4625 5.69328C4.77083 5.38494 5.15513 5.23078 5.61538 5.23078H7.3846V3.53848C7.3846 3.38334 7.43557 3.25481 7.5375 3.15287C7.63942 3.05096 7.76794 3 7.92308 3C8.07821 3 8.20673 3.05096 8.30865 3.15287C8.41057 3.25481 8.46152 3.38334 8.46152 3.53848V5.23078H15.6154V3.5C15.6154 3.3577 15.6631 3.23879 15.7587 3.14328C15.8542 3.04776 15.9731 3 16.1154 3C16.2577 3 16.3766 3.04776 16.4721 3.14328C16.5676 3.23879 16.6154 3.3577 16.6154 3.5V5.23078H18.3846C18.8449 5.23078 19.2292 5.38494 19.5375 5.69328C19.8458 6.00161 20 6.3859 20 6.84615V19.6154C20 20.0757 19.8458 20.4599 19.5375 20.7683C19.2292 21.0766 18.8449 21.2308 18.3846 21.2308H5.61538ZM5.61538 20.2308H18.3846C18.5385 20.2308 18.6795 20.1667 18.8077 20.0385C18.9359 19.9103 19 19.7692 19 19.6154V10.8462H5V19.6154C5 19.7692 5.0641 19.9103 5.1923 20.0385C5.32052 20.1667 5.46154 20.2308 5.61538 20.2308ZM5 9.84615H19V6.84615C19 6.69232 18.9359 6.55129 18.8077 6.42308C18.6795 6.29488 18.5385 6.23078 18.3846 6.23078H5.61538C5.46154 6.23078 5.32052 6.29488 5.1923 6.42308C5.0641 6.55129 5 6.69232 5 6.84615V9.84615Z" fill="white"/>
<path d="M10.95 16.4116L14.8288 12.5327C14.9263 12.4353 15.043 12.3833 15.1789 12.3769C15.3147 12.3705 15.4378 12.4224 15.5481 12.5327C15.6583 12.643 15.7135 12.7628 15.7135 12.8923C15.7135 13.0218 15.6583 13.1417 15.5481 13.2519L11.5154 17.2846C11.3538 17.4462 11.1654 17.5269 10.95 17.5269C10.7346 17.5269 10.5462 17.4462 10.3846 17.2846L8.45192 15.3519C8.35449 15.2545 8.30257 15.1378 8.29615 15.0019C8.28973 14.866 8.34166 14.743 8.45192 14.6327C8.56217 14.5224 8.68205 14.4673 8.81155 14.4673C8.94103 14.4673 9.0609 14.5224 9.17115 14.6327L10.95 16.4116ZM5.61538 21.2308C5.15513 21.2308 4.77083 21.0766 4.4625 20.7683C4.15417 20.4599 4 20.0757 4 19.6154V6.84615C4 6.3859 4.15417 6.00161 4.4625 5.69328C4.77083 5.38494 5.15513 5.23078 5.61538 5.23078H7.3846V3.53848C7.3846 3.38334 7.43557 3.25481 7.5375 3.15287C7.63942 3.05096 7.76794 3 7.92308 3C8.07821 3 8.20673 3.05096 8.30865 3.15287C8.41057 3.25481 8.46152 3.38334 8.46152 3.53848V5.23078H15.6154V3.5C15.6154 3.3577 15.6631 3.23879 15.7587 3.14328C15.8542 3.04776 15.9731 3 16.1154 3C16.2577 3 16.3766 3.04776 16.4721 3.14328C16.5676 3.23879 16.6154 3.3577 16.6154 3.5V5.23078H18.3846C18.8449 5.23078 19.2292 5.38494 19.5375 5.69328C19.8458 6.00161 20 6.3859 20 6.84615V19.6154C20 20.0757 19.8458 20.4599 19.5375 20.7683C19.2292 21.0766 18.8449 21.2308 18.3846 21.2308H5.61538ZM5.61538 20.2308H18.3846C18.5385 20.2308 18.6795 20.1667 18.8077 20.0385C18.9359 19.9103 19 19.7692 19 19.6154V10.8462H5V19.6154C5 19.7692 5.0641 19.9103 5.1923 20.0385C5.32052 20.1667 5.46154 20.2308 5.61538 20.2308ZM5 9.84615H19V6.84615C19 6.69232 18.9359 6.55129 18.8077 6.42308C18.6795 6.29488 18.5385 6.23078 18.3846 6.23078H5.61538C5.46154 6.23078 5.32052 6.29488 5.1923 6.42308C5.0641 6.55129 5 6.69232 5 6.84615V9.84615Z" fill="#1C1C1C"/>
</g>
<defs>
<clipPath id="clip0_96_13096">
<rect width="24" height="24" fill="white"/>
</clipPath>
</defs>
</svg>
