<svg width="24" height="24" viewBox="0 0 24 24" fill="none" xmlns="http://www.w3.org/2000/svg">
<path d="M12.5409 21C12.3808 21 12.247 20.9463 12.1396 20.8388C12.0321 20.7314 11.9784 20.5976 11.9784 20.4375C11.9784 20.2774 12.0321 20.1436 12.1396 20.0362C12.247 19.9287 12.3808 19.875 12.5409 19.875H19.1827C19.3558 19.875 19.5144 19.8029 19.6587 19.6587C19.8029 19.5144 19.875 19.3558 19.875 19.1827V4.8173C19.875 4.64423 19.8029 4.48558 19.6587 4.34134C19.5144 4.19711 19.3558 4.125 19.1827 4.125H12.5409C12.3808 4.125 12.247 4.07127 12.1396 3.96382C12.0321 3.85636 11.9784 3.72259 11.9784 3.5625C11.9784 3.40239 12.0321 3.26862 12.1396 3.16118C12.247 3.05373 12.3808 3 12.5409 3H19.1827C19.7005 3 20.1328 3.17344 20.4797 3.52031C20.8266 3.86719 21 4.29952 21 4.8173V19.1827C21 19.7005 20.8266 20.1328 20.4797 20.4797C20.1328 20.8266 19.7005 21 19.1827 21H12.5409ZM12.9973 12.5625H3.5625C3.40239 12.5625 3.26862 12.5088 3.16118 12.4013C3.05373 12.2939 3 12.1601 3 12C3 11.8399 3.05373 11.7061 3.16118 11.5987C3.26862 11.4912 3.40239 11.4375 3.5625 11.4375H12.9973L10.7798 9.21996C10.6745 9.11466 10.6183 8.98773 10.611 8.83917C10.6038 8.69062 10.6601 8.55432 10.7798 8.43029C10.8995 8.30624 11.0322 8.24314 11.1779 8.24098C11.3235 8.23881 11.4584 8.29974 11.5825 8.42379L14.5226 11.364C14.7043 11.5457 14.7952 11.7577 14.7952 12C14.7952 12.2423 14.7043 12.4543 14.5226 12.636L11.5825 15.5762C11.4728 15.6858 11.3427 15.7432 11.1919 15.7482C11.0412 15.7533 10.9038 15.6938 10.7798 15.5697C10.6601 15.4457 10.6013 15.3119 10.6035 15.1684C10.6056 15.0249 10.6666 14.8933 10.7863 14.7735L12.9973 12.5625Z" fill="white"/>
<path d="M12.5409 21C12.3808 21 12.247 20.9463 12.1396 20.8388C12.0321 20.7314 11.9784 20.5976 11.9784 20.4375C11.9784 20.2774 12.0321 20.1436 12.1396 20.0362C12.247 19.9287 12.3808 19.875 12.5409 19.875H19.1827C19.3558 19.875 19.5144 19.8029 19.6587 19.6587C19.8029 19.5144 19.875 19.3558 19.875 19.1827V4.8173C19.875 4.64423 19.8029 4.48558 19.6587 4.34134C19.5144 4.19711 19.3558 4.125 19.1827 4.125H12.5409C12.3808 4.125 12.247 4.07127 12.1396 3.96382C12.0321 3.85636 11.9784 3.72259 11.9784 3.5625C11.9784 3.40239 12.0321 3.26862 12.1396 3.16118C12.247 3.05373 12.3808 3 12.5409 3H19.1827C19.7005 3 20.1328 3.17344 20.4797 3.52031C20.8266 3.86719 21 4.29952 21 4.8173V19.1827C21 19.7005 20.8266 20.1328 20.4797 20.4797C20.1328 20.8266 19.7005 21 19.1827 21H12.5409ZM12.9973 12.5625H3.5625C3.40239 12.5625 3.26862 12.5088 3.16118 12.4013C3.05373 12.2939 3 12.1601 3 12C3 11.8399 3.05373 11.7061 3.16118 11.5987C3.26862 11.4912 3.40239 11.4375 3.5625 11.4375H12.9973L10.7798 9.21996C10.6745 9.11466 10.6183 8.98773 10.611 8.83917C10.6038 8.69062 10.6601 8.55432 10.7798 8.43029C10.8995 8.30624 11.0322 8.24314 11.1779 8.24098C11.3235 8.23881 11.4584 8.29974 11.5825 8.42379L14.5226 11.364C14.7043 11.5457 14.7952 11.7577 14.7952 12C14.7952 12.2423 14.7043 12.4543 14.5226 12.636L11.5825 15.5762C11.4728 15.6858 11.3427 15.7432 11.1919 15.7482C11.0412 15.7533 10.9038 15.6938 10.7798 15.5697C10.6601 15.4457 10.6013 15.3119 10.6035 15.1684C10.6056 15.0249 10.6666 14.8933 10.7863 14.7735L12.9973 12.5625Z" fill="#1C1C1C"/>
</svg>
