<svg width="24" height="24" viewBox="0 0 24 24" fill="none" xmlns="http://www.w3.org/2000/svg">
<path d="M21 12C21 16.9706 16.9706 21 12 21C7.02944 21 3 16.9706 3 12C3 7.02944 7.02944 3 12 3C16.9706 3 21 7.02944 21 12Z" fill="#EEE8A9"/>
<path fill-rule="evenodd" clip-rule="evenodd" d="M12 17C11.9118 17 11.8237 16.9854 11.7355 16.9562C11.6473 16.927 11.566 16.8795 11.4916 16.8138C11.0905 16.4413 10.684 16.0265 10.2721 15.5694C9.86015 15.1122 9.48599 14.6388 9.14958 14.1492C8.81318 13.6595 8.53748 13.1597 8.32248 12.6496C8.10749 12.1395 8 11.6416 8 11.156C8 9.95103 8.38826 8.95713 9.16477 8.17427C9.94128 7.39142 10.8864 7 12 7C13.1136 7 14.0587 7.39142 14.8352 8.17427C15.6117 8.95713 16 9.95103 16 11.156C16 11.6416 15.8925 12.1377 15.6775 12.6441C15.4625 13.1505 15.1886 13.6504 14.8558 14.1437C14.523 14.637 14.1507 15.1104 13.7388 15.5639C13.3268 16.0174 12.9203 16.4304 12.5192 16.8028C12.4474 16.8686 12.3658 16.9178 12.2743 16.9507C12.1829 16.9836 12.0914 17 12 17ZM12 13.1111C13.0309 13.1111 13.8667 12.2406 13.8667 11.1667C13.8667 10.0928 13.0309 9.22222 12 9.22222C10.9691 9.22222 10.1333 10.0928 10.1333 11.1667C10.1333 12.2406 10.9691 13.1111 12 13.1111Z" fill="white"/>
</svg>
