<svg width="24" height="24" viewBox="0 0 24 24" fill="none" xmlns="http://www.w3.org/2000/svg">
<path d="M12 11.7093C10.9393 11.7093 10.0312 11.3319 9.27589 10.577C8.52053 9.82215 8.14286 8.9147 8.14286 7.85468C8.14286 6.79463 8.52053 5.88717 9.27589 5.1323C10.0312 4.37743 10.9393 4 12 4C13.0607 4 13.9688 4.37743 14.7241 5.1323C15.4795 5.88717 15.8571 6.79463 15.8571 7.85468C15.8571 8.9147 15.4795 9.82215 14.7241 10.577C13.9688 11.3319 13.0607 11.7093 12 11.7093ZM3 17.6657V16.8849C3 16.3544 3.15453 15.8582 3.4636 15.3961C3.77266 14.9341 4.18846 14.5754 4.711 14.32C5.92417 13.7386 7.13818 13.3024 8.35301 13.0117C9.56786 12.7209 10.7835 12.5756 12 12.5756C13.2165 12.5756 14.4321 12.7209 15.647 13.0117C16.8618 13.3024 18.0758 13.7386 19.289 14.32C19.8115 14.5754 20.2273 14.9341 20.5364 15.3961C20.8455 15.8582 21 16.3544 21 16.8849V17.6657C21 18.0429 20.8718 18.3596 20.6155 18.6158C20.3592 18.8719 20.0423 19 19.6648 19H4.33515C3.95769 19 3.64079 18.8719 3.38446 18.6158C3.12815 18.3596 3 18.0429 3 17.6657ZM4.28571 17.7151H19.7143V16.8849C19.7143 16.5999 19.6224 16.3322 19.4386 16.0818C19.2548 15.8314 19.0005 15.6198 18.6758 15.4468C17.6176 14.9345 16.5265 14.542 15.4025 14.2694C14.2786 13.9968 13.1444 13.8604 12 13.8604C10.8556 13.8604 9.72144 13.9968 8.59749 14.2694C7.47351 14.542 6.38241 14.9345 5.32419 15.4468C4.99946 15.6198 4.7452 15.8314 4.5614 16.0818C4.37761 16.3322 4.28571 16.5999 4.28571 16.8849V17.7151ZM12 10.4244C12.7071 10.4244 13.3125 10.1728 13.8161 9.66957C14.3196 9.16632 14.5714 8.56136 14.5714 7.85468C14.5714 7.14799 14.3196 6.54303 13.8161 6.03978C13.3125 5.53654 12.7071 5.28491 12 5.28491C11.2929 5.28491 10.6875 5.53654 10.1839 6.03978C9.68036 6.54303 9.42857 7.14799 9.42857 7.85468C9.42857 8.56136 9.68036 9.16632 10.1839 9.66957C10.6875 10.1728 11.2929 10.4244 12 10.4244Z" fill="white"/>
<path d="M12 11.7093C10.9393 11.7093 10.0312 11.3319 9.27589 10.577C8.52053 9.82215 8.14286 8.9147 8.14286 7.85468C8.14286 6.79463 8.52053 5.88717 9.27589 5.1323C10.0312 4.37743 10.9393 4 12 4C13.0607 4 13.9688 4.37743 14.7241 5.1323C15.4795 5.88717 15.8571 6.79463 15.8571 7.85468C15.8571 8.9147 15.4795 9.82215 14.7241 10.577C13.9688 11.3319 13.0607 11.7093 12 11.7093ZM3 17.6657V16.8849C3 16.3544 3.15453 15.8582 3.4636 15.3961C3.77266 14.9341 4.18846 14.5754 4.711 14.32C5.92417 13.7386 7.13818 13.3024 8.35301 13.0117C9.56786 12.7209 10.7835 12.5756 12 12.5756C13.2165 12.5756 14.4321 12.7209 15.647 13.0117C16.8618 13.3024 18.0758 13.7386 19.289 14.32C19.8115 14.5754 20.2273 14.9341 20.5364 15.3961C20.8455 15.8582 21 16.3544 21 16.8849V17.6657C21 18.0429 20.8718 18.3596 20.6155 18.6158C20.3592 18.8719 20.0423 19 19.6648 19H4.33515C3.95769 19 3.64079 18.8719 3.38446 18.6158C3.12815 18.3596 3 18.0429 3 17.6657ZM4.28571 17.7151H19.7143V16.8849C19.7143 16.5999 19.6224 16.3322 19.4386 16.0818C19.2548 15.8314 19.0005 15.6198 18.6758 15.4468C17.6176 14.9345 16.5265 14.542 15.4025 14.2694C14.2786 13.9968 13.1444 13.8604 12 13.8604C10.8556 13.8604 9.72144 13.9968 8.59749 14.2694C7.47351 14.542 6.38241 14.9345 5.32419 15.4468C4.99946 15.6198 4.7452 15.8314 4.5614 16.0818C4.37761 16.3322 4.28571 16.5999 4.28571 16.8849V17.7151ZM12 10.4244C12.7071 10.4244 13.3125 10.1728 13.8161 9.66957C14.3196 9.16632 14.5714 8.56136 14.5714 7.85468C14.5714 7.14799 14.3196 6.54303 13.8161 6.03978C13.3125 5.53654 12.7071 5.28491 12 5.28491C11.2929 5.28491 10.6875 5.53654 10.1839 6.03978C9.68036 6.54303 9.42857 7.14799 9.42857 7.85468C9.42857 8.56136 9.68036 9.16632 10.1839 9.66957C10.6875 10.1728 11.2929 10.4244 12 10.4244Z" fill="#1C1C1C"/>
</svg>
