<svg width="24" height="24" viewBox="0 0 24 24" fill="none" xmlns="http://www.w3.org/2000/svg">
<path d="M5.68833 20.9837C5.23424 20.9837 4.85511 20.8316 4.55096 20.5274C4.2468 20.2233 4.09473 19.8442 4.09473 19.3901V6.79412C4.09473 6.34003 4.2468 5.9609 4.55096 5.65675C4.85511 5.35259 5.23424 5.20052 5.68833 5.20052H7.43336V3.5312C7.43336 3.37814 7.48367 3.2513 7.58429 3.15068C7.6849 3.05023 7.81166 3 7.96456 3C8.11762 3 8.24446 3.05023 8.34508 3.15068C8.44554 3.2513 8.49576 3.37814 8.49576 3.5312V5.20052H15.5528V3.49322C15.5528 3.35282 15.5999 3.23551 15.6941 3.14131C15.7883 3.0471 15.9056 3 16.046 3C16.1863 3 16.3035 3.0471 16.3977 3.14131C16.4921 3.23551 16.5393 3.35282 16.5393 3.49322V5.20052H18.2843C18.7384 5.20052 19.1175 5.35259 19.4217 5.65675C19.7258 5.9609 19.8779 6.34003 19.8779 6.79412V19.3901C19.8779 19.8442 19.7258 20.2233 19.4217 20.5274C19.1175 20.8316 18.7384 20.9837 18.2843 20.9837H5.68833ZM5.68833 19.9972H18.2843C18.4362 19.9972 18.5754 19.934 18.7018 19.8076C18.8282 19.6812 18.8914 19.542 18.8914 19.3901V10.7399H5.08117V19.3901C5.08117 19.542 5.14439 19.6812 5.27082 19.8076C5.39725 19.934 5.53642 19.9972 5.68833 19.9972ZM5.08117 9.75322H18.8914V6.79412C18.8914 6.64221 18.8282 6.50304 18.7018 6.37661C18.5754 6.25018 18.4362 6.18697 18.2843 6.18697H5.68833C5.53642 6.18697 5.39725 6.25018 5.27082 6.37661C5.14439 6.50304 5.08117 6.64221 5.08117 6.79412V9.75322Z" fill="white"/>
<path d="M5.68833 20.9837C5.23424 20.9837 4.85511 20.8316 4.55096 20.5274C4.2468 20.2233 4.09473 19.8442 4.09473 19.3901V6.79412C4.09473 6.34003 4.2468 5.9609 4.55096 5.65675C4.85511 5.35259 5.23424 5.20052 5.68833 5.20052H7.43336V3.5312C7.43336 3.37814 7.48367 3.2513 7.58429 3.15068C7.6849 3.05023 7.81166 3 7.96456 3C8.11762 3 8.24446 3.05023 8.34508 3.15068C8.44554 3.2513 8.49576 3.37814 8.49576 3.5312V5.20052H15.5528V3.49322C15.5528 3.35282 15.5999 3.23551 15.6941 3.14131C15.7883 3.0471 15.9056 3 16.046 3C16.1863 3 16.3035 3.0471 16.3977 3.14131C16.4921 3.23551 16.5393 3.35282 16.5393 3.49322V5.20052H18.2843C18.7384 5.20052 19.1175 5.35259 19.4217 5.65675C19.7258 5.9609 19.8779 6.34003 19.8779 6.79412V19.3901C19.8779 19.8442 19.7258 20.2233 19.4217 20.5274C19.1175 20.8316 18.7384 20.9837 18.2843 20.9837H5.68833ZM5.68833 19.9972H18.2843C18.4362 19.9972 18.5754 19.934 18.7018 19.8076C18.8282 19.6812 18.8914 19.542 18.8914 19.3901V10.7399H5.08117V19.3901C5.08117 19.542 5.14439 19.6812 5.27082 19.8076C5.39725 19.934 5.53642 19.9972 5.68833 19.9972ZM5.08117 9.75322H18.8914V6.79412C18.8914 6.64221 18.8282 6.50304 18.7018 6.37661C18.5754 6.25018 18.4362 6.18697 18.2843 6.18697H5.68833C5.53642 6.18697 5.39725 6.25018 5.27082 6.37661C5.14439 6.50304 5.08117 6.64221 5.08117 6.79412V9.75322Z" fill="#1C1C1C"/>
<path d="M15.5337 12.8135C15.5337 13.0896 15.7575 13.3135 16.0337 13.3135H16.612C16.8881 13.3135 17.112 13.0896 17.112 12.8135V12.2352C17.112 11.959 16.8881 11.7352 16.612 11.7352H16.0337C15.7575 11.7352 15.5337 11.959 15.5337 12.2352V12.8135Z" fill="white"/>
<path d="M15.5337 12.8135C15.5337 13.0896 15.7575 13.3135 16.0337 13.3135H16.612C16.8881 13.3135 17.112 13.0896 17.112 12.8135V12.2352C17.112 11.959 16.8881 11.7352 16.612 11.7352H16.0337C15.7575 11.7352 15.5337 11.959 15.5337 12.2352V12.8135Z" fill="#1C1C1C"/>
<path d="M15.5337 15.6572C15.5337 15.9334 15.7575 16.1572 16.0337 16.1572H16.612C16.8881 16.1572 17.112 15.9334 17.112 15.6572V15.0789C17.112 14.8028 16.8881 14.5789 16.612 14.5789H16.0337C15.7575 14.5789 15.5337 14.8028 15.5337 15.0789V15.6572Z" fill="white"/>
<path d="M15.5337 15.6572C15.5337 15.9334 15.7575 16.1572 16.0337 16.1572H16.612C16.8881 16.1572 17.112 15.9334 17.112 15.6572V15.0789C17.112 14.8028 16.8881 14.5789 16.612 14.5789H16.0337C15.7575 14.5789 15.5337 14.8028 15.5337 15.0789V15.6572Z" fill="#1C1C1C"/>
<path d="M12.6475 12.8135C12.6475 13.0896 12.8713 13.3135 13.1475 13.3135H13.7258C14.0019 13.3135 14.2258 13.0896 14.2258 12.8135V12.2352C14.2258 11.959 14.0019 11.7352 13.7258 11.7352H13.1475C12.8713 11.7352 12.6475 11.959 12.6475 12.2352V12.8135Z" fill="white"/>
<path d="M12.6475 12.8135C12.6475 13.0896 12.8713 13.3135 13.1475 13.3135H13.7258C14.0019 13.3135 14.2258 13.0896 14.2258 12.8135V12.2352C14.2258 11.959 14.0019 11.7352 13.7258 11.7352H13.1475C12.8713 11.7352 12.6475 11.959 12.6475 12.2352V12.8135Z" fill="#1C1C1C"/>
<path d="M12.6475 15.6572C12.6475 15.9334 12.8713 16.1572 13.1475 16.1572H13.7258C14.0019 16.1572 14.2258 15.9334 14.2258 15.6572V15.0789C14.2258 14.8028 14.0019 14.5789 13.7258 14.5789H13.1475C12.8713 14.5789 12.6475 14.8028 12.6475 15.0789V15.6572Z" fill="white"/>
<path d="M12.6475 15.6572C12.6475 15.9334 12.8713 16.1572 13.1475 16.1572H13.7258C14.0019 16.1572 14.2258 15.9334 14.2258 15.6572V15.0789C14.2258 14.8028 14.0019 14.5789 13.7258 14.5789H13.1475C12.8713 14.5789 12.6475 14.8028 12.6475 15.0789V15.6572Z" fill="#1C1C1C"/>
<path d="M12.6475 18.501C12.6475 18.7771 12.8713 19.001 13.1475 19.001H13.7258C14.0019 19.001 14.2258 18.7771 14.2258 18.501V17.9227C14.2258 17.6465 14.0019 17.4227 13.7258 17.4227H13.1475C12.8713 17.4227 12.6475 17.6465 12.6475 17.9227V18.501Z" fill="white"/>
<path d="M12.6475 18.501C12.6475 18.7771 12.8713 19.001 13.1475 19.001H13.7258C14.0019 19.001 14.2258 18.7771 14.2258 18.501V17.9227C14.2258 17.6465 14.0019 17.4227 13.7258 17.4227H13.1475C12.8713 17.4227 12.6475 17.6465 12.6475 17.9227V18.501Z" fill="#1C1C1C"/>
<path d="M9.75391 12.8135C9.75391 13.0896 9.97776 13.3135 10.2539 13.3135H10.8322C11.1084 13.3135 11.3322 13.0896 11.3322 12.8135V12.2352C11.3322 11.959 11.1084 11.7352 10.8322 11.7352H10.2539C9.97776 11.7352 9.75391 11.959 9.75391 12.2352V12.8135Z" fill="white"/>
<path d="M9.75391 12.8135C9.75391 13.0896 9.97776 13.3135 10.2539 13.3135H10.8322C11.1084 13.3135 11.3322 13.0896 11.3322 12.8135V12.2352C11.3322 11.959 11.1084 11.7352 10.8322 11.7352H10.2539C9.97776 11.7352 9.75391 11.959 9.75391 12.2352V12.8135Z" fill="#1C1C1C"/>
<path d="M9.75391 15.6572C9.75391 15.9334 9.97776 16.1572 10.2539 16.1572H10.8322C11.1084 16.1572 11.3322 15.9334 11.3322 15.6572V15.0789C11.3322 14.8028 11.1084 14.5789 10.8322 14.5789H10.2539C9.97776 14.5789 9.75391 14.8028 9.75391 15.0789V15.6572Z" fill="white"/>
<path d="M9.75391 15.6572C9.75391 15.9334 9.97776 16.1572 10.2539 16.1572H10.8322C11.1084 16.1572 11.3322 15.9334 11.3322 15.6572V15.0789C11.3322 14.8028 11.1084 14.5789 10.8322 14.5789H10.2539C9.97776 14.5789 9.75391 14.8028 9.75391 15.0789V15.6572Z" fill="#1C1C1C"/>
<path d="M9.75391 18.501C9.75391 18.7771 9.97776 19.001 10.2539 19.001H10.8322C11.1084 19.001 11.3322 18.7771 11.3322 18.501V17.9227C11.3322 17.6465 11.1084 17.4227 10.8322 17.4227H10.2539C9.97776 17.4227 9.75391 17.6465 9.75391 17.9227V18.501Z" fill="white"/>
<path d="M9.75391 18.501C9.75391 18.7771 9.97776 19.001 10.2539 19.001H10.8322C11.1084 19.001 11.3322 18.7771 11.3322 18.501V17.9227C11.3322 17.6465 11.1084 17.4227 10.8322 17.4227H10.2539C9.97776 17.4227 9.75391 17.6465 9.75391 17.9227V18.501Z" fill="#1C1C1C"/>
<path d="M6.86035 15.6572C6.86035 15.9334 7.08421 16.1572 7.36035 16.1572H7.93867C8.21481 16.1572 8.43867 15.9334 8.43867 15.6572V15.0789C8.43867 14.8028 8.21481 14.5789 7.93867 14.5789H7.36035C7.08421 14.5789 6.86035 14.8028 6.86035 15.0789V15.6572Z" fill="white"/>
<path d="M6.86035 15.6572C6.86035 15.9334 7.08421 16.1572 7.36035 16.1572H7.93867C8.21481 16.1572 8.43867 15.9334 8.43867 15.6572V15.0789C8.43867 14.8028 8.21481 14.5789 7.93867 14.5789H7.36035C7.08421 14.5789 6.86035 14.8028 6.86035 15.0789V15.6572Z" fill="#1C1C1C"/>
<path d="M6.86035 18.501C6.86035 18.7771 7.08421 19.001 7.36035 19.001H7.93867C8.21481 19.001 8.43867 18.7771 8.43867 18.501V17.9227C8.43867 17.6465 8.21481 17.4227 7.93867 17.4227H7.36035C7.08421 17.4227 6.86035 17.6465 6.86035 17.9227V18.501Z" fill="white"/>
<path d="M6.86035 18.501C6.86035 18.7771 7.08421 19.001 7.36035 19.001H7.93867C8.21481 19.001 8.43867 18.7771 8.43867 18.501V17.9227C8.43867 17.6465 8.21481 17.4227 7.93867 17.4227H7.36035C7.08421 17.4227 6.86035 17.6465 6.86035 17.9227V18.501Z" fill="#1C1C1C"/>
</svg>
