<svg width="21" height="20" viewBox="0 0 21 20" fill="none" xmlns="http://www.w3.org/2000/svg">
<path d="M9.65677 17C10.2245 17 10.6336 16.591 10.6336 16.0431V12.9187H10.8757C14.115 12.9187 16.1521 13.7203 17.6132 16.3948C17.9054 16.9182 18.2894 17 18.6401 17C19.0826 17 19.5 16.6074 19.5 15.904C19.5 9.85985 16.8869 6.08942 10.8757 6.08942H10.6336V2.99782C10.6336 2.44984 10.2245 2 9.6401 2C9.23102 2 8.95545 2.17176 8.51299 2.5807L1.92579 8.61668C1.60019 8.9193 1.5 9.22195 1.5 9.5C1.5 9.76989 1.60853 10.0807 1.92579 10.3751L8.51299 16.4684C8.9137 16.8364 9.24769 17 9.65677 17ZM9.18086 15.2416C9.13078 15.2416 9.08069 15.217 9.03895 15.1679L3.08627 9.65543C3.01948 9.58996 2.99444 9.54906 2.99444 9.5C2.99444 9.45094 3.01948 9.40187 3.08627 9.34457L9.03061 3.75845C9.07236 3.72574 9.12244 3.69302 9.17253 3.69302C9.24769 3.69302 9.28944 3.74209 9.28944 3.80752V7.05452C9.28944 7.24264 9.38127 7.32443 9.57327 7.32443H10.692C16.4193 7.32443 18.1475 11.2175 18.3145 15.078C18.3145 15.1434 18.2894 15.1679 18.2477 15.1679C18.2143 15.1679 18.1976 15.1434 18.1725 15.0861C17.1874 13.0333 14.6577 11.6837 10.692 11.6837H9.57327C9.38127 11.6837 9.28944 11.7655 9.28944 11.9536V15.1189C9.28944 15.1924 9.24769 15.2416 9.18086 15.2416Z" fill="#0065FF"/>
</svg>
