<svg width="24" height="24" viewBox="0 0 24 24" fill="none" xmlns="http://www.w3.org/2000/svg">
<path d="M6.52645 19C5.54857 19 4.71635 18.6617 4.0298 17.9852C3.34327 17.3087 3 16.4876 3 15.522V6.18867C3 5.85261 3.11213 5.57049 3.3364 5.34228C3.56069 5.11409 3.83797 5 4.16826 5H19.0962C19.6197 5 20.0679 5.18013 20.4408 5.54039C20.8136 5.90067 21 6.34422 21 6.87105V9.42452C21 9.95136 20.8136 10.3949 20.4408 10.7552C20.0679 11.1155 19.6197 11.2956 19.0962 11.2956H16.8462V15.522C16.8462 16.4876 16.5029 17.3087 15.8163 17.9852C15.1298 18.6617 14.2976 19 13.3197 19H6.52645ZM6.52645 17.8553H13.3197C13.9801 17.8553 14.5454 17.626 15.0157 17.1673C15.486 16.7087 15.7212 16.1573 15.7212 15.5132V6.14465H4.125V15.5214C4.125 16.166 4.36014 16.7162 4.83043 17.1718C5.3007 17.6275 5.86604 17.8553 6.52645 17.8553ZM16.8462 10.1509H19.0962C19.3125 10.1509 19.4964 10.0812 19.6478 9.94181C19.7993 9.80241 19.875 9.62998 19.875 9.42452V6.87105C19.875 6.6656 19.7993 6.49318 19.6478 6.35378C19.4964 6.21436 19.3125 6.14465 19.0962 6.14465H16.8462V10.1509ZM6.52645 17.8553H4.125H15.7212H6.52645Z" fill="white"/>
<path d="M6.52645 19C5.54857 19 4.71635 18.6617 4.0298 17.9852C3.34327 17.3087 3 16.4876 3 15.522V6.18867C3 5.85261 3.11213 5.57049 3.3364 5.34228C3.56069 5.11409 3.83797 5 4.16826 5H19.0962C19.6197 5 20.0679 5.18013 20.4408 5.54039C20.8136 5.90067 21 6.34422 21 6.87105V9.42452C21 9.95136 20.8136 10.3949 20.4408 10.7552C20.0679 11.1155 19.6197 11.2956 19.0962 11.2956H16.8462V15.522C16.8462 16.4876 16.5029 17.3087 15.8163 17.9852C15.1298 18.6617 14.2976 19 13.3197 19H6.52645ZM6.52645 17.8553H13.3197C13.9801 17.8553 14.5454 17.626 15.0157 17.1673C15.486 16.7087 15.7212 16.1573 15.7212 15.5132V6.14465H4.125V15.5214C4.125 16.166 4.36014 16.7162 4.83043 17.1718C5.3007 17.6275 5.86604 17.8553 6.52645 17.8553ZM16.8462 10.1509H19.0962C19.3125 10.1509 19.4964 10.0812 19.6478 9.94181C19.7993 9.80241 19.875 9.62998 19.875 9.42452V6.87105C19.875 6.6656 19.7993 6.49318 19.6478 6.35378C19.4964 6.21436 19.3125 6.14465 19.0962 6.14465H16.8462V10.1509ZM6.52645 17.8553H4.125H15.7212H6.52645Z" fill="#1C1C1C"/>
</svg>
