<svg width="20" height="20" viewBox="0 0 20 20" fill="none" xmlns="http://www.w3.org/2000/svg">
<path d="M10.0833 17.5C7.96632 17.5 6.17318 16.7738 4.70391 15.3213C3.23464 13.8688 2.5 12.0961 2.5 10.0033C2.5 7.91043 3.23464 6.13667 4.70391 4.68199C6.17318 3.22733 7.96632 2.5 10.0833 2.5C11.3708 2.5 12.5764 2.80254 13.7 3.40761C14.8236 4.0127 15.7292 4.85713 16.4167 5.94092V3.03571C16.4167 2.88393 16.4686 2.7567 16.5726 2.65402C16.6766 2.55134 16.8054 2.5 16.9591 2.5C17.1128 2.5 17.2413 2.55134 17.3448 2.65402C17.4483 2.7567 17.5 2.88393 17.5 3.03571V7.23901C17.5 7.4842 17.4162 7.68974 17.2485 7.85562C17.0807 8.02147 16.8729 8.1044 16.625 8.1044H12.375C12.2215 8.1044 12.0929 8.05299 11.9891 7.95017C11.8852 7.84735 11.8333 7.71995 11.8333 7.56796C11.8333 7.41596 11.8852 7.2888 11.9891 7.18648C12.0929 7.08414 12.2215 7.03297 12.375 7.03297H15.8417C15.2778 5.96429 14.4844 5.1202 13.4615 4.50068C12.4385 3.88118 11.3125 3.57143 10.0833 3.57143C8.27778 3.57143 6.74306 4.19643 5.47917 5.44643C4.21528 6.69643 3.58333 8.21429 3.58333 10C3.58333 11.7857 4.21528 13.3036 5.47917 14.5536C6.74306 15.8036 8.27778 16.4286 10.0833 16.4286C11.3737 16.4286 12.555 16.0828 13.6272 15.3911C14.6993 14.6995 15.4945 13.7809 16.0125 12.6353C16.0736 12.4952 16.1726 12.3966 16.3094 12.3396C16.4462 12.2826 16.5862 12.2782 16.7293 12.3262C16.882 12.3743 16.9833 12.4725 17.0334 12.6209C17.0833 12.7692 17.0778 12.9135 17.0167 13.0536C16.4153 14.3997 15.4909 15.4773 14.2437 16.2864C12.9964 17.0955 11.6096 17.5 10.0833 17.5Z" fill="#0065FF"/>
</svg>
