<svg width="24" height="24" viewBox="0 0 24 24" fill="none" xmlns="http://www.w3.org/2000/svg">
<path d="M12.1 21C9.55959 21 7.40781 20.1285 5.64469 18.3855C3.88156 16.6425 3 14.5153 3 12.0039C3 9.49251 3.88156 7.364 5.64469 5.61839C7.40781 3.8728 9.55959 3 12.1 3C13.645 3 15.0917 3.36304 16.44 4.08913C17.7883 4.81523 18.875 5.82856 19.7 7.1291V3.64286C19.7 3.46071 19.7624 3.30804 19.8871 3.18482C20.0119 3.06161 20.1665 3 20.3509 3C20.5353 3 20.6896 3.06161 20.8138 3.18482C20.9379 3.30804 21 3.46071 21 3.64286V8.68681C21 8.98105 20.8994 9.22769 20.6981 9.42674C20.4969 9.62577 20.2475 9.72528 19.95 9.72528H14.85C14.6658 9.72528 14.5115 9.66359 14.3869 9.5402C14.2623 9.41682 14.2 9.26393 14.2 9.08156C14.2 8.89916 14.2623 8.74656 14.3869 8.62378C14.5115 8.50097 14.6658 8.43957 14.85 8.43957H19.01C18.3333 7.15715 17.3812 6.14424 16.1538 5.40081C14.9263 4.65741 13.575 4.28571 12.1 4.28571C9.93334 4.28571 8.09167 5.03571 6.575 6.53571C5.05833 8.03571 4.3 9.85714 4.3 12C4.3 14.1429 5.05833 15.9643 6.575 17.4643C8.09167 18.9643 9.93334 19.7143 12.1 19.7143C13.6485 19.7143 15.066 19.2993 16.3526 18.4694C17.6392 17.6394 18.5933 16.5371 19.215 15.1624C19.2883 14.9942 19.4071 14.876 19.5713 14.8076C19.7354 14.7392 19.9034 14.7338 20.0752 14.7915C20.2584 14.8492 20.38 14.967 20.44 15.145C20.5 15.3231 20.4933 15.4962 20.42 15.6643C19.6983 17.2797 18.5891 18.5728 17.0924 19.5437C15.5957 20.5146 13.9315 21 12.1 21Z" fill="white"/>
<path d="M12.1 21C9.55959 21 7.40781 20.1285 5.64469 18.3855C3.88156 16.6425 3 14.5153 3 12.0039C3 9.49251 3.88156 7.364 5.64469 5.61839C7.40781 3.8728 9.55959 3 12.1 3C13.645 3 15.0917 3.36304 16.44 4.08913C17.7883 4.81523 18.875 5.82856 19.7 7.1291V3.64286C19.7 3.46071 19.7624 3.30804 19.8871 3.18482C20.0119 3.06161 20.1665 3 20.3509 3C20.5353 3 20.6896 3.06161 20.8138 3.18482C20.9379 3.30804 21 3.46071 21 3.64286V8.68681C21 8.98105 20.8994 9.22769 20.6981 9.42674C20.4969 9.62577 20.2475 9.72528 19.95 9.72528H14.85C14.6658 9.72528 14.5115 9.66359 14.3869 9.5402C14.2623 9.41682 14.2 9.26393 14.2 9.08156C14.2 8.89916 14.2623 8.74656 14.3869 8.62378C14.5115 8.50097 14.6658 8.43957 14.85 8.43957H19.01C18.3333 7.15715 17.3812 6.14424 16.1538 5.40081C14.9263 4.65741 13.575 4.28571 12.1 4.28571C9.93334 4.28571 8.09167 5.03571 6.575 6.53571C5.05833 8.03571 4.3 9.85714 4.3 12C4.3 14.1429 5.05833 15.9643 6.575 17.4643C8.09167 18.9643 9.93334 19.7143 12.1 19.7143C13.6485 19.7143 15.066 19.2993 16.3526 18.4694C17.6392 17.6394 18.5933 16.5371 19.215 15.1624C19.2883 14.9942 19.4071 14.876 19.5713 14.8076C19.7354 14.7392 19.9034 14.7338 20.0752 14.7915C20.2584 14.8492 20.38 14.967 20.44 15.145C20.5 15.3231 20.4933 15.4962 20.42 15.6643C19.6983 17.2797 18.5891 18.5728 17.0924 19.5437C15.5957 20.5146 13.9315 21 12.1 21Z" fill="#1C1C1C"/>
</svg>
