<svg width="24" height="24" viewBox="0 0 24 24" fill="none" xmlns="http://www.w3.org/2000/svg">
<path fill-rule="evenodd" clip-rule="evenodd" d="M12 4.00854C7.5355 4.00854 4.03125 7.17062 4.03125 10.9384C4.03125 13.0888 5.16093 15.0288 6.96812 16.3109L7.30224 16.548L7.13554 16.9222C6.94155 17.3577 6.60632 18.0265 6.13757 18.9526C6.29916 18.9185 6.49354 18.8685 6.71735 18.8024C7.63858 18.5303 8.83911 18.0527 9.69216 17.6786L9.84244 17.6127L10.0026 17.6486C10.6403 17.7919 11.3095 17.8683 12 17.8683C16.4645 17.8683 19.9688 14.7062 19.9688 10.9384C19.9688 7.17062 16.4645 4.00854 12 4.00854ZM3.03125 10.9384C3.03125 6.49939 7.11018 3.00854 12 3.00854C16.8898 3.00854 20.9688 6.49939 20.9688 10.9384C20.9688 15.3774 16.8898 18.8683 12 18.8683C11.2935 18.8683 10.6054 18.796 9.94491 18.6592C9.08633 19.0304 7.92546 19.4883 7.00064 19.7615C6.5262 19.9016 6.05466 20.0118 5.71226 20.0088C5.62156 20.008 5.51877 19.9994 5.41699 19.9713C5.31716 19.9436 5.18421 19.8875 5.07559 19.767C4.8124 19.4752 4.92823 19.1271 5.01118 18.9633C5.47841 18.0412 5.82418 17.3584 6.05435 16.8767C4.21238 15.4339 3.03125 13.3165 3.03125 10.9384Z" fill="#0065FF"/>
<path d="M7.5 9.75C7.5 10.1642 7.83579 10.5 8.25 10.5H15.75C16.1642 10.5 16.5 10.1642 16.5 9.75C16.5 9.33579 16.1642 9 15.75 9H8.25C7.83579 9 7.5 9.33579 7.5 9.75Z" fill="#0065FF"/>
<path d="M7.5 12.75C7.5 13.1642 7.83579 13.5 8.25 13.5H15.75C16.1642 13.5 16.5 13.1642 16.5 12.75C16.5 12.3358 16.1642 12 15.75 12H8.25C7.83579 12 7.5 12.3358 7.5 12.75Z" fill="#0065FF"/>
</svg>
