<svg width="24" height="24" viewBox="0 0 24 24" fill="none" xmlns="http://www.w3.org/2000/svg">
<path fill-rule="evenodd" clip-rule="evenodd" d="M12 4.0083C7.5355 4.0083 4.03125 7.17037 4.03125 10.9382C4.03125 13.0886 5.16093 15.0286 6.96812 16.3107L7.30224 16.5477L7.13554 16.922C6.94155 17.3574 6.60632 18.0263 6.13757 18.9524C6.29916 18.9182 6.49354 18.8683 6.71735 18.8022C7.63858 18.5301 8.83911 18.0524 9.69216 17.6783L9.84244 17.6124L10.0026 17.6484C10.6403 17.7916 11.3095 17.868 12 17.868C16.4645 17.868 19.9688 14.7059 19.9688 10.9382C19.9688 7.17037 16.4645 4.0083 12 4.0083ZM3.03125 10.9382C3.03125 6.49915 7.11018 3.0083 12 3.0083C16.8898 3.0083 20.9688 6.49915 20.9688 10.9382C20.9688 15.3772 16.8898 18.868 12 18.868C11.2935 18.868 10.6054 18.7958 9.94491 18.6589C9.08633 19.0302 7.92546 19.488 7.00064 19.7612C6.5262 19.9014 6.05466 20.0115 5.71226 20.0085C5.62156 20.0077 5.51877 19.9992 5.41699 19.971C5.31716 19.9434 5.18421 19.8872 5.07559 19.7668C4.8124 19.475 4.92823 19.1268 5.01118 18.9631C5.47841 18.041 5.82418 17.3581 6.05435 16.8764C4.21238 15.4336 3.03125 13.3163 3.03125 10.9382Z" fill="#F95832"/>
<path d="M7.5 9.75C7.5 10.1642 7.83579 10.5 8.25 10.5H15.75C16.1642 10.5 16.5 10.1642 16.5 9.75C16.5 9.33579 16.1642 9 15.75 9H8.25C7.83579 9 7.5 9.33579 7.5 9.75Z" fill="#F95832"/>
<path d="M7.5 12.75C7.5 13.1642 7.83579 13.5 8.25 13.5H15.75C16.1642 13.5 16.5 13.1642 16.5 12.75C16.5 12.3358 16.1642 12 15.75 12H8.25C7.83579 12 7.5 12.3358 7.5 12.75Z" fill="#F95832"/>
</svg>
