<svg width="24" height="24" viewBox="0 0 24 24" fill="none" xmlns="http://www.w3.org/2000/svg">
<path d="M16.6697 21.0996C16.0179 21.0996 15.4632 20.8681 15.0055 20.405C14.5478 19.9419 14.319 19.3796 14.319 18.7181C14.319 18.5914 14.3299 18.4602 14.3515 18.3245C14.3732 18.1887 14.4057 18.061 14.4491 17.9413L7.17576 13.596C6.94572 13.8586 6.67835 14.0634 6.37363 14.2106C6.06892 14.3578 5.74254 14.4313 5.39446 14.4313C4.74208 14.4313 4.18756 14.2 3.7309 13.7374C3.27423 13.2747 3.0459 12.7129 3.0459 12.0519C3.0459 11.391 3.27423 10.8285 3.7309 10.3644C4.18756 9.90033 4.74208 9.66828 5.39446 9.66828C5.74254 9.66828 6.06892 9.74186 6.37363 9.88902C6.67835 10.0362 6.94572 10.2411 7.17576 10.5036L14.4491 6.15826C14.4057 6.03858 14.3732 5.91088 14.3515 5.77515C14.3299 5.63942 14.319 5.50821 14.319 5.38153C14.319 4.71999 14.5471 4.15768 15.0034 3.69462C15.4596 3.23154 16.0137 3 16.6654 3C17.3172 3 17.872 3.23133 18.3296 3.69398C18.7873 4.15664 19.0161 4.71844 19.0161 5.37936C19.0161 6.04031 18.7878 6.60283 18.3311 7.06691C17.8745 7.53101 17.32 7.76306 16.6676 7.76306C16.3195 7.76306 15.9931 7.68947 15.6884 7.54231C15.3837 7.39515 15.1163 7.19027 14.8863 6.92769L7.61297 11.2731C7.65632 11.3927 7.68884 11.52 7.71053 11.6549C7.73219 11.7898 7.74303 11.9201 7.74303 12.046C7.74303 12.1719 7.73219 12.3035 7.71053 12.4409C7.68884 12.5783 7.65632 12.7069 7.61297 12.8265L14.8863 17.1719C15.1163 16.9093 15.3837 16.7045 15.6884 16.5573C15.9931 16.4101 16.3195 16.3366 16.6676 16.3366C17.32 16.3366 17.8745 16.5679 18.3311 17.0305C18.7878 17.4932 19.0161 18.055 19.0161 18.7159C19.0161 19.3769 18.788 19.9394 18.3318 20.4035C17.8755 20.8676 17.3215 21.0996 16.6697 21.0996ZM16.6676 6.81044C17.0542 6.81044 17.3857 6.6703 17.6621 6.39001C17.9385 6.10972 18.0767 5.77356 18.0767 5.38153C18.0767 4.9895 17.9385 4.65334 17.6621 4.37305C17.3857 4.09276 17.0542 3.95261 16.6676 3.95261C16.281 3.95261 15.9495 4.09276 15.6731 4.37305C15.3966 4.65334 15.2584 4.9895 15.2584 5.38153C15.2584 5.77356 15.3966 6.10972 15.6731 6.39001C15.9495 6.6703 16.281 6.81044 16.6676 6.81044ZM5.39446 13.4787C5.78107 13.4787 6.11258 13.3386 6.38899 13.0583C6.6654 12.778 6.8036 12.4418 6.8036 12.0498C6.8036 11.6578 6.6654 11.3216 6.38899 11.0413C6.11258 10.761 5.78107 10.6209 5.39446 10.6209C5.00786 10.6209 4.67635 10.761 4.39994 11.0413C4.12353 11.3216 3.98532 11.6578 3.98532 12.0498C3.98532 12.4418 4.12353 12.778 4.39994 13.0583C4.67635 13.3386 5.00786 13.4787 5.39446 13.4787ZM16.6676 20.147C17.0542 20.147 17.3857 20.0069 17.6621 19.7266C17.9385 19.4463 18.0767 19.1101 18.0767 18.7181C18.0767 18.3261 17.9385 17.9899 17.6621 17.7096C17.3857 17.4293 17.0542 17.2892 16.6676 17.2892C16.281 17.2892 15.9495 17.4293 15.6731 17.7096C15.3966 17.9899 15.2584 18.3261 15.2584 18.7181C15.2584 19.1101 15.3966 19.4463 15.6731 19.7266C15.9495 20.0069 16.281 20.147 16.6676 20.147Z" fill="white"/>
<path d="M16.6697 21.0996C16.0179 21.0996 15.4632 20.8681 15.0055 20.405C14.5478 19.9419 14.319 19.3796 14.319 18.7181C14.319 18.5914 14.3299 18.4602 14.3515 18.3245C14.3732 18.1887 14.4057 18.061 14.4491 17.9413L7.17576 13.596C6.94572 13.8586 6.67835 14.0634 6.37363 14.2106C6.06892 14.3578 5.74254 14.4313 5.39446 14.4313C4.74208 14.4313 4.18756 14.2 3.7309 13.7374C3.27423 13.2747 3.0459 12.7129 3.0459 12.0519C3.0459 11.391 3.27423 10.8285 3.7309 10.3644C4.18756 9.90033 4.74208 9.66828 5.39446 9.66828C5.74254 9.66828 6.06892 9.74186 6.37363 9.88902C6.67835 10.0362 6.94572 10.2411 7.17576 10.5036L14.4491 6.15826C14.4057 6.03858 14.3732 5.91088 14.3515 5.77515C14.3299 5.63942 14.319 5.50821 14.319 5.38153C14.319 4.71999 14.5471 4.15768 15.0034 3.69462C15.4596 3.23154 16.0137 3 16.6654 3C17.3172 3 17.872 3.23133 18.3296 3.69398C18.7873 4.15664 19.0161 4.71844 19.0161 5.37936C19.0161 6.04031 18.7878 6.60283 18.3311 7.06691C17.8745 7.53101 17.32 7.76306 16.6676 7.76306C16.3195 7.76306 15.9931 7.68947 15.6884 7.54231C15.3837 7.39515 15.1163 7.19027 14.8863 6.92769L7.61297 11.2731C7.65632 11.3927 7.68884 11.52 7.71053 11.6549C7.73219 11.7898 7.74303 11.9201 7.74303 12.046C7.74303 12.1719 7.73219 12.3035 7.71053 12.4409C7.68884 12.5783 7.65632 12.7069 7.61297 12.8265L14.8863 17.1719C15.1163 16.9093 15.3837 16.7045 15.6884 16.5573C15.9931 16.4101 16.3195 16.3366 16.6676 16.3366C17.32 16.3366 17.8745 16.5679 18.3311 17.0305C18.7878 17.4932 19.0161 18.055 19.0161 18.7159C19.0161 19.3769 18.788 19.9394 18.3318 20.4035C17.8755 20.8676 17.3215 21.0996 16.6697 21.0996ZM16.6676 6.81044C17.0542 6.81044 17.3857 6.6703 17.6621 6.39001C17.9385 6.10972 18.0767 5.77356 18.0767 5.38153C18.0767 4.9895 17.9385 4.65334 17.6621 4.37305C17.3857 4.09276 17.0542 3.95261 16.6676 3.95261C16.281 3.95261 15.9495 4.09276 15.6731 4.37305C15.3966 4.65334 15.2584 4.9895 15.2584 5.38153C15.2584 5.77356 15.3966 6.10972 15.6731 6.39001C15.9495 6.6703 16.281 6.81044 16.6676 6.81044ZM5.39446 13.4787C5.78107 13.4787 6.11258 13.3386 6.38899 13.0583C6.6654 12.778 6.8036 12.4418 6.8036 12.0498C6.8036 11.6578 6.6654 11.3216 6.38899 11.0413C6.11258 10.761 5.78107 10.6209 5.39446 10.6209C5.00786 10.6209 4.67635 10.761 4.39994 11.0413C4.12353 11.3216 3.98532 11.6578 3.98532 12.0498C3.98532 12.4418 4.12353 12.778 4.39994 13.0583C4.67635 13.3386 5.00786 13.4787 5.39446 13.4787ZM16.6676 20.147C17.0542 20.147 17.3857 20.0069 17.6621 19.7266C17.9385 19.4463 18.0767 19.1101 18.0767 18.7181C18.0767 18.3261 17.9385 17.9899 17.6621 17.7096C17.3857 17.4293 17.0542 17.2892 16.6676 17.2892C16.281 17.2892 15.9495 17.4293 15.6731 17.7096C15.3966 17.9899 15.2584 18.3261 15.2584 18.7181C15.2584 19.1101 15.3966 19.4463 15.6731 19.7266C15.9495 20.0069 16.281 20.147 16.6676 20.147Z" fill="#1C1C1C"/>
</svg>
