<svg width="24" height="24" viewBox="0 0 24 24" fill="none" xmlns="http://www.w3.org/2000/svg">
<path d="M19.0571 10.4908V18.5093C19.0571 20.1644 18.2289 21 16.5805 21H7.53375C5.8853 21 5.05713 20.1644 5.05713 18.5093V10.4908C5.05713 8.8356 5.8853 8 7.53375 8H9.90783V9.29359H7.54952C6.76079 9.29359 6.32699 9.72745 6.32699 10.563V18.4369C6.32699 19.2726 6.76079 19.7064 7.54952 19.7064H16.5568C17.3377 19.7064 17.7873 19.2726 17.7873 18.4369V10.563C17.7873 9.72745 17.3377 9.29359 16.5568 9.29359H14.2064V8H16.5805C18.2289 8 19.0571 8.8356 19.0571 10.4908Z" fill="white"/>
<path d="M19.0571 10.4908V18.5093C19.0571 20.1644 18.2289 21 16.5805 21H7.53375C5.8853 21 5.05713 20.1644 5.05713 18.5093V10.4908C5.05713 8.8356 5.8853 8 7.53375 8H9.90783V9.29359H7.54952C6.76079 9.29359 6.32699 9.72745 6.32699 10.563V18.4369C6.32699 19.2726 6.76079 19.7064 7.54952 19.7064H16.5568C17.3377 19.7064 17.7873 19.2726 17.7873 18.4369V10.563C17.7873 9.72745 17.3377 9.29359 16.5568 9.29359H14.2064V8H16.5805C18.2289 8 19.0571 8.8356 19.0571 10.4908Z" fill="#1C1C1C"/>
<path d="M12.0662 14.7362C12.4067 14.7362 12.6997 14.4511 12.6997 14.1185V5.98544L12.6522 4.79755L13.1828 5.35982L14.3865 6.64274C14.4974 6.76944 14.6558 6.8328 14.8142 6.8328C15.1389 6.8328 15.3923 6.59522 15.3923 6.27053C15.3923 6.10423 15.321 5.97752 15.2023 5.85873L12.5255 3.27706C12.3671 3.11867 12.2325 3.06323 12.0662 3.06323C11.9079 3.06323 11.7732 3.11867 11.6069 3.27706L8.93019 5.85873C8.81139 5.97752 8.74805 6.10423 8.74805 6.27053C8.74805 6.59522 8.98562 6.8328 9.31823 6.8328C9.4687 6.8328 9.64292 6.76944 9.75379 6.64274L10.9496 5.35982L11.4881 4.79755L11.4406 5.98544V14.1185C11.4406 14.4511 11.7257 14.7362 12.0662 14.7362Z" fill="white"/>
<path d="M12.0662 14.7362C12.4067 14.7362 12.6997 14.4511 12.6997 14.1185V5.98544L12.6522 4.79755L13.1828 5.35982L14.3865 6.64274C14.4974 6.76944 14.6558 6.8328 14.8142 6.8328C15.1389 6.8328 15.3923 6.59522 15.3923 6.27053C15.3923 6.10423 15.321 5.97752 15.2023 5.85873L12.5255 3.27706C12.3671 3.11867 12.2325 3.06323 12.0662 3.06323C11.9079 3.06323 11.7732 3.11867 11.6069 3.27706L8.93019 5.85873C8.81139 5.97752 8.74805 6.10423 8.74805 6.27053C8.74805 6.59522 8.98562 6.8328 9.31823 6.8328C9.4687 6.8328 9.64292 6.76944 9.75379 6.64274L10.9496 5.35982L11.4881 4.79755L11.4406 5.98544V14.1185C11.4406 14.4511 11.7257 14.7362 12.0662 14.7362Z" fill="#1C1C1C"/>
</svg>
