<svg width="24" height="24" viewBox="0 0 24 24" fill="none" xmlns="http://www.w3.org/2000/svg">
<path fill-rule="evenodd" clip-rule="evenodd" d="M12.7306 3.47756C12.6636 3.33499 12.5563 3.21424 12.4216 3.12961C12.2868 3.04498 12.1301 3 11.9701 3C11.8101 3 11.6534 3.04498 11.5187 3.12961C11.3839 3.21424 11.2766 3.33499 11.2096 3.47756L8.80578 8.5899L3.10947 9.25319C2.95055 9.2716 2.80032 9.33431 2.67658 9.43389C2.55283 9.53347 2.46075 9.66576 2.41123 9.81509C2.36171 9.96443 2.35682 10.1246 2.39714 10.2765C2.43747 10.4285 2.52131 10.566 2.63876 10.6726L6.85173 14.4946L5.73358 20.0179C5.70252 20.1718 5.71704 20.3313 5.77541 20.4774C5.83378 20.6236 5.93357 20.7502 6.06298 20.8425C6.19239 20.9347 6.34601 20.9887 6.50567 20.9979C6.66533 21.0072 6.82437 20.9715 6.96397 20.8949L11.9701 18.1447L16.9763 20.8949C17.116 20.9718 17.2752 21.0078 17.4351 20.9986C17.595 20.9894 17.7489 20.9354 17.8785 20.843C18.0081 20.7506 18.1079 20.6237 18.1662 20.4773C18.2246 20.3309 18.2389 20.1712 18.2075 20.017L17.0893 14.4954L21.3015 10.6726C21.4189 10.566 21.5028 10.4285 21.5431 10.2765C21.5834 10.1246 21.5785 9.96443 21.529 9.81509C21.4795 9.66576 21.3874 9.53347 21.2637 9.43389C21.1399 9.33431 20.9897 9.2716 20.8308 9.25319L15.1336 8.58908L12.7306 3.47756Z" fill="#FFD600"/>
</svg>
