<svg width="41" height="40" viewBox="0 0 41 40" fill="none" xmlns="http://www.w3.org/2000/svg">
<path fill-rule="evenodd" clip-rule="evenodd" d="M21.718 5.79593C21.6062 5.55831 21.4275 5.35707 21.2029 5.21602C20.9782 5.07496 20.7171 5 20.4504 5C20.1838 5 19.9227 5.07496 19.698 5.21602C19.4734 5.35707 19.2947 5.55831 19.1829 5.79593L15.1765 14.3165L5.6827 15.422C5.41782 15.4527 5.16744 15.5572 4.9612 15.7232C4.75496 15.8891 4.60149 16.1096 4.51896 16.3585C4.43642 16.6074 4.42827 16.8743 4.49548 17.1276C4.56269 17.3809 4.70243 17.6099 4.89818 17.7877L11.9198 24.1576L10.0562 33.3631C10.0044 33.6197 10.0286 33.8855 10.1259 34.1291C10.2232 34.3726 10.3895 34.5837 10.6052 34.7374C10.8209 34.8912 11.0769 34.9811 11.343 34.9966C11.6091 35.012 11.8742 34.9524 12.1069 34.8248L20.4504 30.2412L28.794 34.8248C29.0268 34.953 29.2922 35.013 29.5587 34.9977C29.8253 34.9824 30.0817 34.8924 30.2977 34.7384C30.5137 34.5844 30.6801 34.3729 30.7773 34.1289C30.8745 33.8849 30.8984 33.6186 30.8461 33.3617L28.9825 24.159L36.0027 17.7877C36.1985 17.6099 36.3382 17.3809 36.4054 17.1276C36.4726 16.8743 36.4645 16.6074 36.3819 16.3585C36.2994 16.1096 36.1459 15.8891 35.9397 15.7232C35.7334 15.5572 35.4831 15.4527 35.2182 15.422L25.7229 14.3151L21.718 5.79593Z" fill="#E5E5E5"/>
<path fill-rule="evenodd" clip-rule="evenodd" d="M21.718 5.79593C21.6062 5.55831 21.4275 5.35707 21.2029 5.21602C20.9782 5.07496 20.7171 5 20.4504 5C20.1838 5 19.9227 5.07496 19.698 5.21602C19.4734 5.35707 19.2947 5.55831 19.1829 5.79593L15.1765 14.3165L5.6827 15.422C5.41782 15.4527 5.16744 15.5572 4.9612 15.7232C4.75496 15.8891 4.60149 16.1096 4.51896 16.3585C4.43642 16.6074 4.42827 16.8743 4.49548 17.1276C4.56269 17.3809 4.70243 17.6099 4.89818 17.7877L11.9198 24.1576L10.0562 33.3631C10.0044 33.6197 10.0286 33.8855 10.1259 34.1291C10.2232 34.3726 10.3895 34.5837 10.6052 34.7374C10.8209 34.8912 11.0769 34.9811 11.343 34.9966C11.6091 35.012 11.8742 34.9524 12.1069 34.8248L20.4504 30.2412L28.794 34.8248C29.0268 34.953 29.2922 35.013 29.5587 34.9977C29.8253 34.9824 30.0817 34.8924 30.2977 34.7384C30.5137 34.5844 30.6801 34.3729 30.7773 34.1289C30.8745 33.8849 30.8984 33.6186 30.8461 33.3617L28.9825 24.159L36.0027 17.7877C36.1985 17.6099 36.3382 17.3809 36.4054 17.1276C36.4726 16.8743 36.4645 16.6074 36.3819 16.3585C36.2994 16.1096 36.1459 15.8891 35.9397 15.7232C35.7334 15.5572 35.4831 15.4527 35.2182 15.422L25.7229 14.3151L21.718 5.79593Z" fill="black" fill-opacity="0.04"/>
</svg>
