<svg width="235" height="61" viewBox="0 0 235 61" fill="none" xmlns="http://www.w3.org/2000/svg">
<g filter="url(#filter0_di_295_15701)">
<path d="M31.6291 51.1451C32.1568 52.3333 33.8432 52.3333 34.3709 51.1451L41.4928 35.1088C41.9334 34.1169 41.2073 33 40.122 33L25.878 33C24.7927 33 24.0666 34.1169 24.5072 35.1088L31.6291 51.1451Z" fill="white" stroke="#F95832"/>
<rect x="4.5" y="0.5" width="226" height="41" rx="19.5" fill="white"/>
<rect x="4.5" y="0.5" width="226" height="41" rx="19.5" stroke="#F95832"/>
<path d="M26.0928 15.7422V27.0283H25.1152V21.1885H23.4902V26.4443H22.5508V15.9961H23.4902V20.3379H25.1152V15.7422H26.0928ZM18.0186 17.126V23.2197C19.1421 23.207 20.3354 23.1309 21.7129 22.8516L21.8398 23.7402C20.2656 24.0195 18.9707 24.1084 17.7266 24.1084H17.0283V17.126H18.0186ZM30.8916 16.1611C32.5801 16.1738 33.8115 17.1895 33.8115 18.6621C33.8115 20.1348 32.5801 21.1504 30.8916 21.1504C29.1777 21.1504 27.959 20.1348 27.959 18.6621C27.959 17.1895 29.1777 16.1738 30.8916 16.1611ZM30.8916 16.999C29.7617 16.999 28.9238 17.6846 28.9365 18.6621C28.9238 19.6523 29.7617 20.3379 30.8916 20.3379C32.0088 20.3379 32.8467 19.6523 32.8467 18.6621C32.8467 17.6846 32.0088 16.999 30.8916 16.999ZM37.0107 15.7422V21.5439H36.0205V15.7422H37.0107ZM37.0107 22.0898V24.8066H30.6758V26.0762H37.417V26.876H29.6982V24.0576H36.0205V22.8896H29.6729V22.0898H37.0107ZM47.3955 22.8389C49.7188 22.8389 51.1152 23.6006 51.1152 24.9209C51.1152 26.2539 49.7188 27.0156 47.3955 27.0283C45.0723 27.0156 43.6504 26.2539 43.6504 24.9209C43.6504 23.6006 45.0723 22.8389 47.3955 22.8389ZM47.3955 23.626C45.6943 23.6387 44.6406 24.1084 44.6533 24.9209C44.6406 25.7334 45.6943 26.2158 47.3955 26.2158C49.1094 26.2158 50.1504 25.7334 50.1504 24.9209C50.1504 24.1084 49.1094 23.6387 47.3955 23.626ZM51.0137 15.7422V18.5859H52.7148V19.4365H51.0137V22.5342H50.0234V15.7422H51.0137ZM43.6504 16.4531V18.1797H46.9385V16.4531H47.9287V21.6582H42.6729V16.4531H43.6504ZM43.6504 20.8457H46.9385V18.9668H43.6504V20.8457ZM63.7471 21.5186V22.3438H59.1514V24.6543H58.1611V22.3438H53.4131V21.5186H63.7471ZM62.4014 16.3008V20.2236H54.7588V16.3008H62.4014ZM55.7363 17.0879V19.4238H61.4111V17.0879H55.7363ZM62.5918 25.9492V26.7871H54.7334V23.5371H55.7363V25.9492H62.5918ZM73.4844 15.7041V18.4463H75.1982V19.2715H73.4844V21.9502H72.4941V15.7041H73.4844ZM73.4844 22.5342V25.0352H67.2891V26.1396H73.9033V26.9014H66.3115V24.2988H72.4941V23.2832H66.2861V22.5342H73.4844ZM71.415 16.7705V17.5703H64.6865V16.7705H67.5557V15.6279H68.5459V16.7705H71.415ZM68.0508 18.0781C69.6885 18.0781 70.7549 18.7891 70.7676 19.9316C70.7549 21.0742 69.6885 21.7852 68.0508 21.7852C66.4004 21.7852 65.3213 21.0742 65.334 19.9316C65.3213 18.7891 66.4004 18.0781 68.0508 18.0781ZM68.0508 18.8145C66.9844 18.8145 66.2734 19.2588 66.2861 19.9316C66.2734 20.6172 66.9844 21.0361 68.0508 21.0361C69.1172 21.0361 69.8154 20.6172 69.8281 19.9316C69.8154 19.2588 69.1172 18.8145 68.0508 18.8145ZM87.8936 15.7422V20.2363H89.7852V21.0742H87.8936V27.0537H86.9033V15.7422H87.8936ZM84.7324 16.7959V20.833H80.6191V23.4736C82.7139 23.4736 84.1738 23.4038 85.8877 23.0801L85.9893 23.9053C84.2119 24.2354 82.7012 24.3115 80.5303 24.3242H79.6289V20.0078H83.7422V17.6211H79.6035V16.7959H84.7324ZM98.0752 16.0215V26.4443H97.1484V20.8203H95.46V19.9824H97.1484V16.0215H98.0752ZM93.0605 17.1641V17.9893H91.6641V23.2324C92.0767 23.2261 92.6226 23.1753 93.2129 23.0293L93.2891 23.8672C92.3623 24.083 91.6387 24.083 91.1816 24.083H90.7373V17.1641H93.0605ZM96.1836 17.1641V17.9893H94.5078V23.207C95.0728 23.2007 95.7329 23.1436 96.4502 22.9531L96.5391 23.7783C95.5742 24.0322 94.7617 24.0576 94.0635 24.0576H93.6064V17.1641H96.1836ZM100.195 15.7422V27.0283H99.2432V15.7422H100.195ZM110.479 16.6055V21.6201H105.375V16.6055H110.479ZM106.353 17.4307V20.8076H109.488V17.4307H106.353ZM113.716 15.7422V18.8398H115.417V19.6777H113.716V23.2578H112.726V15.7422H113.716ZM110.783 23.042C110.771 24.667 112.611 25.8604 114.604 26.1904L114.198 26.9775C112.529 26.6729 110.974 25.8096 110.301 24.5146C109.615 25.8096 108.054 26.6729 106.378 26.9775L105.984 26.1904C107.978 25.8604 109.793 24.667 109.793 23.042V22.6992H110.783V23.042ZM119.949 23.3213C119.949 24.3179 120.482 25.3779 121.562 25.9873C122.628 25.3208 123.199 24.1973 123.199 23.3213V22.6992H124.177V23.3213C124.177 24.4766 125.027 25.6445 126.475 26.1396L125.979 26.876C124.85 26.4761 124.056 25.689 123.669 24.7432C123.32 25.6572 122.628 26.5205 121.587 26.9648C120.489 26.5459 119.791 25.7144 119.454 24.7686C119.054 25.6826 118.273 26.4697 117.194 26.876L116.687 26.1396C118.108 25.6064 118.972 24.4004 118.984 23.3213V22.6992H119.949V23.3213ZM125.446 15.7549V22.2041H124.456V15.7549H125.446ZM119.353 16.415C121.066 16.415 122.311 17.4814 122.311 19.0557C122.311 20.6045 121.066 21.6709 119.353 21.6709C117.639 21.6709 116.395 20.6045 116.395 19.0557C116.395 17.4814 117.639 16.415 119.353 16.415ZM119.353 17.2656C118.197 17.2529 117.359 18.002 117.372 19.0557C117.359 20.0967 118.197 20.833 119.353 20.8457C120.495 20.833 121.333 20.0967 121.333 19.0557C121.333 18.002 120.495 17.2529 119.353 17.2656ZM136.491 19.1699V19.9697H128.76V16.1611H129.75V19.1699H136.491ZM137.685 21.5059V22.3184H127.351V21.5059H137.685ZM136.555 25.9238V26.749H128.696V23.4736H129.687V25.9238H136.555ZM147.714 16.9229C147.701 20.1855 146.597 23.1689 142.534 25.1621L141.976 24.4004C144.102 23.3721 145.378 22.0645 146.063 20.541L142.191 20.9092L142.026 20.0332L146.368 19.7412C146.565 19.1064 146.679 18.4399 146.724 17.748H142.598V16.9229H147.714ZM150.596 15.7422V20.3379H152.424V21.1758H150.596V27.0283H149.605V15.7422H150.596ZM162.809 15.7422V27.0283H161.844V15.7422H162.809ZM160.6 16.0215V26.4316H159.647V20.9346H158.073V20.0332H159.647V16.0215H160.6ZM158.403 17.1895V18.0146H157.451V23.2324C157.876 23.207 158.283 23.1689 158.657 23.1182L158.721 23.8545C156.943 24.1846 154.569 24.2354 153.097 24.2354L152.97 23.3848C153.319 23.3848 153.725 23.3848 154.163 23.3721V18.0146H153.211V17.1895H158.403ZM155.077 23.3594C155.547 23.3467 156.042 23.3276 156.524 23.2959V18.0146H155.077V23.3594ZM171.441 18.1035C171.441 19.4492 172.584 20.6934 174.247 21.1885L173.777 21.9502C172.476 21.563 171.46 20.7251 170.972 19.6396C170.477 20.833 169.429 21.7407 168.09 22.1787L167.595 21.3916C169.271 20.8838 170.464 19.5889 170.464 18.1035V17.8877H167.912V17.0625H170.464V15.6914H171.467V17.0625H173.993V17.8877H171.441V18.1035ZM176.418 15.7422V18.5352H178.119V19.373H176.418V22.3057H175.428V15.7422H176.418ZM176.621 22.915V23.7275H173.422C173.587 24.9082 175.244 25.9238 177.053 26.2158L176.685 26.9902C175.028 26.7173 173.53 25.8984 172.889 24.7686C172.241 25.8921 170.756 26.6919 169.118 26.9775L168.737 26.2158C170.559 25.9238 172.197 24.9272 172.368 23.7275H169.182V22.915H176.621ZM187.958 19.1699V19.9697H180.227V16.1611H181.217V19.1699H187.958ZM189.151 21.5059V22.3184H178.817V21.5059H189.151ZM188.021 25.9238V26.749H180.163V23.4736H181.153V25.9238H188.021ZM198.8 15.7422V20.2109H200.691V21.0488H198.8V27.0537H197.81V15.7422H198.8ZM195.829 16.8467V17.6719H191.551V23.3848C193.595 23.3848 195.042 23.2896 196.718 22.9785L196.845 23.8418C195.08 24.1592 193.595 24.2227 191.449 24.2227H190.561V16.8467H195.829ZM207.014 16.7324V17.7354H209.654V15.7549H210.657V23.9941H209.654V20.9854H207.014V22.001H201.834V16.7324H207.014ZM202.824 17.5576V21.2012H206.036V17.5576H202.824ZM210.911 25.9492V26.7871H203.357V23.2578H204.36V25.9492H210.911ZM207.014 20.1602H209.654V18.5732H207.014V20.1602ZM214.339 23.3467C214.352 21.6455 214.872 21.125 215.748 20.5918C216.269 20.2744 216.675 19.7666 216.675 19.0557C216.675 18.1924 216.002 17.6465 215.164 17.6465C214.44 17.6465 213.717 18.0781 213.641 19.1191H212.485C212.549 17.583 213.717 16.6816 215.164 16.6816C216.751 16.6816 217.792 17.71 217.792 19.1064C217.792 20.0967 217.322 20.7949 216.535 21.2773C215.748 21.7598 215.456 22.2422 215.431 23.3467V23.4102H214.339V23.3467ZM214.923 26.0762C214.479 26.0762 214.098 25.708 214.11 25.251C214.098 24.8066 214.479 24.4385 214.923 24.4385C215.367 24.4385 215.735 24.8066 215.735 25.251C215.735 25.708 215.367 26.0762 214.923 26.0762Z" fill="white"/>
<path d="M26.0928 15.7422V27.0283H25.1152V21.1885H23.4902V26.4443H22.5508V15.9961H23.4902V20.3379H25.1152V15.7422H26.0928ZM18.0186 17.126V23.2197C19.1421 23.207 20.3354 23.1309 21.7129 22.8516L21.8398 23.7402C20.2656 24.0195 18.9707 24.1084 17.7266 24.1084H17.0283V17.126H18.0186ZM30.8916 16.1611C32.5801 16.1738 33.8115 17.1895 33.8115 18.6621C33.8115 20.1348 32.5801 21.1504 30.8916 21.1504C29.1777 21.1504 27.959 20.1348 27.959 18.6621C27.959 17.1895 29.1777 16.1738 30.8916 16.1611ZM30.8916 16.999C29.7617 16.999 28.9238 17.6846 28.9365 18.6621C28.9238 19.6523 29.7617 20.3379 30.8916 20.3379C32.0088 20.3379 32.8467 19.6523 32.8467 18.6621C32.8467 17.6846 32.0088 16.999 30.8916 16.999ZM37.0107 15.7422V21.5439H36.0205V15.7422H37.0107ZM37.0107 22.0898V24.8066H30.6758V26.0762H37.417V26.876H29.6982V24.0576H36.0205V22.8896H29.6729V22.0898H37.0107ZM47.3955 22.8389C49.7188 22.8389 51.1152 23.6006 51.1152 24.9209C51.1152 26.2539 49.7188 27.0156 47.3955 27.0283C45.0723 27.0156 43.6504 26.2539 43.6504 24.9209C43.6504 23.6006 45.0723 22.8389 47.3955 22.8389ZM47.3955 23.626C45.6943 23.6387 44.6406 24.1084 44.6533 24.9209C44.6406 25.7334 45.6943 26.2158 47.3955 26.2158C49.1094 26.2158 50.1504 25.7334 50.1504 24.9209C50.1504 24.1084 49.1094 23.6387 47.3955 23.626ZM51.0137 15.7422V18.5859H52.7148V19.4365H51.0137V22.5342H50.0234V15.7422H51.0137ZM43.6504 16.4531V18.1797H46.9385V16.4531H47.9287V21.6582H42.6729V16.4531H43.6504ZM43.6504 20.8457H46.9385V18.9668H43.6504V20.8457ZM63.7471 21.5186V22.3438H59.1514V24.6543H58.1611V22.3438H53.4131V21.5186H63.7471ZM62.4014 16.3008V20.2236H54.7588V16.3008H62.4014ZM55.7363 17.0879V19.4238H61.4111V17.0879H55.7363ZM62.5918 25.9492V26.7871H54.7334V23.5371H55.7363V25.9492H62.5918ZM73.4844 15.7041V18.4463H75.1982V19.2715H73.4844V21.9502H72.4941V15.7041H73.4844ZM73.4844 22.5342V25.0352H67.2891V26.1396H73.9033V26.9014H66.3115V24.2988H72.4941V23.2832H66.2861V22.5342H73.4844ZM71.415 16.7705V17.5703H64.6865V16.7705H67.5557V15.6279H68.5459V16.7705H71.415ZM68.0508 18.0781C69.6885 18.0781 70.7549 18.7891 70.7676 19.9316C70.7549 21.0742 69.6885 21.7852 68.0508 21.7852C66.4004 21.7852 65.3213 21.0742 65.334 19.9316C65.3213 18.7891 66.4004 18.0781 68.0508 18.0781ZM68.0508 18.8145C66.9844 18.8145 66.2734 19.2588 66.2861 19.9316C66.2734 20.6172 66.9844 21.0361 68.0508 21.0361C69.1172 21.0361 69.8154 20.6172 69.8281 19.9316C69.8154 19.2588 69.1172 18.8145 68.0508 18.8145ZM87.8936 15.7422V20.2363H89.7852V21.0742H87.8936V27.0537H86.9033V15.7422H87.8936ZM84.7324 16.7959V20.833H80.6191V23.4736C82.7139 23.4736 84.1738 23.4038 85.8877 23.0801L85.9893 23.9053C84.2119 24.2354 82.7012 24.3115 80.5303 24.3242H79.6289V20.0078H83.7422V17.6211H79.6035V16.7959H84.7324ZM98.0752 16.0215V26.4443H97.1484V20.8203H95.46V19.9824H97.1484V16.0215H98.0752ZM93.0605 17.1641V17.9893H91.6641V23.2324C92.0767 23.2261 92.6226 23.1753 93.2129 23.0293L93.2891 23.8672C92.3623 24.083 91.6387 24.083 91.1816 24.083H90.7373V17.1641H93.0605ZM96.1836 17.1641V17.9893H94.5078V23.207C95.0728 23.2007 95.7329 23.1436 96.4502 22.9531L96.5391 23.7783C95.5742 24.0322 94.7617 24.0576 94.0635 24.0576H93.6064V17.1641H96.1836ZM100.195 15.7422V27.0283H99.2432V15.7422H100.195ZM110.479 16.6055V21.6201H105.375V16.6055H110.479ZM106.353 17.4307V20.8076H109.488V17.4307H106.353ZM113.716 15.7422V18.8398H115.417V19.6777H113.716V23.2578H112.726V15.7422H113.716ZM110.783 23.042C110.771 24.667 112.611 25.8604 114.604 26.1904L114.198 26.9775C112.529 26.6729 110.974 25.8096 110.301 24.5146C109.615 25.8096 108.054 26.6729 106.378 26.9775L105.984 26.1904C107.978 25.8604 109.793 24.667 109.793 23.042V22.6992H110.783V23.042ZM119.949 23.3213C119.949 24.3179 120.482 25.3779 121.562 25.9873C122.628 25.3208 123.199 24.1973 123.199 23.3213V22.6992H124.177V23.3213C124.177 24.4766 125.027 25.6445 126.475 26.1396L125.979 26.876C124.85 26.4761 124.056 25.689 123.669 24.7432C123.32 25.6572 122.628 26.5205 121.587 26.9648C120.489 26.5459 119.791 25.7144 119.454 24.7686C119.054 25.6826 118.273 26.4697 117.194 26.876L116.687 26.1396C118.108 25.6064 118.972 24.4004 118.984 23.3213V22.6992H119.949V23.3213ZM125.446 15.7549V22.2041H124.456V15.7549H125.446ZM119.353 16.415C121.066 16.415 122.311 17.4814 122.311 19.0557C122.311 20.6045 121.066 21.6709 119.353 21.6709C117.639 21.6709 116.395 20.6045 116.395 19.0557C116.395 17.4814 117.639 16.415 119.353 16.415ZM119.353 17.2656C118.197 17.2529 117.359 18.002 117.372 19.0557C117.359 20.0967 118.197 20.833 119.353 20.8457C120.495 20.833 121.333 20.0967 121.333 19.0557C121.333 18.002 120.495 17.2529 119.353 17.2656ZM136.491 19.1699V19.9697H128.76V16.1611H129.75V19.1699H136.491ZM137.685 21.5059V22.3184H127.351V21.5059H137.685ZM136.555 25.9238V26.749H128.696V23.4736H129.687V25.9238H136.555ZM147.714 16.9229C147.701 20.1855 146.597 23.1689 142.534 25.1621L141.976 24.4004C144.102 23.3721 145.378 22.0645 146.063 20.541L142.191 20.9092L142.026 20.0332L146.368 19.7412C146.565 19.1064 146.679 18.4399 146.724 17.748H142.598V16.9229H147.714ZM150.596 15.7422V20.3379H152.424V21.1758H150.596V27.0283H149.605V15.7422H150.596ZM162.809 15.7422V27.0283H161.844V15.7422H162.809ZM160.6 16.0215V26.4316H159.647V20.9346H158.073V20.0332H159.647V16.0215H160.6ZM158.403 17.1895V18.0146H157.451V23.2324C157.876 23.207 158.283 23.1689 158.657 23.1182L158.721 23.8545C156.943 24.1846 154.569 24.2354 153.097 24.2354L152.97 23.3848C153.319 23.3848 153.725 23.3848 154.163 23.3721V18.0146H153.211V17.1895H158.403ZM155.077 23.3594C155.547 23.3467 156.042 23.3276 156.524 23.2959V18.0146H155.077V23.3594ZM171.441 18.1035C171.441 19.4492 172.584 20.6934 174.247 21.1885L173.777 21.9502C172.476 21.563 171.46 20.7251 170.972 19.6396C170.477 20.833 169.429 21.7407 168.09 22.1787L167.595 21.3916C169.271 20.8838 170.464 19.5889 170.464 18.1035V17.8877H167.912V17.0625H170.464V15.6914H171.467V17.0625H173.993V17.8877H171.441V18.1035ZM176.418 15.7422V18.5352H178.119V19.373H176.418V22.3057H175.428V15.7422H176.418ZM176.621 22.915V23.7275H173.422C173.587 24.9082 175.244 25.9238 177.053 26.2158L176.685 26.9902C175.028 26.7173 173.53 25.8984 172.889 24.7686C172.241 25.8921 170.756 26.6919 169.118 26.9775L168.737 26.2158C170.559 25.9238 172.197 24.9272 172.368 23.7275H169.182V22.915H176.621ZM187.958 19.1699V19.9697H180.227V16.1611H181.217V19.1699H187.958ZM189.151 21.5059V22.3184H178.817V21.5059H189.151ZM188.021 25.9238V26.749H180.163V23.4736H181.153V25.9238H188.021ZM198.8 15.7422V20.2109H200.691V21.0488H198.8V27.0537H197.81V15.7422H198.8ZM195.829 16.8467V17.6719H191.551V23.3848C193.595 23.3848 195.042 23.2896 196.718 22.9785L196.845 23.8418C195.08 24.1592 193.595 24.2227 191.449 24.2227H190.561V16.8467H195.829ZM207.014 16.7324V17.7354H209.654V15.7549H210.657V23.9941H209.654V20.9854H207.014V22.001H201.834V16.7324H207.014ZM202.824 17.5576V21.2012H206.036V17.5576H202.824ZM210.911 25.9492V26.7871H203.357V23.2578H204.36V25.9492H210.911ZM207.014 20.1602H209.654V18.5732H207.014V20.1602ZM214.339 23.3467C214.352 21.6455 214.872 21.125 215.748 20.5918C216.269 20.2744 216.675 19.7666 216.675 19.0557C216.675 18.1924 216.002 17.6465 215.164 17.6465C214.44 17.6465 213.717 18.0781 213.641 19.1191H212.485C212.549 17.583 213.717 16.6816 215.164 16.6816C216.751 16.6816 217.792 17.71 217.792 19.1064C217.792 20.0967 217.322 20.7949 216.535 21.2773C215.748 21.7598 215.456 22.2422 215.431 23.3467V23.4102H214.339V23.3467ZM214.923 26.0762C214.479 26.0762 214.098 25.708 214.11 25.251C214.098 24.8066 214.479 24.4385 214.923 24.4385C215.367 24.4385 215.735 24.8066 215.735 25.251C215.735 25.708 215.367 26.0762 214.923 26.0762Z" fill="#1C1C1C"/>
</g>
<path d="M41.5 35.5L38.7734 40.0039L27.5 40.5L24.5 36L41.5 35.5Z" fill="white"/>
<defs>
<filter id="filter0_di_295_15701" x="0" y="0" width="235" height="60.5363" filterUnits="userSpaceOnUse" color-interpolation-filters="sRGB">
<feFlood flood-opacity="0" result="BackgroundImageFix"/>
<feColorMatrix in="SourceAlpha" type="matrix" values="0 0 0 0 0 0 0 0 0 0 0 0 0 0 0 0 0 0 127 0" result="hardAlpha"/>
<feOffset dy="4"/>
<feGaussianBlur stdDeviation="2"/>
<feComposite in2="hardAlpha" operator="out"/>
<feColorMatrix type="matrix" values="0 0 0 0 0 0 0 0 0 0 0 0 0 0 0 0 0 0 0.25 0"/>
<feBlend mode="normal" in2="BackgroundImageFix" result="effect1_dropShadow_295_15701"/>
<feBlend mode="normal" in="SourceGraphic" in2="effect1_dropShadow_295_15701" result="shape"/>
<feColorMatrix in="SourceAlpha" type="matrix" values="0 0 0 0 0 0 0 0 0 0 0 0 0 0 0 0 0 0 127 0" result="hardAlpha"/>
<feOffset dy="3"/>
<feGaussianBlur stdDeviation="3"/>
<feComposite in2="hardAlpha" operator="arithmetic" k2="-1" k3="1"/>
<feColorMatrix type="matrix" values="0 0 0 0 0 0 0 0 0 0 0 0 0 0 0 0 0 0 0.16 0"/>
<feBlend mode="normal" in2="shape" result="effect2_innerShadow_295_15701"/>
</filter>
</defs>
</svg>
